<?xml version="1.0" encoding="UTF-8"?>
<svg xmlns="http://www.w3.org/2000/svg" viewBox="0 0 1149.99 407.31">
  <defs>
    <style>
      .cls-1 {
        fill: #b2b6b7;
      }

      .cls-1, .cls-2 {
        fill-rule: evenodd;
        stroke-width: 0px;
      }

      .cls-2 {
        fill: #292929;
      }
    </style>
  </defs>
  <g id="Layer_1" data-name="Layer 1" image-rendering="optimizeQuality" shape-rendering="geometricPrecision" text-rendering="geometricPrecision">
    <g>
      <path class="cls-2" d="m926.29,197.94c-1.26-.57-1.03.69-2.29-1.03-.57-.8-1.03-2.06-.23-3.09,2.4-3.09,2.52,2.86,2.52,4.12Zm53.55-6.86c-2.29-1.95-1.14-5.15-.46-7.67,1.83,1.72,2.52,5.95.46,7.67Zm-61.78,20.14c-2.86-3.2-.8-11.9-1.72-16.48-1.03-5.03-4-8.81-3.2-14.53,4.12,2.17,4.46,9.04,5.61,14.87.8,4.23,3.32,13.84-.69,16.13Zm57.21-101.37l-34.55,11.21c-3.09,1.03-5.26,2.29-8.12,3.43-2.63,1.03-5.38,2.06-8.24,3.2-6.75,2.63-19.34,6.86-24.03,12.93l-3.89,4.81c-5.15,6.86-3.55,9.61,0,16.59,7.09,14.3,9.73,16.7,12.24,33.52.46,3.43.57,7.32.92,10.53.23,2.29-.34,3.09-.34,5.26,0,2.86-.23,2.75-2.29,3.43l-17.96,4.92c-3.09.8-5.84,1.83-8.81,2.63-13.96,4.12-51.71,11.33-66.02,14.07-13.27,2.4-25.97,4.46-39.47,6.75-6.29,1.03-13.39,1.72-20.02,2.75-6.98,1.03-12.93,2.06-19.91,2.97-13.62,1.95-27.23,3.55-40.96,4.81l-15.56,1.6c-1.37.11-3.66.34-5.26.57l-10.53.92c-3.55,0-7.32.34-10.64.69-7.09.8-14.19.8-22.08.8l-10.98.46c-8.24,1.14-10.53-.11-16.93,0-2.4,0-3.09-.46-5.26-.46h-5.72c-2.29,0-2.97-.34-5.38-.34-6.41,0-33.41.46-39.01-.34-12.93-1.72-14.3-.92-27.69-.8-4.92,0-15.9-1.26-20.94-1.95-6.75-1.03-13.04-1.95-21.05-1.95-4,.11-6.98-.46-10.3-1.03-7.89-1.37-24.14-3.55-31.46-3.55-.46.23-.57.11-1.03.34-.11,0-.23,0-.23.11l-1.03.34c.92,4.23,2.75,3.43,6.98,3.89,9.61,1.03,18.42,3.32,28.37,4,5.84.34,15.1.46,20.25,1.49l19.34,2.4c6.98.34,14.42,0,21.28.46,7.09.46,12.93,1.49,20.25,1.37,6.75-.11,14.76-.23,21.4.46,7.67.92,13.73.11,21.4.34,14.53.46,27,0,41.42-1.14,13.73-1.03,27.46-1.6,41.19-2.4,32.04-1.83,47.25-2.97,79.17-7.67,12.93-1.95,24.83-3.89,37.3-6.29,3.32-.57,6.52-.23,9.73-.92,2.97-.46,5.95-1.49,9.04-1.95,21.85-2.97,33.87-7.09,54.12-11.1,5.95-1.14,12.81-1.6,18.42-3.32,5.61-1.83,10.53-3.55,16.7-5.15,5.61-1.49,11.44-2.86,16.59-5.03,5.49-2.4,11.33-2.75,17.16-4.58,5.38-1.72,11.44-3.2,16.93-4.81,2.75-.69,4.69-2.17,7.32-3.32,2.75-1.14,5.49-1.83,8.47-2.63l32.49-11.1,15.1-6.52c5.26-2.06,10.41-4.12,15.79-6.06.8-16.25-30.66-7.89-38.9-7.44l1.26,12.47c-2.86-2.97-.8-8.24-4.12-9.84-1.72-.8-4.35-.8-5.95.34-1.72,1.26-1.37,2.52-2.52,4.46l-2.75-2.29c-7.09.46-5.49,1.14-8.01,3.09-3.89-3.32-7.09-6.41-8.81,2.4l-1.37-4.92c-3.32-1.03-4.92-.23-7.32,1.03.11,4.69,4.12,17.28,1.49,20.48-2.29-1.95-1.49-6.75-2.06-9.95-.34-2.52-1.49-8.35-2.29-10.18-1.83-.92-3.89-1.49-6.06-.8-1.03,4,1.03,6.52,1.03,10.75-1.72-1.49-2.17-4.69-2.75-6.75-2.06-7.21-2.4-6.18-7.32-6.75l-1.37,5.03c0-.8-1.6-3.66-2.06-4.69-1.03-2.06-2.29-2.86-5.26-2.4-3.2,3.55-.57,3.89.11,7.09.46,2.06.92,7.21,1.03,9.38-2.29-2.06-3.55-9.73-4.81-13.27-.69-1.83-1.72-4.46-3.32-5.38-2.52-1.49-4.92,1.14-6.41,1.72-1.6-1.37-5.15-8.24-6.52-10.64l-.34-.34-.34-.8-.46-.34c-1.37-2.17-1.95-2.17-1.72-5.72.69-8.35,2.4-10.18,9.38-14.42,11.78-7.21,21.74-8.7,34.32-13.04,4.12-1.37,7.55-2.97,11.56-4.46,3.89-1.49,8.24-2.17,12.24-3.43,4.23-1.26,8.12-3.32,11.67-4.35l.8-.34h.34l.8-.34.69-.46c.46-.34-.69-.34,1.14-.34l.8-.34.34-.46,19.11-8.35c8.47-4.81,10.18-5.03,18.76-9.04,7.32-3.32,20.94-11.78,24.03-12.93,4.46-1.72,5.84-4.12,11.67-7.09,4.58-2.29,7.67-4.35,11.44-7.21,1.03-.8,13.16-9.73,6.98-9.73-1.72,0-3.09,1.14-4.35,1.37-6.18,1.37.11-2.29-18.88,4.23-3.89,1.37-7.67,2.52-11.9,3.43-4.92,1.14-8.92.57-10.3,5.38-10.53-.92-6.18-2.06-13.39,3.32-4-1.72-2.06-1.37-6.98-.8-4.58.46-7.21-7.78-9.15,9.04-.34,2.63-.69,8.81-1.6,10.75-2.4-6.29,2.29-12.81-.57-18.42-3.43-.34-4.58-.57-4.92,2.86-.57,4.92-.57,18.53-3.43,21.4-1.95-3.43.92-7.89,1.26-11.44.23-2.4-.69-10.3-1.6-12.13l-2.52.46-1.37,21.17c-.57,5.03.11,5.15-4.23,6.75-2.97,1.14-5.49,2.63-7.89,3.55Z"/>
      <path class="cls-2" d="m81,176.65c.92,1.03,5.84,4,6.98,4.69,5.61,3.09,13.5,2.63,14.87,8.81,2.75,13.73-2.52,35.47-12.13,46.22-1.95,2.17-3.32,4.46-5.38,6.52s-3.78,3.89-5.84,5.95l-6.18,5.72c-1.14,1.14-1.95,1.6-3.2,2.86-2.52,2.52-6.29,7.21-7.55,10.41-4.92,13.27,1.03,16.7,4.92,24.03.11,0,.46.8.57.92.69.69,0,.46.57.11-.11-5.38-2.75-11.33-.92-16.59.8-2.4,1.95-4.23,2.86-6.64,3.55-9.5,1.95-7.67,12.13-16.02,1.95-1.6,3.55-2.75,5.26-4.35,2.17-1.95.92-3.55,4-5.38,2.75,1.14,6.18,3.66,9.04,5.26,1.72.92,8.81,4,10.53,3.89l.8-1.83c-4.92-.69-10.18-5.03-15.22-6.64-2.86-.92-2.97-.69-3.32-3.89,3.32.8,13.62,7.32,16.02,5.26-.34-1.26-1.83-1.49-3.2-2.06s-2.52-1.14-3.78-1.95c-1.14-.69-1.95-1.49-3.55-2.17-1.6-.8-2.4-.8-2.63-2.75,3.55-1.72,6.86.92,9.15,2.29,2.29,1.49,6.86,4.92,8.35,1.72l-4-1.83c-3.32-1.6-8.47-4.12-10.07-7.21,3.09-4.69,6.52,1.14,10.07,2.63,2.97,1.26,9.84,4.69,12.36,2.63-2.06-1.6-7.78-2.86-10.75-4.92s-9.04-3.78-7.67-7.55c2.75-1.26,2.63.23,6.18.46.46-.57.69-1.03,1.14-1.72-1.6-1.49-2.63-1.03-3.43-3.55,3.55.23,6.18,1.49,9.15,2.63,1.6.57,3.09,1.03,4.58,1.6,1.6.69,2.63,1.49,4.12,2.06l.69-1.6c-3.09-1.26-1.49-.11-4.12-2.29-1.83-1.72-8.01-1.83-11.67-8.24,3.55.46,5.03,2.52,9.5,2.75-1.03-7.21-10.53-2.63-11.33-11.78,3.55.8,5.49,4.23,10.75,6.29,2.17.92,3.89,1.37,5.95,2.52,3.2,1.72,1.83,2.63,5.95,1.26-.92-4-3.32-2.75-6.86-4.58-2.63-1.26-5.03-2.86-7.44-4.46-11.44-8.01-6.64-3.55-8.7-14.87-1.14-6.64-2.29-13.27-3.55-19.68-5.49-25.97,32.04-19.91,47.25-17.85,14.99,1.95,29.4,2.4,44.96,2.29,9.15-.11,32.26-3.32,40.62-6.29,4.12-1.49,15.1-6.29,8.47-11.21-3.43-2.63-12.7-4.46-17.73-5.84-2.97-.8-5.61-2.06-8.47-3.09-10.64-3.55-14.76-4.58-26.09-9.38-2.75-1.14-5.49-2.29-8.35-3.43-2.86-1.26-5.03-2.63-7.78-4-2.63-1.37-5.61-2.4-8.24-3.66-3.09-1.49-4.92-2.63-9.15-2.75,1.14,2.97,1.72,2.63,4.58,3.89,5.03,2.17,12.36,6.64,17.05,9.38,3.66,2.17,7.21,4,10.98,6.18,3.43,1.95,8.92,3.89,11.67,5.72-4.12,2.29-20.48-9.95-31.46-10.41,1.03,4.46,5.15,5.61,9.15,7.55l22.54,10.3c3.66,1.83,9.61,2.29,11.33,5.61-2.97-.92-23.23-8.01-26.32-9.61-2.86-1.49-4-2.97-7.89-4.35-5.49-1.95-12.47-4.35-17.16-6.86-4.58-2.4-10.18-7.55-15.9-8.12,2.29,4.92,20.25,13.39,25.86,16.59,4.23,2.4,9.04,5.26,13.5,7.44,3.2,1.49,4.58,1.6,8.35,2.17,2.4.23.8-.34,2.06.8,1.37,1.26,3.2,2.06,3.2,4.58-3.32.34-5.95-1.72-8.7-2.97-8.81-3.78-16.02-7.89-24.94-11.67-8.81-3.78-23.68-16.13-31.35-17.39.69,3.43,1.95,3.43,4.81,5.38l11.9,8.35c1.26.92,2.17.92,3.43,1.49,1.49.69,1.95,1.37,3.09,2.17,5.15,3.66,23.68,11.44,25.51,14.99-4.46-.8-9.73-3.66-13.73-5.38-4.58-1.95-9.04-3.43-13.16-5.84-4-2.29-7.67-4.81-12.24-6.86-2.75-1.26-3.66-2.06-5.84-3.66-1.83-1.37-4-2.75-6.98-3.09,3.32,6.98,20.71,15.45,28.49,20.02,3.43,2.17,3.78.34,3.89,3.43-10.53-1.49-38.44-22.43-44.74-23.23.57,2.17,1.37,2.63,2.86,3.66l12.36,8.7c3.55,2.4,15.67,8.35,16.59,11.44l-4.35.23c-1.6-2.52-8.58-7.09-11.78-8.7-1.72-.8-3.43-1.26-4.92-2.06-5.38-2.63-11.21-9.15-18.19-9.5,2.29,8.01,13.04,8.58,22.54,16.25.46.34.8.69,1.49,1.14l1.72,1.6c-6.98.8-13.84-5.38-20.14-8.24-6.29-2.97-13.39-7.09-19.79-9.5,1.14,4.46,6.86,6.75,10.64,9.38,1.83,1.37,3.78,2.75,6.29,3.66,3.32,1.26,4.69.92,5.95,4.35-11.67.69-18.08-11.1-29.18-12.59.92,4.46,4.69,5.15,7.55,7.89,4.23,3.89,5.84,2.86,8.81,4.92,1.14.92.46.11,1.14,1.37-7.32.46-15.1-8.24-21.74-8.92.92,2.17,5.15,5.72,7.21,7.21,3.09,2.17,7.67,2.52,9.15,5.84-6.75,0-16.93-9.95-21.17-9.84,2.17,4.81,3.89,4.92,7.67,8.01,3.55,3.09,8.24,4.69,8.92,7.09-6.64.69-14.19-7.21-22.88-9.27.69,2.52,2.86,2.97,4.58,4.69,7.21,6.86,13.96,7.78,15.45,12.13-3.32-1.83-4-3.66-9.38-3.66-2.29,3.43,3.2,4.23,4.69,6.75-.11.11-.23,0-.34.11,0,.11-.23.11-.23.11-1.95.34,1.6.11-.69.11-.57,0-.92-.11-1.37-.46-.92-.57-.57-.8-1.83-1.6-1.37-.92-3.32-1.37-5.03-2.17-3.66-1.95-4.12-4.35-9.27-4.92l2.06,4.35c-3.09,0-1.6-.69-4.35-1.37,2.17,6.64,6.86,8.58,12.36,12.13,2.29,1.49,5.03,3.55,7.44,4.81,2.4,1.37,7.09,1.95,7.55,4.46-2.97,2.06-7.44-1.72-9.5-2.86-1.26-.69-8.81-3.43-9.38-3.09Z"/>
      <path class="cls-2" d="m210.86,192.21c-.8-2.63.34-2.52,1.26-4.46.8-1.6.69-3.32,1.26-5.15l1.26-.11c.69,3.89-1.26,8.81-3.78,9.73Zm-26.89-8.35c-.69-3.2,0-4.46,2.63-5.26,0,2.52,0,5.03-2.63,5.26Zm31.69-6.18c-.46-2.52.8-3.32,2.75-4,0,1.26-.11,2.06-.57,2.97-.69,1.03-.92,1.26-2.17,1.03Zm-85.12-105.6c-1.14,2.06-4.69.92-6.64.57-7.55-1.37-7.21-.69-11.44-5.03-1.6-1.6-3.2-1.6-4.23-4,3.2,0,9.38.57,12.7,1.72l-7.21.46c.57,2.63,8.24,5.26,11.56,5.84,1.83.23,4.35-.11,5.26.46Zm106.29,135.35l7.67,2.75.8.34h.34c1.83.11.69,0,1.14.46h.34l.8.34h.34c1.83,0,.8,0,1.14.34h.46c1.72.11.69,0,1.14.46,1.72,0,.69,0,1.14.34h.34c1.83,0,.69,0,1.14.34,1.72,0,.69.11,1.14.46h.34c1.83,0,.8,0,1.14.34h.8c.69.23.34.11.8.34,1.72,0,.69.11,1.14.46h.34c1.83,0,.69,0,1.14.34h.69c.69.23.46.11.8.34,1.83,0,.8.11,1.14.46h.46c1.72,0,.69,0,1.14.34h.34l.8.34h.34c1.72.11.69.11,1.14.46h.34c1.83,0,.8,0,1.14.34h.46l.69.34h.8l.8.46h.69l.8.34h.8l.34.34h1.14l.34.46h.8l.34.34c2.86.23,32.95,8.81,36.73,9.84,18.31,4.92,30.55,6.52,47.82,10.53,3.32.69,6.18,1.72,9.27,2.52,10.07,2.4,20.48,2.86,29.75,5.03,2.86.69,6.75,1.72,9.61,1.95,4.12.34,7.09-.23,11.21.92,4.23,1.14,4.92,2.06,9.61.46l-.69-2.63c-3.43-1.95-7.78-1.6-12.36-2.4-4.23-.8-9.27-2.52-12.7-2.06-5.26.57-5.26-.57-12.24-2.06-4-.8-7.89-2.17-12.36-2.52-8.24-.92-7.78-1.95-12.47-2.4-3.2-.34-10.53-.92-12.81-2.06-5.03-2.17-5.84-1.6-11.78-3.09-4.35-1.03-7.78-2.29-12.13-3.09-12.7-2.52-12.24-2.17-24.03-5.72-3.89-1.26-8.35-1.6-12.13-2.75-1.95-.57-3.89-1.26-5.72-1.95-3.66-1.14-10.53-3.09-14.19-4.58-6.18-2.52-3.43-.92-9.38-1.6-1.49-.11-4.23-1.37-5.61-1.95-6.75-3.09-17.39-4.46-23-7.21,0-3.89,1.03-9.5,1.83-12.93,1.95-7.89,4.23-14.64,8.35-21.4,4.81-8.01,17.39-21.28,11.1-31.12-2.17-3.43-4.35-5.15-7.55-7.32-1.72-1.14-2.86-1.95-4.92-2.75-1.83-.69-3.78-1.26-5.72-1.95-6.18-1.95-8.35-4.12-16.13-6.06-6.18-1.49-5.15-.23-11.44-3.43-9.84-4.81-14.87-4.69-21.85-8.24-2.63-1.26-2.06-1.72-5.95-1.6-5.49.11-2.86-2.75-10.18-5.15-4.23-1.37-5.84-2.52-10.87-4-2.63-.8-9.27-2.86-10.64-4.58-3.32-1.49,0-2.29-5.72-4.58-1.26-.46-2.63-1.03-3.89-1.49-.57-.23-1.26-.34-1.95-.69-1.83-.69-1.14-.11-1.49-1.26,3.09-1.95,6.75,1.72,14.76.92-.69-.46-2.17-1.72-3.2-2.06-1.6-.69-3.89-.34-5.72-.46-4.69-.23-5.61-1.6-9.5.92-.46-.34-.23-.23-.69-.69l-1.83-1.83c-2.97-2.29-7.44-1.95-9.61-5.72,8.58,1.6,17.51,6.86,27,4.69-.69-6.18-8.12-1.49-16.02-5.38-1.26-.57-1.26-.34-1.49-1.49,2.06-1.37,9.27,1.6,14.3-.11-.69-3.89-6.52-1.49-9.95-2.4-1.72-.34-2.75-1.03-4.69-1.26-2.86-.46-3.43.23-4.69-1.95,4.69-1.95,12.59,2.63,16.02-.8-2.4-2.86-8.12-2.17-12.47-2.75-4.23-.46-8.12-2.17-12.24-2.97-7.55-1.49-11.33-1.03-19.34-3.66-2.97-.92-3.55-.92-4.58-3.66,6.86.57,14.76,4.58,21.85,5.84,4.81.92,21.74,3.32,25.4,1.14-1.37-2.29-3.09-2.17-6.18-2.4-4.23-.46-4.69-2.06-6.52-2.29-2.63-.34-8.58.69-13.04-1.72-1.72-.92-.92-.34-1.03-1.03,5.95-1.26,19.34,5.26,23.8,1.37-3.09-3.32-10.53-2.97-15.67-3.89-5.38-1.03-10.98-2.63-16.36-4-5.49-1.26-10.75-2.4-16.02-3.78-7.32-1.95-8.81-3.2-17.39-2.06.8,10.07,8.7,12.47,16.13,17.73,6.75,4.81,14.42,9.5,20.37,13.96,4.35,3.32,8.81,6.06,13.84,9.04,4.81,2.86,9.61,5.61,14.42,8.47,4.81,2.97,10.3,4.92,15.22,7.67,5.72,3.2,10.18,4.23,16.59,6.29,5.84,1.95,10.3,5.26,15.56,7.32l33.98,11.44c17.96,5.61,44.51,6.64,32.72,29.75-5.15,10.07-12.59,18.65-15.56,30.21-1.26,5.15-2.29,14.42-4.12,18.65-2.63-1.14-4.12-4.12-3.09-7.89.8-3.09,1.95-5.95,3.09-8.7,2.52-5.61,5.15-10.75,6.98-16.82h-3.55c-1.37,4.92-4,10.75-6.06,15.33-1.14,2.63-1.83,5.26-2.63,8.01-1.03,3.09-1.6,5.84-4.35,6.64-3.32-6.86,9.38-24.14,6.98-28.26-1.14-1.37-1.95-1.26-3.66-.92-1.26,1.14-1.6,5.26-2.29,6.98-2.17,5.26-4.12,11.67-5.61,17.28-.57,1.95-.57,1.83-2.29,2.52-1.83-5.95,6.06-15.22,5.38-24.6-7.32.11-10.18-.69-12.7,5.61-1.72,4.35-2.4,10.87-5.61,13.04.23-7.89,4.23-14.42,4.81-21.97-1.95.23-1.95,0-3.2,1.14-.69.69-1.26,1.26-1.83,2.29-3.09,5.38-2.63,14.53-8.58,16.59,1.03-4.69,3.32-8.92,4.58-13.73,1.14-4.46-1.95-5.03-3.43-2.52-1.37,2.4-.92,5.15-3.09,5.95-3.09-1.49,2.52-5.95.8-9.15-1.14-1.6-1.95-.8-4.12-1.26-2.17-.57-1.49-.92-4.81-1.03-3.09,5.15-1.26,6.18-4.46,7.67.8-2.97,1.95-5.15,1.83-8.7-2.06-1.03-4.58-1.6-5.72.92l-2.17,6.64c-.8,2.06-1.03,2.86-2.52,3.89.34-3.2,7.09-13.62-1.49-11.67-4.69,1.03-3.09,8.7-6.75,10.41.92-4.35,4.46-5.72,1.6-11.9l-4.23-.11c-1.95,2.52-1.72,6.64-3.43,8.92-2.06-2.86,3.89-8.92-2.06-10.18-2.52-.57-1.95,1.26-6.06-.34-2.75-.92-4.12.34-5.61-.11-2.06-.8-2.06-1.72-5.03-2.17-5.84-1.03-13.62-4.35-17.85-3.09-3.43,1.03-5.84,5.95-2.17,8.24,2.75,1.83,6.29,3.43,9.73,4.69,3.55,1.37,7.09,2.52,10.75,3.78,3.78,1.37,6.98,2.97,10.64,4.23,7.09,2.63,14.07,5.15,21.05,8.01,7.44,2.86,13.04,5.61,21.17,8.12,4,1.26,7.32,1.83,10.87,3.66,3.2,1.72,6.52,2.86,10.41,4.12,7.44,2.4,14.99,4.58,22.31,6.86Z"/>
      <path class="cls-2" d="m960.61,158.92c1.49-1.95,1.37-1.37,4.12-2.29,3.78-1.26,12.36-5.03,14.87-4.69-.69,1.14,0,.11-.57.92-.92.92-2.4,1.6-3.55,1.95-6.18,2.29-9.27,4.35-14.87,4.12Zm-55.95-2.06c5.15,3.78,4.92,4.23,11.78,7.21,18.31,8.24,31.69,3.78,50.34,3.2,12.36-.34,23.23-2.97,35.12-3.2,3.09-.11,6.06.23,9.15.34,3.09,0,6.06-.34,9.15-.23,6.18.34,9.15,3.43,15.22,4.23l1.72-1.6c3.32-1.83,4.46-.34,5.38-5.15-8.24.57-10.53,6.41-13.16-.23-2.75,2.29-1.83,1.72-6.29,1.49l.69-.69c3.2-2.63,7.32-1.95,14.53-6.06,1.95-1.14,2.97-1.37,3.89-3.43-10.3-.11-12.93,8.58-34.55,8.12.92-3.32,4.81-1.72,8.24-3.09,2.63-.92,5.72-2.52,8.24-3.66,4.46-2.06,12.7-4.92,14.3-9.04-6.41.23-12.81,5.84-19.11,7.78-5.72,1.6-15.33,5.49-20.71,6.18,1.14-2.06,4.12-2.63,7.78-4.23,6.86-2.97,21.17-8.58,23.8-13.73-4,.11-5.15,1.72-7.89,3.32-2.86,1.72-20.14,7.55-24.71,9.27-9.15,3.43-24.71,9.95-35.47,10.07,1.72-1.6,11.44-4.35,13.5-5.03,4.81-1.49,9.27-2.97,13.84-4.81,5.84-2.52,22.54-8.24,24.71-12.36-4.58-1.37-5.72.57-13.62,4-2.75,1.14-11.56,5.49-14.53,4.69l.11-2.75c6.41-1.14,30.78-12.01,32.49-15.45-4-1.26-7.32,1.14-10.07,2.75-4.92,2.86-14.53,5.84-20.37,7.89-3.66,1.26-6.64,2.75-9.95,4.12-6.75,2.75-13.96,5.15-20.71,7.55-4,1.37-18.08,7.67-21.62,5.03,5.84-3.43,14.07-4.81,21.05-7.09,10.64-3.55,20.48-7.89,30.89-11.9,3.78-1.49,6.29-3.09,9.61-4.81,5.26-2.75,17.28-5.15,19.34-9.27-2.29-2.75-8.24,1.03-10.64,2.29-3.43,1.6-6.75,3.2-10.3,5.03-8.81,4.58-44.96,14.64-57.78,18.42-2.63.8-10.07,4-12.36,2.4.8-1.6,9.61-3.78,11.21-4.23,4.23-1.26,8.01-2.4,12.24-3.55,4.35-1.14,7.67-2.29,11.56-3.89,3.78-1.6,7.67-3.32,12.01-4.12,3.89-.8,4.81.11,6.29-1.37,4.12-3.89,8.47-4,16.25-7.67,3.78-1.72,7.21-3.32,10.75-4.92,4.92-2.17,6.86-2.17,8.35-7.44-1.95.11-23.8,11.1-31.92,13.62-2.4.69-4.58.46-6.64,1.03-1.6.46-3.78,1.72-5.61,2.29-4,1.37-8.12,2.06-12.36,2.97s-7.55,2.63-11.67,3.89c-4,1.26-8.01,2.17-12.01,3.32-4,1.03-7.78,3.32-11.56,4.12l.11-2.63c3.2-2.52,17.39-5.49,22.43-7.32,2.29-.92,2.52-1.72,5.26-1.83,10.18-.8,5.84-2.4,17.16-5.49,8.01-2.17,14.87-4.69,21.97-7.78,3.55-1.49,6.75-3.09,10.18-4.69,6.64-2.86,8.35-2.4,8.58-6.18-4.23.23-3.78.57-6.86,2.17-5.26,2.86-3.55-.34-13.62,4.69-2.4,1.26-4,1.95-6.75,2.75-9.73,2.86-17.96,6.86-28.26,8.81-3.09.57-3.78,1.72-6.86,2.17-4.81.8-3.43.57-6.75,2.52-3.89,2.17-10.18,2.06-14.64,4-4.23,1.95-8.47,3.55-12.93,5.38-2.63,1.03-4,1.83-4.92,4.35-.57,1.6-1.95,5.84-2.06,7.44Z"/>
      <path class="cls-2" d="m967.71,108.01c-.69-11.44-7.44-5.26.57-29.86,2.17-6.41,1.37-9.27-.46-15.33-3.89-12.36,6.52-13.96,16.02-18.99,7.09-3.78,4.58-2.75,12.47-5.84l22.88-9.15c1.14-.92.92-1.49,2.52-2.52,4.35,2.75,5.15,14.53,4.46,20.94-.34,4.35-1.26,6.64-2.63,10.18-1.6,3.89-2.4,5.72-7.32,6.18,1.72-2.75,3.32-1.49,3.66-5.03-5.61.69-6.64,4-11.67,3.55,1.49-2.97,3.2-2.06,6.75-3.66,2.63-1.14,4.81-2.63,7.09-3.89l.11-2.52c-8.01.23-18.19,8.7-27.57,10.07,6.75-6.75,23.91-8.81,25.63-16.59-1.83.34-2.63,1.03-4.12,1.95-2.86,1.83-18.19,8.01-22.08,9.5-3.09,1.14-6.29,3.32-9.38,2.63,1.03-3.78,3.89-.8,8.81-3.89,6.41-4,16.48-8.47,22.08-13.04.92-.8,1.14-.92,1.14-2.06-2.97-.57-5.84,1.49-8.24,2.63l-5.72,2.75c-1.83.69-1.72.23-2.06,0,1.49-.92,3.32-1.95,5.38-2.97,2.29-1.14,3.89-1.14,4.69-3.78-3.09.92-8.92,3.78-12.01,5.26-9.84,4.58-7.67,2.17-10.53,6.98-9.15.69-5.95-.57-10.64,4.23-.92.92-1.95,1.37-3.09,2.29-5.84,5.03-.34,8.12,5.49,9.84,10.75,3.2,25.51,2.4,36.96,1.03,30.32-3.78,25.29-3.32,49.88-11.21,3.55-1.03,4.35-1.6,7.09-3.2,2.17-1.37,5.15-1.95,7.32-2.86.57-1.26.46-1.49.46-3.09-3.89-.92-3.66,1.03-5.61,2.4l-20.14,6.18c-2.52.8-4.92.69-7.32,1.49-7.67,2.17-13.84,3.66-22.65,3.66,1.37-2.86,3.43-18.08,3.43-22.2,0-7.44-2.52-14.19-5.72-20.14-7.78,0-5.72-.69-8.47,1.83-1.83,1.49-4.69,2.63-6.75,3.89-5.26,2.97-6.75,5.95-13.73,7.67-6.29,1.37-2.63.46-7.44,2.86-6.06,3.09-14.64,8.47-20.59,11.44-3.09,1.6-9.84,6.98-8.35,12.01,2.4,7.67,2.63,9.73.69,18.08-1.83,8.24-4.58,30.32,8.7,30.32Z"/>
      <path class="cls-2" d="m4.23,112.13l1.83-.69c-.8-1.03-2.4-3.78-2.97-5.03-1.03-2.06.34-2.97,1.72-4.69,2.97-4,7.67-9.73,12.24-11.78,1.03-.46,1.6-.69,2.52-1.26,2.06-1.14,1.03-.92,2.17-2.06,1.49-1.49,7.89-4.81,10.75-5.38l.34.46c3.09,4.23,3.09,5.38,4.46,7.78l7.32,5.95c2.29,2.06,11.1,11.1,15.1,11.21-1.83-2.86-17.28-18.65-19.68-20.37-2.52-1.83-5.84-3.66-6.86-6.98,3.66-3.66,3.32-1.14,7.78-4.35,3.32-2.4,9.84-8.7,12.47-11.9,4.23-5.03,4.35-3.32,5.72-6.98,1.6-4.46,2.52-2.52,4.46-7.67,1.37-3.55,2.63-5.03,4.46-7.78,2.63-4.23,1.83-3.43,6.98-5.26,9.73-3.32,21.4.57,30.43,3.78,2.97,1.03,6.18,2.17,9.27,2.97,3.66.92,6.64.92,10.41,2.17,9.73,3.09,34.9,4,45.42,1.95,0-9.15-9.04-12.59-15.56-16.25-3.43-1.83-6.52-3.66-9.84-5.72-2.52-1.49-7.32-5.03-10.87-5.03-.23,8.58,4.69,4.81,6.06,10.98l-6.18-.57c0,3.78.92,3.2,1.37,5.95l-5.03-1.14c.11,1.95,1.49,2.97,2.17,4.81-3.89-.8-3.09.57-4.35-6.18-2.06-11.67-1.14-9.38.57-19.68.69-3.55,1.03-5.61,3.78-7.09,1.26.34,4.58,3.32,5.95,4.35,6.64,5.03,11.21,8.12,18.88,12.24l.34.46h.46l.34.34.34.34h.46l.34.46.8.34h1.49v-1.95c-3.09,0-6.52-3.09-8.92-4.35-1.72-1.03-2.86-1.14-4.58-2.29-7.21-4.81-8.81-6.06-14.87-12.24-.8-.92-2.63-2.97-2.86-4-8.81.23-10.53,17.96-9.61,26.09.23,2.06.23,3.78.46,5.61.11,1.83.57,3.66.69,5.38l-10.87-2.52c-11.67-2.52-30.89-11.67-44.28-1.95-2.63,1.95-5.15,4-6.64,7.09-.69,1.49-1.26,3.09-2.06,4.81-5.61,13.5-11.33,17.28-21.97,25.97-8.7,7.09-5.38,4.12-12.59,8.12-1.49.92-2.4,1.95-3.78,2.97-2.75,2.06-8.35,3.2-16.36,11.21-2.4,2.52-3.55,5.84-3.89,9.5v4.35c.11,1.14.23,1.03,1.03,1.83s1.03.92,1.72,1.83c.57.92.57,1.26,1.49,1.83Z"/>
      <path class="cls-2" d="m840.14,382.14l18.19-2.75c11.9-2.06,14.87-2.17,26.54-5.15l25.63-6.41c5.72-1.37,11.1-2.86,16.7-4.35l32.84-9.5c2.63-.8,5.61-1.37,8.58-2.06,1.49-.34,2.75-.69,4-1.26l3.32-2.06c-.23-.92.11-.34-.46-1.03-3.55-.34-12.81,2.97-16.7,4-5.72,1.6-11.1,2.86-16.82,4.69-15.56,4.92-20.25,5.03-33.98,8.58-11.44,2.97-22.88,5.38-34.55,7.89l-17.51,3.78c-4.81,1.03-13.73,2.29-15.79,5.61Z"/>
      <path class="cls-2" d="m555.36,406.97c.92.23,1.72.34,2.63.34h1.72c1.83,0,3.66-.34,5.95-.34,3.55,0,7.44.11,10.98,0,2.06,0,2.63-.34,5.03-.34,4.35,0,13.73-.23,16.93.23,3.32.46,21.97.34,27.69.11,1.95,0,2.86-.34,5.26-.34,10.75,0,23.23-1.49,32.49-1.49,2.17-.11,2.63-.46,4.92-.46,7.55,0,8.24.23,16.13-.92l15.56-1.37c2.17-.11,3.2-.23,5.26-.34,3.2-.23,6.75-.8,9.95-1.14l9.95-1.6c1.72-1.14,1.6,0,1.83-1.49-1.83-.92-14.76,1.37-20.94,1.49-7.32.23-13.62,1.49-20.94,1.95-3.78.23-7.67.11-11.44.46-3.32.23-6.18,1.37-9.61,1.72-6.98.69-14.99.69-22.08.8-15.22.57-30.55.57-45.77.57-7.44,0-15.56.34-22.88-.11-14.42-.8-6.64-1.03-21.17.23.92.92,1.72,1.14,2.52,2.06Z"/>
      <path class="cls-2" d="m1108.21,108.01c-3.09-7.67-11.1-8.92-13.96-36.73-.57-5.84-.69-6.75-3.55-11.21-.8-1.14,0-.57-1.03-1.14-.11,0-.23-.23-.23-.11-.11,0-.23-.23-.34-.23l-1.95-1.14c.69,4,3.09,6.29,3.32,9.73-1.6,1.6-5.49,3.32-7.55,4.69-2.52,1.6-4.58,3.55-7.44,4.69l-.11,2.63c2.97-.46,3.32-1.72,7.89-3.89,4.23-2.06,2.4-5.03,6.98-5.26,1.72,3.2,1.26,4.35-1.72,6.41-2.63,1.83-3.32,2.06-6.75,3.2l-.57,2.63c4.81-1.14,5.84-4.23,10.75-3.32.69,5.15-6.29,2.97-8.47,8.81,4-.34,6.29-2.29,9.61-3.09.92,2.17,2.29,4.23,2.86,6.86-1.49,1.95-3.43,3.78-5.61,4.92-3.09,1.72-5.26,1.14-6.18,4.58,5.72-.57,6.41-4.12,13.27-4.69-1.95,4.58-4.69,2.17-6.52,7.44,2.06,0,10.07-4.92,9.15-1.03,0,.23-.57,1.03-.69,1.26-.69.69-1.14.8-2.06,1.37-2.17,1.14-3.2,1.26-3.89,3.43,3.2-.69,6.98-3.66,10.3-1.95.57,1.95-1.26,2.29-2.86,2.86-2.29.8-2.75.92-2.97,3.55,2.4-.11,3.66-1.03,5.38-1.95,2.17-1.14,2.86-1.14,5.38-1.83l-.46-1.49Z"/>
      <path class="cls-2" d="m1006.15,203.77c8.35.69,10.3-1.6,13.73-2.29-6.64,5.49-12.36,3.2-13.96,7.78,6.64-.46,15.45-3.78,21.28-5.84,6.41-2.29,8.47-4.81,13.39-6.75,1.03-.46,4.12-1.83,2.97-3.32-3.66-2.63-8.01,2.52-12.7,3.09,1.95-2.17,10.64-6.29,12.81-9.04-2.75-2.06-6.98,1.26-9.38,2.52-3.09,1.72-5.84,3.43-9.15,4.92-4.81,2.29-10.07,4.23-15.45,5.26-2.75.46-2.86.92-3.55,3.66Z"/>
      <path class="cls-2" d="m1012.79,220.7c4.58.69,11.21-1.72,14.76-3.2,2.86-1.26,10.18-5.38,12.7-5.61-1.49,1.37-2.75,2.75-4.69,4.12-1.95,1.26-4,2.17-6.29,3.2-4.58,1.95-11.9,3.66-12.36,6.06,9.27-.92,29.18-8.24,31.12-14.42-1.37-.69-2.52-1.03-3.78-2.17.11,0,.23-.23.23-.11,0,0,1.95-.57,2.06-3.66-8.47.46-13.96,5.38-21.62,9.27-3.55,1.83-3.78,3.2-8.01,4.46-3.43,1.03-2.52-.34-4.12,2.06Z"/>
      <path class="cls-2" d="m1064.5,316.58l-.8.46h-.34l-.8.34h-.34l-.46.34h-.69l-.46.46h-.69l-.46.34-6.06,1.95-.34.34h-.8l-.34.34h-.8l-.34.46h-.46l-.34.34h-.8l-.34.34h-.8l-.34.46h-.34l-.8.34h-.34l-.8.34h-.34l-.8.46h-.34l-.8.34c-.46.34.69.34-1.14.34-.46.46.69.34-1.14.34-.46.46.69.46-1.14.46-.46.34.69.34-1.14.34-.46.46.69.34-1.14.34-.46.46.69.46-1.14.46l-.8.34h-.34l-.8.46h-.34l-.8.34h-.34l-.8.34h-.34l-.8.46h-.34l-.34.34h-.8l-.34.34h-.8l-.34.46h-.8l-.34.34c-1.83.34-4.46,1.49-6.29,2.17-1.95.8-3.89,1.49-6.06,2.29l-31.35,10.53c-4.12.92-3.89-.34-5.03,3.32,1.95-.11,15.22-4.12,18.19-5.03,8.81-2.63,5.38-2.06,8.58-3.2l9.27-2.52c9.15-3.09,19.45-7.67,28.49-10.41,2.29-.69,4-1.03,6.18-1.95,2.97-1.14,1.14-.92,5.49-1.95,2.97-.8,3.2-1.49,5.61-2.52,4-1.72,9.04-.46,10.41-5.26-2.17.23-3.78,1.14-5.72,1.14Z"/>
      <path class="cls-2" d="m1050.77,209.83l.34.69c2.06-.46,3.2-2.29,5.49-3.32,1.26-.57,1.83-.57,3.32-.8,2.29-.34,1.49-.57,2.97-1.6l.11-.57c-4-.57-5.61,1.37-8.81-.11,2.4-4.35,14.99-7.89,19.11-11.9l-.57-.11c-.23,0,0-.92-4.35,1.72-4.69,2.86-10.18,5.26-15.67,6.06l.34-2.4,12.13-4.12q2.06-.8,2.75-2.97c-5.61,0-9.15,4-15.33,4.35l-.11-3.2c5.03-.23,3.32-.69,6.52-2.4,2.86-1.72,4.12-.11,5.61-3.32-2.63-.34-4.58.69-6.86,1.26-3.66,1.03-2.86,1.26-6.41.34-.11-3.66,0-2.4,2.86-4.92l-7.32-1.49c.57,4.58,3.78,7.67,3.2,21.17-.23,4,.34,4.58.69,7.67Z"/>
      <path class="cls-2" d="m756.62,395.53c10.64,0,26.66-2.29,36.96-4,2.97-.46,5.61-1.03,8.24-1.6l17.39-3.2c5.26-.92,3.55,1.72,7.44-2.29l-.46-1.14-17.62,2.75c-3.09.34-6.06.8-9.15,1.14s-5.26,1.49-8.35,1.95c-5.72.92-11.78,1.95-17.62,2.52-3.09.34-6.18.46-9.38,1.03-2.17.34-6.41.69-7.44,2.86Z"/>
      <path class="cls-2" d="m247.48,361.2l1.72.69c.92.23,1.14.34,2.06.57,1.37.46,2.4.8,3.78,1.14,8.01,2.29,16.82,3.78,24.48,6.06,3.78,1.14,30.32,7.67,33.29,6.98.46-.92-4.35-3.2-5.95-3.78-2.86-.92-6.18-1.37-9.27-1.83-12.81-1.83-7.78-1.6-17.96-4.12-5.84-1.37-11.67-3.09-17.62-4.58-4-1.03-11.21-2.86-15.56-3.55-.23,0-.92-.11-1.26-.11l-.92.23c1.14,1.26,2.06,1.37,3.2,2.29Z"/>
      <path class="cls-2" d="m471.38,402.05c.69.69,5.84.57,7.55.8,2.52.34,5.49.46,8.47.69,5.15.46,11.21,1.37,16.82,1.14,2.17,0,10.07.69,11.9-1.26-2.17-.69-3.32-1.03-6.18-.92-3.66.23-4.46-1.49-5.95-1.49-2.86.11-2.52,1.03-6.52.23-3.78-.8-32.15-2.17-35.7-2.17,1.72,1.14,4.58,2.17,6.75,2.4l2.86.57Z"/>
      <path class="cls-2" d="m391.18,391.75c.69.46,7.21,1.26,8.58,1.49,2.17.34,7.09,1.37,9.15,1.03,14.07,1.26,30.55,4,45.19,5.61,2.63.23,4,.8,4.46-1.83-8.58-1.26-18.76-1.49-27.57-2.52-2.86-.34-5.15-1.6-8.24-1.95-6.18-.92-12.7-.46-18.65-1.6-3.32-.69-4.46-1.49-8.24-1.83l-6.75-.92c-2.29-.34-1.14-.46-1.83.46-.11,1.26-.46.8,1.37,1.26,1.26.34,1.14.11,2.52.8Z"/>
      <path class="cls-2" d="m321.39,378.71c1.37.8,4.69,1.14,6.29,1.6l19.22,4c4.46.8,8.58,1.37,13.04,2.17,2.4.46,11.44,2.29,13.5,2.06h1.49l-.23-1.95c-9.73-1.72-19.34-3.32-28.83-5.03l-21.74-3.89c-2.52-.69-3.55-1.72-6.64-1.83.34,1.26-.46,1.14.92,1.83.92.34,2.17.57,2.97,1.03Z"/>
      <path class="cls-2" d="m41.88,123.45c.8-2.17-.23-3.32-1.37-4.46-2.17-2.29-4.46-4-6.98-7.09-2.75-3.2-.11-1.95-9.5-11.9-1.72-1.95-4.81-5.26-8.12-6.06,1.26,3.43,8.35,13.5,11.44,16.48,2.86,2.97,7.78,6.75,10.75,9.95,1.49,1.6,1.72,2.06,3.78,3.09Z"/>
      <path class="cls-2" d="m1139.56,133.52l.46.34c.8,1.72-.92,2.86-1.37,4.46,2.17-.8,1.95-1.26,4.81-1.72.46,0,.34-.11.23.34-1.14,5.03-3.55,2.63-4.81,7.78,4.81-1.49,2.97-3.2,6.18-4.35-1.14,4.58-4.81,4.92-4.92,8.24,2.97-1.49,3.09-3.32,6.86-4.12-.11,1.6-.57,4.23.23,5.26,4.46-3.78,3.32-9.15-1.95-13.5-3.2-2.52-6.06-4-9.38-6.29-1.37-.92-1.72-1.37-4-1.37-3.32,3.43-4.92,2.29-5.15,6.41,2.4-.69,3.89-1.6,6.06-2.63s4.46.57,6.75,1.14Z"/>
      <path class="cls-2" d="m1016.91,212.35c6.52.34,6.98-1.49,15.45-4.58,2.97-1.03,4-2.17,6.64-3.55,3.09-1.72,4.58-1.37,5.72-4.92-3.43-1.14-1.49-.8-7.21,1.49-6.52,2.75-3.66-.11-11.1,4.92-1.37.92-1.95,1.14-3.43,1.83-4.12,2.17-5.61,1.83-6.06,4.81Z"/>
      <path class="cls-2" d="m95.76,73.45c-1.49-4.92-5.84-5.49-9.84-10.98-2.75-3.66-14.53-14.42-18.99-15.79,1.72,5.72,9.38,10.64,13.16,14.42,3.2,3.09,10.07,10.98,15.67,12.36Z"/>
      <path class="cls-2" d="m50.34,113.61c6.18-3.89-6.18-12.01-8.24-13.84-3.55-2.97-7.89-10.07-14.07-11.44.57,4,2.63,5.84,4.58,7.67,3.09,2.86,9.5,8.47,13.16,10.41,6.18,3.32,1.95,4.46,4.58,7.21Z"/>
      <path class="cls-2" d="m75.97,95.99l1.26-3.66c-2.06-2.06-3.89-4.23-5.84-6.18-4.92-4.69-14.42-15.33-19.56-16.59.34,3.55,2.17,5.49,4.81,7.67l10.18,8.58c4,3.78,7.21,4.92,7.67,5.38,1.37,1.26,0,2.52,1.49,4.81Z"/>
      <path class="cls-2" d="m69.68,96.11c-.46-4.23-4.35-4.35-11.21-12.24-2.17-2.52-8.81-9.84-12.93-10.41,1.6,6.64,6.52,9.15,10.41,13.04,5.72,5.61,3.55,2.29,6.98,4.81,3.89,2.86,1.6,4.69,6.75,4.81Z"/>
      <path class="cls-2" d="m65.56,101.03c.92-1.14,1.03-1.49,1.26-3.55-6.18,1.37-8.58-3.66-14.3-9.15-2.52-2.4-5.72-6.41-5.72-6.52-1.49-1.14-.92-.11-3.43-2.63-1.14-1.14-1.95-1.95-4.12-2.4.57,2.97,3.09,6.52,4.69,7.89,1.14,1.14,1.83,2.06,2.97,3.09l10.64,8.47c1.26.92,2.52,1.83,3.66,2.75,1.26,1.03,2.29,2.06,4.35,2.06Z"/>
      <path class="cls-2" d="m1053.86,300.56c5.72-.11,17.85-5.95,22.54-9.5,1.83-1.37,4.92-2.97,4.81-5.72-3.43-.11-10.98,5.03-14.42,6.86-4.81,2.75-5.03,3.2-10.41,5.61-1.83.92-1.95.8-2.52,2.75Z"/>
      <path class="cls-2" d="m1106.83,180.77c.46.34-.69.57,1.03,0l6.98-3.78c9.38-4.81,6.06-4.23,12.36-8.92l4.81-3.66c2.75-2.86,12.24-10.53,13.27-12.24-2.52-2.17-3.2,1.37-4.35,2.52l-14.42,11.56c-2.06,1.37-3.32,1.49-5.26,3.09l-9.84,7.32c-2.75,1.6-3.43,1.14-4.58,4.12Z"/>
      <path class="cls-2" d="m89.93,77.34c.69-2.75-.92-2.06-2.75-3.2-2.06-1.26-1.83-3.09-6.18-5.95-1.49-.92-1.83-1.72-2.97-3.09-2.63-3.09-8.12-10.3-13.27-11.33.57,4.92,2.29,5.38,4.69,7.67,2.17,2.06,4.23,3.78,6.52,5.72,3.2,2.52,10.64,9.73,13.96,10.18Z"/>
      <path class="cls-2" d="m1049.17,288.32c5.38-.34,19.11-6.64,23.8-10.07,1.03-.69,6.06-4.58,4.81-5.84-1.26-1.49-5.84,2.29-7.09,3.09-2.63,1.6-4.58,2.86-7.09,4.35-4.12,2.52-12.13,4.92-14.42,8.47Z"/>
      <path class="cls-2" d="m109.38,266.93c-11.78,1.95-12.93-6.75-24.48-7.32,1.26,4.92,6.86,6.75,11.9,8.24,8.92,2.86,13.27,6.98,12.59-.92Z"/>
      <path class="cls-2" d="m61.44,60.64c-1.72,4.69,4.69,8.7,6.98,10.64,2.52,1.95,7.67,6.52,11.56,6.98-3.78-7.09-5.49-6.06-8.47-9.73-1.37-1.6-7.09-9.15-10.07-7.89Z"/>
      <path class="cls-2" d="m1006.84,197.71c5.61,1.14,20.25-7.55,26.43-10.75,1.6-.8,2.63-.8,2.86-2.63-2.17-.34-21.97,8.35-27,10.18-2.06.8-2.52.57-2.29,3.2Z"/>
      <path class="cls-2" d="m1045.62,274.59c6.29-.11,11.21-2.06,15.22-4.81,5.95-4.12,10.3-4.35,12.01-8.12-5.49-1.14-14.53,7.21-20.94,8.81-3.89,1.03-5.49-.34-6.29,4.12Z"/>
      <path class="cls-2" d="m117.5,318.76l2.97.8,1.03-1.6c-4.92-1.83-27.12-10.41-31.92-12.7-2.75-1.26-7.78-4.12-10.64-4.69,2.06,3.2,15.1,8.58,18.42,9.84,3.32,1.37,6.41,2.97,9.84,4.35,1.95.8,8.58,4.12,10.3,4Z"/>
      <path class="cls-2" d="m1028.46,244.62c3.78.69,22.43-3.32,24.14-10.98-5.38.23-19.68,7.89-24.14,10.98Z"/>
      <path class="cls-2" d="m1052.95,293.81c6.18,1.03,25.86-10.41,27.46-15.33-4.81-.69-5.03,1.72-7.09,3.43-1.83,1.6-17.62,9.27-19.56,10.98-.8.69-.23,0-.8.92Z"/>
      <path class="cls-2" d="m166.36,28.26c2.52,4.92,8.24,6.29,10.07,11.33,3.2,8.7-1.49,12.36-1.83,17.62,1.03.57,1.03.23,1.72-.69,2.4-3.32,5.03-12.36,2.63-17.62-3.55-7.55-4.35-4.35-7.78-7.89-1.26-1.14-.57-1.03-.92-2.06-.46-1.49-2.86-1.83-4.35-1.83.34,1.03,0,.34.46,1.14Z"/>
      <path class="cls-2" d="m1036.36,263.04c8.24-.69,18.19-5.84,25.17-9.95,1.72-1.03,1.49-.57,2.06-2.75-3.2-1.6-2.17-.57-6.64,1.95-2.4,1.26-4.46,2.17-6.86,3.43-3.32,1.6-8.92,3.89-12.01,5.84-.34.23-.46.23-.8.46-1.03.92-.23-.11-.92,1.03Z"/>
      <path class="cls-2" d="m139.7,185.24c-.8-1.03-3.89-2.17-6.06-3.43-4.69-2.75-11.33-8.35-18.31-8.81,1.6,3.09,7.67,6.18,11.33,8.24,6.75,3.89,7.89,6.98,13.04,4Z"/>
      <path class="cls-2" d="m1032.12,250.11c6.52-.34,9.27-1.37,13.96-4.12,4-2.29,9.73-2.4,9.95-7.44-7.44,1.14-8.81,4.46-18.53,7.67-2.75.8-4.46,1.37-5.38,3.89Z"/>
      <path class="cls-2" d="m1035.1,255.71c8.12-.8,13.73-3.55,20.48-7.09,1.49-.8,5.49-2.86,4.35-4-1.72-1.6-5.26,1.14-6.52,1.72-2.17,1.03-4.23,1.72-6.41,2.86-2.29,1.14-4.12,1.72-6.41,2.75-2.52,1.03-4.81,1.83-5.49,3.78Z"/>
      <path class="cls-2" d="m104.34,275.62l-.34-1.95c-10.75-2.06-19.34-9.27-24.03-9.15.8,2.4,1.6,3.78,4,4.81,2.06.92,4.46,1.6,6.64,2.52,3.78,1.49,8.92,5.15,13.73,3.78Z"/>
      <path class="cls-2" d="m1086.24,271.62c0-4.81-.57-2.17-3.78-7.44-.92-1.6-5.84-5.61-9.73-12.24l-4.46-6.52c-1.6-1.14-2.52-3.2-4.81-3.89,1.83,5.38,7.55,12.81,10.75,15.33,6.06,4.81,7.09,13.27,12.01,14.76Z"/>
      <path class="cls-2" d="m1045.51,267.04c5.49.46,8.24-2.4,12.24-4,4.46-1.83,9.04-1.6,9.84-6.64-4.35-.69-8.35,2.86-12.01,4.46-4.12,1.72-8.58,2.29-10.07,6.18Z"/>
      <path class="cls-2" d="m91.99,291.98c-.92-1.03-1.49-1.03-2.63-1.83-1.26-.69-2.97-3.09-4.69-4-1.03-.57-2.06-1.03-3.09-1.49-3.09-1.72-7.78-5.49-11.67-5.84,1.26,4.92,4.92,5.84,9.38,8.12,3.2,1.49,8.47,4.92,12.7,5.03Z"/>
      <path class="cls-2" d="m134.55,191.76l-.46-1.95c-2.63-.46-7.44-4.23-10.64-6.18-2.63-1.72-8.24-5.72-10.87-6.29.46,3.43,1.49,3.66,4,5.15,2.86,1.72,2.86,2.86,4.92,4.23,1.95,1.26,4.46,1.6,6.64,2.52s3.32,2.52,6.41,2.52Z"/>
      <path class="cls-2" d="m79.52,270.59c-.46,1.72,1.6,3.32,2.97,4.35,2.86,2.29,13.73,7.09,16.48,5.84.8-2.86-1.72-.69-9.15-5.49-2.63-1.72-6.52-5.15-10.3-4.69Z"/>
      <path class="cls-2" d="m978.69,99.88c2.06-2.75,2.86-20.59,1.26-23.8-1.95,3.09-2.97,13.84-3.09,18.19-.11,2.97-.57,4.58,1.83,5.61Z"/>
      <path class="cls-2" d="m1120.79,120.13c-1.37-1.6-9.04-9.15-10.18-9.38-5.03,1.14-1.95,2.75-8.92,6.29-1.83.92-1.6.69-2.4,2.63,8.01-2.63,7.55-5.61,13.96-5.15-.57,2.97-1.72,2.52-2.4,5.03,2.17-.23,3.55-1.03,5.61-.69,1.14.23,1.37.46,2.29.92,2.63,1.26,1.72.57,2.06.34Z"/>
      <path class="cls-2" d="m111.67,198.05c.92,4.23,6.98,4.69,10.53,6.75,2.86,1.72,7.32,5.38,11.9,4.92-.23-.46-.23-.69-.46-1.14-.92-1.49-.8-.92-4.23-2.63-6.41-3.43-3.89.34-8.58-4.35-1.14-1.14-1.37-1.26-2.52-2.06-2.52-1.83-5.72-2.52-6.64-1.49Z"/>
      <path class="cls-2" d="m36.15,106.75c-.34-3.43-.11-2.86-2.06-4.58-1.14-1.14-2.17-2.63-3.32-4-1.83-2.29-4.46-5.95-8.01-6.75,1.03,6.29,8.92,14.42,13.39,15.33Z"/>
      <path class="cls-2" d="m89.59,296.79c-1.26-2.17-6.06-4.92-9.27-6.29-3.78-1.6-6.75-4.35-10.87-5.03,1.37,5.15,12.81,10.87,20.14,11.33Z"/>
      <path class="cls-2" d="m105.26,264.64l1.03-2.06c-4.81-1.26-6.18-2.52-9.61-4.81-2.86-1.95-6.18-4.23-10.3-4.46.69,4.23,4.46,5.03,8.35,6.75,2.75,1.14,8.24,4.12,10.53,4.58Z"/>
      <path class="cls-2" d="m1036.58,170.7c8.12,2.86,4.69,2.63,8.24,8.01,2.86.11,3.78-.23,6.52-1.49,1.6-.8,1.6-.11.92-1.26-.34-1.14.23-.57-1.14-.8l-5.84.11c-2.17-5.49-1.37-.23-1.14-6.52-1.49-.11-2.97-.34-4.46-.34-2.29-.11-2.4.46-3.09,2.29Z"/>
      <path class="cls-2" d="m982.92,93.13l.11,2.75c5.38-1.83,4.92-16.25,1.95-19.22-1.37,4-2.17,11.56-2.06,16.48Z"/>
      <path class="cls-2" d="m136.27,197.94c-2.29-3.55-2.52-1.6-5.84-3.32-4.23-2.17-11.33-10.07-17.73-9.38,1.72,2.06,2.06,2.4,4.69,4.12,4.46,2.86,13.84,7.32,18.88,8.58Z"/>
      <path class="cls-2" d="m1083.27,195.65c.69.57.8.57,2.97-.34,2.86-1.14,5.72-2.52,8.24-4.23,3.09-2.06,7.21-4.81,8.92-7.89l-10.75,5.61c-3.2,1.83-7.55,3.89-9.38,6.86Z"/>
      <path class="cls-2" d="m92.33,251.02c1.49,4.35,10.07,7.21,15.9,7.21-1.37-2.97-3.89-3.2-7.21-4.81-1.83-.92-6.75-4.81-8.7-2.4Z"/>
      <path class="cls-2" d="m174.02,337.52c-.92-1.03-4-2.17-5.38-2.63-4.92-1.95-14.07-5.15-18.88-5.84,1.95,3.43,7.21,3.78,11.33,5.26,2.86,1.03,9.84,4.69,12.93,3.2Z"/>
      <path class="cls-2" d="m168.53,118.19c-1.26-2.75-13.04-7.78-17.39-8.58,1.14,4.46,8.35,6.41,12.24,7.78,2.17.8,2.63,1.72,5.15.8Z"/>
      <path class="cls-2" d="m160.52,91.19c5.03,0,9.5-.57,14.07-1.95,1.6-.57,2.52-1.14,3.89-1.83-.23-1.03.11-.46-.69-.92-3.2.11-7.55,1.03-10.64,1.72-3.55.69-7.67.11-10.18,1.95l3.55,1.03Z"/>
      <path class="cls-2" d="m535.91,406.62c2.29,0,3.43.57,6.06.34,1.95-.23,3.43-.34,5.95-.34,1.6-.92,1.49-.11,2.75-1.6-2.52-1.83-14.87-2.06-18.19-.34.8,1.26,2.06,1.03,3.43,1.95Z"/>
      <path class="cls-2" d="m136.38,176.88l.57-1.83c-6.64-1.83-13.62-7.44-20.25-8.81,1.37,2.63,14.99,10.64,19.68,10.64Z"/>
      <path class="cls-2" d="m30.21,130.89c-.8-2.06-3.32-5.95-4.46-7.78-1.72-2.52-3.78-4.23-7.78-4.81,1.26,5.26,8.92,11.1,12.24,12.59Z"/>
      <path class="cls-2" d="m87.53,160.75c-.11-4.12-.92-4.92-4.12-6.52-1.95-1.03-5.03-2.63-7.32-3.09,1.03,4.12,6.75,8.81,11.44,9.61Z"/>
      <path class="cls-2" d="m1039.33,229.51l-.23,2.63c5.38-.23,11.9-2.29,11.44-7.67-2.17-.11-3.89,1.49-5.61,2.4-1.72,1.03-4,1.72-5.61,2.63Z"/>
      <path class="cls-2" d="m86.84,282.49c-.57-1.49-12.81-7.89-15.45-8.47,1.26,4,7.21,6.64,10.98,8.35,2.06.92,3.09,1.49,4.46.11Z"/>
      <path class="cls-2" d="m53.55,159.49c.57,1.37,5.15,3.89,6.41,4.92,1.14.8,2.17,1.49,3.43,2.29,1.14.8,2.06,1.95,3.78,1.72l1.6-.92c-.8-1.03-1.83-.92-4.35-2.63-4-2.97-8.47-6.52-13.16-8.35.69,1.37,1.6,1.72,2.29,2.97Z"/>
      <path class="cls-2" d="m66.59,74.83c-1.14-4.58-4.69-9.04-9.15-10.07.46,5.26,4.46,9.38,9.15,10.07Z"/>
      <path class="cls-2" d="m972.74,98.62c1.26-1.72,3.66-16.48,1.95-19.11-1.03,1.37-1.72,7.32-2.29,9.61-.92,3.89-1.6,6.41.34,9.5Z"/>
      <path class="cls-2" d="m1055.69,224.48c0-2.29.57-10.98-3.66-12.01-.8-.23.11-.23-.57,0,0,5.03-.34,10.75,4.23,12.01Z"/>
      <path class="cls-2" d="m1078.35,309.72c2.06-.69,6.29-4.46,7.67-6.29,1.37-1.6,4.92-6.86,4.58-9.38v-.92c-4,2.17-2.52,5.49-5.38,9.15-2.52,3.2-7.09,3.43-6.86,7.44Z"/>
      <path class="cls-2" d="m1057.87,228.14c-.11-.46.11-.34-.69-.92-1.72-.8-1.6-1.14-3.2-.23.92,3.55,2.06,4,3.78,6.75,1.14,2.06,2.4,5.26,4.35,6.06,1.03-2.75-.69-3.78-1.83-5.61-1.26-1.95-1.95-3.32-2.4-6.06Z"/>
      <path class="cls-2" d="m1129.72,127.11c-1.49-2.4-3.43-2.75-5.72-4.35-4.69,1.72-4.46,2.97-5.26,4.58,2.52,0,4-1.83,6.98-2.4.23,3.2-1.49,2.29-2.4,5.61,3.32-.57,4.12-2.29,6.41-3.43Z"/>
      <path class="cls-2" d="m1070.22,305.6c3.32-.23,5.26-.92,6.98-2.63,1.03-1.14,3.2-4.12,3.89-5.38-4.58.69-9.73,4.46-10.87,8.01Z"/>
      <path class="cls-2" d="m1066.56,301.59c2.17,0,4.69.11,6.52-.8,1.14-.57,2.75-2.29,2.75-4.23-4.81-.34-8.47.46-9.27,5.03Z"/>
      <path class="cls-2" d="m1047.34,281.46c3.55,0,13.39-3.43,15.1-5.15-3.2-2.06-5.38-.23-8.12,1.14-2.97,1.49-5.61,1.37-6.98,4Z"/>
      <path class="cls-2" d="m1090.36,289.81c2.17-1.26,1.03-6.52.34-9.04-1.03-3.78-1.83-6.18-4.35-6.86.57,3.32,1.95,4.81,2.52,7.67.46,2.63-.23,6.18,1.49,8.24Z"/>
      <path class="cls-2" d="m37.76,129.97c-.8-4.12-1.83-3.78-3.89-5.95-2.75-2.97-.34-3.66-5.84-4.81.8,5.15,1.72,3.43,4.23,6.06,2.29,2.52,1.72,3.66,5.49,4.69Z"/>
      <path class="cls-2" d="m40.16,149.19c.8,1.26,1.72,1.72,2.86,2.75s2.17,1.95,3.55,2.4l3.32.57c-.57-2.29-1.72-2.29-3.55-3.2-1.6-.92-2.52-1.95-3.89-2.97-2.4-1.95-4.81-4.58-7.67-6.06.69,1.37,4.58,5.03,5.38,6.52Z"/>
      <path class="cls-2" d="m15.1,113.84c-1.49-3.89-3.89-9.5-7.78-10.07.92,4.81,1.49,6.18,4.35,8.58.92.69,1.95,1.14,3.43,1.49Z"/>
      <path class="cls-2" d="m1025.26,229.97c4.35.8,4-.92,6.98-2.06,3.78-1.49,4,.46,4.81-4.35-2.86.23-4.35,1.49-6.64,2.63-3.2,1.49-3.89.46-5.15,3.78Z"/>
      <path class="cls-2" d="m1066.9,272.65c4.46.8,8.01-2.97,8.92-6.18-4.58.57-8.35,1.95-8.92,6.18Z"/>
      <path class="cls-2" d="m188.1,342.55c.34,1.03,0,.69,1.49,1.14.57.23,1.49.34,2.17.46,5.15,1.37,8.58,4.58,11.78,2.52-1.95-2.29-.34-.57-7.44-2.75-2.06-.57-6.18-2.52-8.01-1.37Z"/>
      <path class="cls-2" d="m21.05,110.29c-.46-2.86-1.83-3.66-3.2-5.26-.69-.8-1.26-1.49-1.95-2.17-.8-.8-1.37-1.14-1.95-1.95,0,1.95,1.37,4.69,2.17,6.18,1.95,3.66,2.75,3.55,4.92,3.2Z"/>
      <path class="cls-2" d="m741.4,397.47c.57,1.03,1.03.8,2.75.8,1.26,0,2.06-.23,3.09-.34,2.17-.34,4.35-.57,5.15-2.06l-.11-1.03-8.92,1.14c-.23.11-.69.23-1.03.46,0,0-.11.11-.23.11,0,.11-.11.23-.11.23l-.57.69Z"/>
      <path class="cls-2" d="m81.58,88.44c-1.14-2.17-2.86-2.52-4.12-4.92-1.37-2.75-1.95-2.63-5.15-3.66.46,3.32,5.61,8.24,9.27,8.58Z"/>
      <path class="cls-2" d="m1038.64,223.11c1.6.8,3.2,1.26,5.03.23,1.14-.69,2.63-2.29,2.97-3.89-4-.57-7.09,1.37-8.01,3.66Z"/>
      <path class="cls-2" d="m18.88,128.71c1.37,1.03,4.23,4.81,7.44,6.06-.69-2.06-6.18-7.67-7.44-8.7-1.03-.8-1.95-1.6-3.32-2.17.57,1.6,2.29,3.89,3.32,4.81Z"/>
      <path class="cls-2" d="m179.63,82.49c1.37-2.52-.92-4.35-2.06-7.09-1.26-3.09-1.37-4.58-4-6.29-1.6-.34-.34-.23-.8.34l6.86,13.04Z"/>
      <path class="cls-2" d="m828.01,384.43c2.52.11,2.17.57,5.03.11,2.06-.34,3.09-.69,4.23-1.95l.11-.92c-4.23,0-7.89-.46-9.38,2.75Z"/>
      <path class="cls-2" d="m1053.06,175.51l9.38-2.4-.46-1.95c-3.78-.92-7.78,2.29-8.92,4.35Z"/>
      <path class="cls-2" d="m1056.49,305.94c1.6-.11,7.09-1.49,8.24-2.52,1.03-.92.34-.92.8-2.06-2.63-.11-3.55,0-5.49,1.26-1.49,1.03-2.75,1.95-3.55,3.32Z"/>
      <path class="cls-2" d="m1072.85,201.71c1.14-.11,2.86-.92,3.89-1.37.92-.34,1.03-.34,1.72-.92.92-.69,1.03-.8,1.26-1.95-2.29.11-3.66.8-5.49,1.49-2.52.92-2.97.69-4,2.86l2.63-.11Z"/>
      <path class="cls-2" d="m730.99,398.62c1.6,2.06,6.06-.34,7.67-.8-.8-3.2-5.26-1.6-7.55-.34l-.11,1.14Z"/>
      <path class="cls-2" d="m8.58,117.16c.11.92,0,.34.34,1.03,0,0,.69.92.8,1.03.69.92.92,1.14,1.72,1.72l2.63.69c-.46-3.66-1.83-4.92-5.26-5.72,0,0-.11,0-.11.23l-.11,1.03Z"/>
      <path class="cls-2" d="m1025.72,236.61c4.92.11,7.21-.8,9.04-3.89-3.2.23-7.67,1.49-9.04,3.89Z"/>
      <path class="cls-2" d="m1059.24,310.17c1.6.11,3.43,0,4.81-.57,2.52-1.03,3.78-3.32-.34-2.86-.69.11-1.49.23-2.06.57-1.49.57-1.83,1.49-2.4,2.86Z"/>
      <path class="cls-2" d="m130.89,202.17c-.8-2.4-.92-2.29-3.32-3.2-1.83-.69-2.86-1.26-5.15-1.49,1.03,2.29,4.69,4.35,8.47,4.69Z"/>
      <path class="cls-2" d="m1076.51,295.07c3.78-.23,4.58-.8,5.84-3.66-3.78-1.26-5.15.11-5.84,3.66Z"/>
      <path class="cls-2" d="m42.56,111.55c0-.11-1.26-2.17-1.6-2.86-.92-1.26-2.17-1.26-3.78-1.26.23,3.78,1.37,4.69,5.38,4.12Z"/>
      <path class="cls-2" d="m1120.11,139.13c1.37.11,2.75.34,3.78-.34.8-.57,1.6-1.72,1.49-2.86-2.52-1.26-5.26.23-5.26,3.2Z"/>
      <path class="cls-2" d="m237.52,358.57c.11,0,.23,0,.34.11,0,.11.11.11.23.11.69.11.34.11,1.03,0h2.86c-.57-1.37-6.29-3.89-8.24-2.97,1.14,1.72,2.4,1.6,3.78,2.75Z"/>
      <path class="cls-2" d="m25.74,116.59c.34-3.32-.69-4.58-4.23-4.35.8,2.86,1.03,3.78,4.23,4.35Z"/>
      <path class="cls-2" d="m1016.56,140.27l2.86.11c1.03-.92,2.17-1.49,1.83-3.43-1.14-.46-2.17,0-3.2.57-1.37.69-1.37,1.03-1.49,2.75Z"/>
      <path class="cls-2" d="m1129.72,139.13c2.97-.34,5.03-1.95,5.84-4.46-2.06-.46-1.49.23-3.32,1.49-1.6,1.03-2.06.92-2.52,2.97Z"/>
      <path class="cls-2" d="m1010.84,214.41c1.14.34,1.83.23,3.09-.23,1.49-.57,1.72-.8,2.29-2.29l-5.15.23-.23,2.29Z"/>
      <path class="cls-2" d="m523.33,403.08c-1.37-.34-3.2-.34-4.92-.11.34,2.4,1.14,2.29,5.38,2.17l-.46-2.06Z"/>
      <path class="cls-2" d="m1086.93,55.38c0-1.03-.11-1.95-.92-2.52-.23-.23-2.4-.8-2.86-.92v1.14c.69,2.75,1.72,2.63,3.43,3.2.34-.34.23-.11.34-.92Z"/>
      <path class="cls-2" d="m114.07,193.02c.11-2.63-1.95-3.43-4.35-3.89.57,2.4,1.6,4.12,4.35,3.89Z"/>
      <path class="cls-2" d="m1081.09,67.96c2.63-.23,4.58-1.03,4.69-3.43-2.75-.46-4,1.49-4.69,3.43Z"/>
      <path class="cls-2" d="m1046.2,169.56c3.66-.23,3.78-.23,5.15-2.86-2.86-.34-4.58.8-5.15,2.86Z"/>
      <path class="cls-2" d="m38.56,136.61l2.86.57c0-2.63-.23-3.09-2.63-3.43l-.23,2.86Z"/>
      <path class="cls-2" d="m101.26,282.26l2.52.23c.46-.69.8-1.72.34-2.86l-1.72-.34c-.46.92-.8,1.95-1.14,2.97Z"/>
      <path class="cls-2" d="m1087.27,92.45c2.06-.23,2.29-.11,3.32-1.6-.69-.8-1.03-1.03-2.29-1.03l-1.03,2.63Z"/>
      <path class="cls-2" d="m70.59,77.11l-1.49-.92c-.69-.34-.69-.46-1.49-.69.46,3.2,2.52,3.89,2.97,1.6Z"/>
      <path class="cls-1" d="m518.41,402.96c1.72-.23,3.55-.23,4.92.11l.46,2.06c-4.23.11-5.03.23-5.38-2.17Zm-328.82-59.27c-1.49-.46-1.14-.11-1.49-1.14,1.83-1.14,5.95.8,8.01,1.37,7.09,2.17,5.49.46,7.44,2.75-3.2,2.06-6.64-1.14-11.78-2.52-.69-.11-1.6-.23-2.17-.46Zm-15.56-6.18c-3.09,1.49-10.07-2.17-12.93-3.2-4.12-1.49-9.38-1.83-11.33-5.26,4.81.69,13.96,3.89,18.88,5.84,1.37.46,4.46,1.6,5.38,2.63Zm885.22-27.34c.57-1.37.92-2.29,2.4-2.86.57-.34,1.37-.46,2.06-.57,4.12-.46,2.86,1.83.34,2.86-1.37.57-3.2.69-4.81.57Zm-2.75-4.23c.8-1.37,2.06-2.29,3.55-3.32,1.95-1.26,2.86-1.37,5.49-1.26-.46,1.14.23,1.14-.8,2.06-1.14,1.03-6.64,2.4-8.24,2.52Zm13.73-.34c1.14-3.55,6.29-7.32,10.87-8.01-.69,1.26-2.86,4.23-3.89,5.38-1.72,1.72-3.66,2.4-6.98,2.63Zm-3.66-4c.8-4.58,4.46-5.38,9.27-5.03,0,1.95-1.6,3.66-2.75,4.23-1.83.92-4.35.8-6.52.8Zm9.95-6.52c.69-3.55,2.06-4.92,5.84-3.66-1.26,2.86-2.06,3.43-5.84,3.66Zm-22.65,5.49c.57-1.95.69-1.83,2.52-2.75,5.38-2.4,5.61-2.86,10.41-5.61,3.43-1.83,10.98-6.98,14.42-6.86.11,2.75-2.97,4.35-4.81,5.72-4.69,3.55-16.82,9.38-22.54,9.5Zm-964.28-3.78c-7.32-.46-18.76-6.18-20.14-11.33,4.12.69,7.09,3.43,10.87,5.03,3.2,1.37,8.01,4.12,9.27,6.29Zm11.67-14.53c.34-1.03.69-2.06,1.14-2.97l1.72.34c.46,1.14.11,2.17-.34,2.86l-2.52-.23Zm-9.27,9.73c-4.23-.11-9.5-3.55-12.7-5.03-4.46-2.29-8.12-3.2-9.38-8.12,3.89.34,8.58,4.12,11.67,5.84,1.03.46,2.06.92,3.09,1.49,1.72.92,3.43,3.32,4.69,4,1.14.8,1.72.8,2.63,1.83Zm960.96,1.83c.57-.92,0-.23.8-.92,1.95-1.72,17.73-9.38,19.56-10.98,2.06-1.72,2.29-4.12,7.09-3.43-1.6,4.92-21.28,16.36-27.46,15.33Zm-5.61-12.36c1.37-2.63,4-2.52,6.98-4,2.75-1.37,4.92-3.2,8.12-1.14-1.72,1.72-11.56,5.15-15.1,5.15Zm43.36-.69c.69,2.52,1.83,7.78-.34,9.04-1.72-2.06-1.03-5.61-1.49-8.24-.57-2.86-1.95-4.35-2.52-7.67,2.52.69,3.32,3.09,4.35,6.86Zm-1003.86,1.72c-1.37,1.37-2.4.8-4.46-.11-3.78-1.72-9.73-4.35-10.98-8.35,2.63.57,14.87,6.98,15.45,8.47Zm962.33,5.84c2.29-3.55,10.3-5.95,14.42-8.47,2.52-1.49,4.46-2.75,7.09-4.35,1.26-.8,5.84-4.58,7.09-3.09,1.26,1.26-3.78,5.15-4.81,5.84-4.69,3.43-18.42,9.73-23.8,10.07Zm-966.68-13.39c-1.37-1.03-3.43-2.63-2.97-4.35,3.78-.46,7.67,2.97,10.3,4.69,7.44,4.81,9.95,2.63,9.15,5.49-2.75,1.26-13.62-3.55-16.48-5.84Zm984.41-2.29c.57-4.23,4.35-5.61,8.92-6.18-.92,3.2-4.46,6.98-8.92,6.18Zm-962.56,2.97c-4.81,1.37-9.95-2.29-13.73-3.78-2.17-.92-4.58-1.6-6.64-2.52-2.4-1.03-3.2-2.4-4-4.81,4.69-.11,13.27,7.09,24.03,9.15l.34,1.95Zm941.28-1.03c.8-4.46,2.4-3.09,6.29-4.12,6.41-1.6,15.45-9.95,20.94-8.81-1.72,3.78-6.06,4-12.01,8.12-4,2.75-8.92,4.69-15.22,4.81Zm-960.73-14.99c11.56.57,12.7,9.27,24.48,7.32.69,7.89-3.66,3.78-12.59.92-5.03-1.49-10.64-3.32-11.9-8.24Zm960.61,7.44c1.49-3.89,5.95-4.46,10.07-6.18,3.66-1.6,7.67-5.15,12.01-4.46-.8,5.03-5.38,4.81-9.84,6.64-4,1.6-6.75,4.46-12.24,4Zm-948.83-9.27c3.43,2.29,4.81,3.55,9.61,4.81l-1.03,2.06c-2.29-.46-7.78-3.43-10.53-4.58-3.89-1.72-7.67-2.52-8.35-6.75,4.12.23,7.44,2.52,10.3,4.46Zm4.35-4.35c3.32,1.6,5.84,1.83,7.21,4.81-5.84,0-14.42-2.86-15.9-7.21,1.95-2.4,6.86,1.49,8.7,2.4Zm935.33,9.61c.69-1.14-.11-.11.92-1.03.34-.23.46-.23.8-.46,3.09-1.95,8.7-4.23,12.01-5.84,2.4-1.26,4.46-2.17,6.86-3.43,4.46-2.52,3.43-3.55,6.64-1.95-.57,2.17-.34,1.72-2.06,2.75-6.98,4.12-16.93,9.27-25.17,9.95Zm-1.26-7.32c.69-1.95,2.97-2.75,5.49-3.78,2.29-1.03,4.12-1.6,6.41-2.75,2.17-1.14,4.23-1.83,6.41-2.86,1.26-.57,4.81-3.32,6.52-1.72,1.14,1.14-2.86,3.2-4.35,4-6.75,3.55-12.36,6.29-20.48,7.09Zm-2.97-5.61c.92-2.52,2.63-3.09,5.38-3.89,9.73-3.2,11.1-6.52,18.53-7.67-.23,5.03-5.95,5.15-9.95,7.44-4.69,2.75-7.44,3.78-13.96,4.12Zm-3.66-5.49c4.46-3.09,18.76-10.75,24.14-10.98-1.72,7.67-20.37,11.67-24.14,10.98Zm-2.75-8.01c1.37-2.4,5.84-3.66,9.04-3.89-1.83,3.09-4.12,4-9.04,3.89Zm13.62-7.09c1.6-.92,3.89-1.6,5.61-2.63,1.72-.92,3.43-2.52,5.61-2.4.46,5.38-6.06,7.44-11.44,7.67l.23-2.63Zm-14.07.46c1.26-3.32,1.95-2.29,5.15-3.78,2.29-1.14,3.78-2.4,6.64-2.63-.8,4.81-1.03,2.86-4.81,4.35-2.97,1.14-2.63,2.86-6.98,2.06Zm13.39-6.86c.92-2.29,4-4.23,8.01-3.66-.34,1.6-1.83,3.2-2.97,3.89-1.83,1.03-3.43.57-5.03-.23Zm-27.57-10.98l5.15-.23c-.57,1.49-.8,1.72-2.29,2.29-1.26.46-1.95.57-3.09.23l.23-2.29Zm1.72,8.58c1.6-2.4.69-1.03,4.12-2.06,4.23-1.26,4.46-2.63,8.01-4.46,7.67-3.89,13.16-8.81,21.62-9.27-.11,3.09-2.06,3.66-2.06,3.66,0-.11-.11.11-.23.11,1.26,1.14,2.4,1.49,3.78,2.17-1.95,6.18-21.85,13.5-31.12,14.42.46-2.4,7.78-4.12,12.36-6.06,2.29-1.03,4.35-1.95,6.29-3.2,1.95-1.37,3.2-2.75,4.69-4.12-2.52.23-9.84,4.35-12.7,5.61-3.55,1.49-10.18,3.89-14.76,3.2Zm4.12-8.35c.46-2.97,1.95-2.63,6.06-4.81,1.49-.69,2.06-.92,3.43-1.83,7.44-5.03,4.58-2.17,11.1-4.92,5.72-2.29,3.78-2.63,7.21-1.49-1.14,3.55-2.63,3.2-5.72,4.92-2.63,1.37-3.66,2.52-6.64,3.55-8.47,3.09-8.92,4.92-15.45,4.58Zm-894.71-7.55c-3.55-2.06-9.61-2.52-10.53-6.75.92-1.03,4.12-.34,6.64,1.49,1.14.8,1.37.92,2.52,2.06,4.69,4.69,2.17.92,8.58,4.35,3.43,1.72,3.32,1.14,4.23,2.63.23.46.23.69.46,1.14-4.58.46-9.04-3.2-11.9-4.92Zm8.7-2.63c-3.78-.34-7.44-2.4-8.47-4.69,2.29.23,3.32.8,5.15,1.49,2.4.92,2.52.8,3.32,3.2Zm-21.17-13.04c2.4.46,4.46,1.26,4.35,3.89-2.75.23-3.78-1.49-4.35-3.89Zm896.43,14.64c.69-2.75.8-3.2,3.55-3.66,5.38-1.03,10.64-2.97,15.45-5.26,3.32-1.49,6.06-3.2,9.15-4.92,2.4-1.26,6.64-4.58,9.38-2.52-2.17,2.75-10.87,6.86-12.81,9.04,4.69-.57,9.04-5.72,12.7-3.09,1.14,1.49-1.95,2.86-2.97,3.32-4.92,1.95-6.98,4.46-13.39,6.75-5.84,2.06-14.64,5.38-21.28,5.84,1.6-4.58,7.32-2.29,13.96-7.78-3.43.69-5.38,2.97-13.73,2.29Zm-869.88-5.84c-5.03-1.26-14.42-5.72-18.88-8.58-2.63-1.72-2.97-2.06-4.69-4.12,6.41-.69,13.5,7.21,17.73,9.38,3.32,1.72,3.55-.23,5.84,3.32Zm870.57-.23c-.23-2.63.23-2.4,2.29-3.2,5.03-1.83,24.83-10.53,27-10.18-.23,1.83-1.26,1.83-2.86,2.63-6.18,3.2-20.82,11.9-26.43,10.75Zm-883.39-14.07c3.2,1.95,8.01,5.72,10.64,6.18l.46,1.95c-3.09,0-4.23-1.6-6.41-2.52s-4.69-1.26-6.64-2.52c-2.06-1.37-2.06-2.52-4.92-4.23-2.52-1.49-3.55-1.72-4-5.15,2.63.57,8.24,4.58,10.87,6.29Zm929.61-8.12c1.14-2.06,5.15-5.26,8.92-4.35l.46,1.95-9.38,2.4Zm-913.36,9.73c-5.15,2.97-6.29-.11-13.04-4-3.66-2.06-9.73-5.15-11.33-8.24,6.98.46,13.62,6.06,18.31,8.81,2.17,1.26,5.26,2.4,6.06,3.43Zm912.56-9.27c.69,1.14.69.46-.92,1.26-2.75,1.26-3.66,1.6-6.52,1.49-3.55-5.38-.11-5.15-8.24-8.01.69-1.83.8-2.4,3.09-2.29,1.49,0,2.97.23,4.46.34-.23,6.29-1.03,1.03,1.14,6.52l5.84-.11c1.37.23.8-.34,1.14.8Zm-6.06-6.41c.57-2.06,2.29-3.2,5.15-2.86-1.37,2.63-1.49,2.63-5.15,2.86Zm-909.81,7.32c-4.69,0-18.31-8.01-19.68-10.64,6.64,1.37,13.62,6.98,20.25,8.81l-.57,1.83Zm-52.97-22.65c3.2,1.6,4,2.4,4.12,6.52-4.69-.8-10.41-5.49-11.44-9.61,2.29.46,5.38,2.06,7.32,3.09Zm933.16-13.96c.11-1.72.11-2.06,1.49-2.75,1.03-.57,2.06-1.03,3.2-.57.34,1.95-.8,2.52-1.83,3.43l-2.86-.11Zm103.54-1.14c0-2.97,2.75-4.46,5.26-3.2.11,1.14-.69,2.29-1.49,2.86-1.03.69-2.4.46-3.78.34Zm-1081.32-5.38c2.4.34,2.63.8,2.63,3.43l-2.86-.57.23-2.86Zm1090.93,5.38c.46-2.06.92-1.95,2.52-2.97,1.83-1.26,1.26-1.95,3.32-1.49-.8,2.52-2.86,4.12-5.84,4.46ZM18.88,128.71c-1.03-.92-2.75-3.2-3.32-4.81,1.37.57,2.29,1.37,3.32,2.17,1.26,1.03,6.75,6.64,7.44,8.7-3.2-1.26-6.06-5.03-7.44-6.06Zm9.15-9.5c5.49,1.14,3.09,1.83,5.84,4.81,2.06,2.17,3.09,1.83,3.89,5.95-3.78-1.03-3.2-2.17-5.49-4.69-2.52-2.63-3.43-.92-4.23-6.06Zm2.17,11.67c-3.32-1.49-10.98-7.32-12.24-12.59,4,.57,6.06,2.29,7.78,4.81,1.14,1.83,3.66,5.72,4.46,7.78Zm874.46,25.97c.11-1.6,1.49-5.84,2.06-7.44.92-2.52,2.29-3.32,4.92-4.35,4.46-1.83,8.7-3.43,12.93-5.38,4.46-1.95,10.75-1.83,14.64-4,3.32-1.95,1.95-1.72,6.75-2.52,3.09-.46,3.78-1.6,6.86-2.17,10.3-1.95,18.53-5.95,28.26-8.81,2.75-.8,4.35-1.49,6.75-2.75,10.07-5.03,8.35-1.83,13.62-4.69,3.09-1.6,2.63-1.95,6.86-2.17-.23,3.78-1.95,3.32-8.58,6.18-3.43,1.6-6.64,3.2-10.18,4.69-7.09,3.09-13.96,5.61-21.97,7.78-11.33,3.09-6.98,4.69-17.16,5.49-2.75.11-2.97.92-5.26,1.83-5.03,1.83-19.22,4.81-22.43,7.32l-.11,2.63c3.78-.8,7.55-3.09,11.56-4.12,4-1.14,8.01-2.06,12.01-3.32,4.12-1.26,7.44-2.97,11.67-3.89s8.35-1.6,12.36-2.97c1.83-.57,4-1.83,5.61-2.29,2.06-.57,4.23-.34,6.64-1.03,8.12-2.52,29.98-13.5,31.92-13.62-1.49,5.26-3.43,5.26-8.35,7.44-3.55,1.6-6.98,3.2-10.75,4.92-7.78,3.66-12.13,3.78-16.25,7.67-1.49,1.49-2.4.57-6.29,1.37-4.35.8-8.24,2.52-12.01,4.12-3.89,1.6-7.21,2.75-11.56,3.89-4.23,1.14-8.01,2.29-12.24,3.55-1.6.46-10.41,2.63-11.21,4.23,2.29,1.6,9.73-1.6,12.36-2.4,12.81-3.78,48.97-13.84,57.78-18.42,3.55-1.83,6.86-3.43,10.3-5.03,2.4-1.26,8.35-5.03,10.64-2.29-2.06,4.12-14.07,6.52-19.34,9.27-3.32,1.72-5.84,3.32-9.61,4.81-10.41,4-20.25,8.35-30.89,11.9-6.98,2.29-15.22,3.66-21.05,7.09,3.55,2.63,17.62-3.66,21.62-5.03,6.75-2.4,13.96-4.81,20.71-7.55,3.32-1.37,6.29-2.86,9.95-4.12,5.84-2.06,15.45-5.03,20.37-7.89,2.75-1.6,6.06-4,10.07-2.75-1.72,3.43-26.09,14.3-32.49,15.45l-.11,2.75c2.97.8,11.78-3.55,14.53-4.69,7.89-3.43,9.04-5.38,13.62-4-2.17,4.12-18.88,9.84-24.71,12.36-4.58,1.83-9.04,3.32-13.84,4.81-2.06.69-11.78,3.43-13.5,5.03,10.75-.11,26.32-6.64,35.47-10.07,4.58-1.72,21.85-7.55,24.71-9.27,2.75-1.6,3.89-3.2,7.89-3.32-2.63,5.15-16.93,10.75-23.8,13.73-3.66,1.6-6.64,2.17-7.78,4.23,5.38-.69,14.99-4.58,20.71-6.18,6.29-1.95,12.7-7.55,19.11-7.78-1.6,4.12-9.84,6.98-14.3,9.04-2.52,1.14-5.61,2.75-8.24,3.66-3.43,1.37-7.32-.23-8.24,3.09,21.62.46,24.26-8.24,34.55-8.12-.92,2.06-1.95,2.29-3.89,3.43-7.21,4.12-11.33,3.43-14.53,6.06l-.69.69c4.46.23,3.55.8,6.29-1.49,2.63,6.64,4.92.8,13.16.23-.92,4.81-2.06,3.32-5.38,5.15l-1.72,1.6c-6.06-.8-9.04-3.89-15.22-4.23-3.09-.11-6.06.23-9.15.23-3.09-.11-6.06-.46-9.15-.34-11.9.23-22.77,2.86-35.12,3.2-18.65.57-32.04,5.03-50.34-3.2-6.86-2.97-6.64-3.43-11.78-7.21ZM25.74,116.59c-3.2-.57-3.43-1.49-4.23-4.35,3.55-.23,4.58,1.03,4.23,4.35Zm142.79,1.6c-2.52.92-2.97,0-5.15-.8-3.89-1.37-11.1-3.32-12.24-7.78,4.35.8,16.13,5.84,17.39,8.58Zm-127.57-9.5c.34.69,1.6,2.75,1.6,2.86-4,.57-5.15-.34-5.38-4.12,1.6,0,2.86,0,3.78,1.26Zm-33.64-4.92c3.89.57,6.29,6.18,7.78,10.07-1.49-.34-2.52-.8-3.43-1.49-2.86-2.4-3.43-3.78-4.35-8.58Zm10.53,1.26c1.37,1.6,2.75,2.4,3.2,5.26-2.17.34-2.97.46-4.92-3.2-.8-1.49-2.17-4.23-2.17-6.18.57.8,1.14,1.14,1.95,1.95.69.69,1.26,1.37,1.95,2.17Zm22.65,13.96c1.14,1.14,2.17,2.29,1.37,4.46-2.06-1.03-2.29-1.49-3.78-3.09-2.97-3.2-7.89-6.98-10.75-9.95-3.09-2.97-10.18-13.04-11.44-16.48,3.32.8,6.41,4.12,8.12,6.06,9.38,9.95,6.75,8.7,9.5,11.9,2.52,3.09,4.81,4.81,6.98,7.09Zm-6.41-16.82c1.95,1.72,1.72,1.14,2.06,4.58-4.46-.92-12.36-9.04-13.39-15.33,3.55.8,6.18,4.46,8.01,6.75,1.14,1.37,2.17,2.86,3.32,4Zm1054.2-12.36c1.26,0,1.6.23,2.29,1.03-1.03,1.49-1.26,1.37-3.32,1.6l1.03-2.63ZM42.1,99.77c2.06,1.83,14.42,9.95,8.24,13.84-2.63-2.75,1.6-3.89-4.58-7.21-3.66-1.95-10.07-7.55-13.16-10.41-1.95-1.83-4-3.66-4.58-7.67,6.18,1.37,10.53,8.47,14.07,11.44Zm940.82-6.64c-.11-4.92.69-12.47,2.06-16.48,2.97,2.97,3.43,17.39-1.95,19.22l-.11-2.75Zm-4.23,6.75c-2.4-1.03-1.95-2.63-1.83-5.61.11-4.35,1.14-15.1,3.09-18.19,1.6,3.2.8,21.05-1.26,23.8Zm-5.95-1.26c-1.95-3.09-1.26-5.61-.34-9.5.57-2.29,1.26-8.24,2.29-9.61,1.72,2.63-.69,17.39-1.95,19.11Zm-891.17-10.18c-3.66-.34-8.81-5.26-9.27-8.58,3.2,1.03,3.78.92,5.15,3.66,1.26,2.4,2.97,2.75,4.12,4.92Zm-14.76,9.04c-.23,2.06-.34,2.4-1.26,3.55-2.06,0-3.09-1.03-4.35-2.06-1.14-.92-2.4-1.83-3.66-2.75l-10.64-8.47c-1.14-1.03-1.83-1.95-2.97-3.09-1.6-1.37-4.12-4.92-4.69-7.89,2.17.46,2.97,1.26,4.12,2.4,2.52,2.52,1.95,1.49,3.43,2.63,0,.11,3.2,4.12,5.72,6.52,5.72,5.49,8.12,10.53,14.3,9.15Zm.8-21.97c.8.23.8.34,1.49.69l1.49.92c-.46,2.29-2.52,1.6-2.97-1.6Zm2.06,20.59c-5.15-.11-2.86-1.95-6.75-4.81-3.43-2.52-1.26.8-6.98-4.81-3.89-3.89-8.81-6.41-10.41-13.04,4.12.57,10.75,7.89,12.93,10.41,6.86,7.89,10.75,8.01,11.21,12.24Zm1.72-9.95c1.95,1.95,3.78,4.12,5.84,6.18l-1.26,3.66c-1.49-2.29-.11-3.55-1.49-4.81-.46-.46-3.66-1.6-7.67-5.38l-10.18-8.58c-2.63-2.17-4.46-4.12-4.81-7.67,5.15,1.26,14.64,11.9,19.56,16.59Zm-4.81-11.33c-4.69-.69-8.7-4.81-9.15-10.07,4.46,1.03,8.01,5.49,9.15,10.07Zm1014.5-6.86c.69-1.95,1.95-3.89,4.69-3.43-.11,2.4-2.06,3.2-4.69,3.43Zm-1009.58.57c2.97,3.66,4.69,2.63,8.47,9.73-3.89-.46-9.04-5.03-11.56-6.98-2.29-1.95-8.7-5.95-6.98-10.64,2.97-1.26,8.7,6.29,10.07,7.89Zm9.5-.34c4.35,2.86,4.12,4.69,6.18,5.95,1.83,1.14,3.43.46,2.75,3.2-3.32-.46-10.75-7.67-13.96-10.18-2.29-1.95-4.35-3.66-6.52-5.72-2.4-2.29-4.12-2.75-4.69-7.67,5.15,1.03,10.64,8.24,13.27,11.33,1.14,1.37,1.49,2.17,2.97,3.09Zm14.76,5.26c-5.61-1.37-12.47-9.27-15.67-12.36-3.78-3.78-11.44-8.7-13.16-14.42,4.46,1.37,16.25,12.13,18.99,15.79,4,5.49,8.35,6.06,9.84,10.98ZM4.23,112.13c.8,1.37,3.09,4.35,4.35,5.03l.11-1.03c0-.23.11-.23.11-.23,3.43.8,4.81,2.06,5.26,5.72l-2.63-.69c.57.92.92,1.37,1.6,2.17.92.92,1.14,1.14,1.83,2.06l2.75,2.97c1.03.69.23.34,1.26.57.11,1.49-.8.23,2.06,2.97.92,1.03,1.72,1.72,2.63,2.75,1.83,1.72,3.32,3.32,5.15,5.15l8.24,7.32c.69.57.8.57,1.49,1.26,1.03.8.34.69,1.72,1.03-.8-1.49-4.69-5.15-5.38-6.52,2.86,1.49,5.26,4.12,7.67,6.06,1.37,1.03,2.29,2.06,3.89,2.97,1.83.92,2.97.92,3.55,3.2l-3.32-.57c.69,1.14,2.06,1.83,3.2,2.75,1.26.92,2.06,1.95,3.78,2.4-.69-1.26-1.6-1.6-2.29-2.97,4.69,1.83,9.15,5.38,13.16,8.35,2.52,1.72,3.55,1.6,4.35,2.63l-1.6.92c.92,1.6,4.92,3.43,6.52,4.35s5.72,3.55,7.32,3.89c.57-.34,8.12,2.4,9.38,3.09,2.06,1.14,6.52,4.92,9.5,2.86-.46-2.52-5.15-3.09-7.55-4.46-2.4-1.26-5.15-3.32-7.44-4.81-5.49-3.55-10.18-5.49-12.36-12.13,2.75.69,1.26,1.37,4.35,1.37l-2.06-4.35c5.15.57,5.61,2.97,9.27,4.92,1.72.8,3.66,1.26,5.03,2.17,1.26.8.92,1.03,1.83,1.6.46.34.8.46,1.37.46,2.29,0-1.26.23.69-.11,0,0,.23,0,.23-.11.11-.11.23,0,.34-.11-1.49-2.52-6.98-3.32-4.69-6.75,5.38,0,6.06,1.83,9.38,3.66-1.49-4.35-8.24-5.26-15.45-12.13-1.72-1.72-3.89-2.17-4.58-4.69,8.7,2.06,16.25,9.95,22.88,9.27-.69-2.4-5.38-4-8.92-7.09-3.78-3.09-5.49-3.2-7.67-8.01,4.23-.11,14.42,9.84,21.17,9.84-1.49-3.32-6.06-3.66-9.15-5.84-2.06-1.49-6.29-5.03-7.21-7.21,6.64.69,14.42,9.38,21.74,8.92-.69-1.26,0-.46-1.14-1.37-2.97-2.06-4.58-1.03-8.81-4.92-2.86-2.75-6.64-3.43-7.55-7.89,11.1,1.49,17.51,13.27,29.18,12.59-1.26-3.43-2.63-3.09-5.95-4.35-2.52-.92-4.46-2.29-6.29-3.66-3.78-2.63-9.5-4.92-10.64-9.38,6.41,2.4,13.5,6.52,19.79,9.5,6.29,2.86,13.16,9.04,20.14,8.24l-1.72-1.6c-.69-.46-1.03-.8-1.49-1.14-9.5-7.67-20.25-8.24-22.54-16.25,6.98.34,12.81,6.86,18.19,9.5,1.49.8,3.2,1.26,4.92,2.06,3.2,1.6,10.18,6.18,11.78,8.7l4.35-.23c-.92-3.09-13.04-9.04-16.59-11.44l-12.36-8.7c-1.49-1.03-2.29-1.49-2.86-3.66,6.29.8,34.21,21.74,44.74,23.23-.11-3.09-.46-1.26-3.89-3.43-7.78-4.58-25.17-13.04-28.49-20.02,2.97.34,5.15,1.72,6.98,3.09,2.17,1.6,3.09,2.4,5.84,3.66,4.58,2.06,8.24,4.58,12.24,6.86,4.12,2.4,8.58,3.89,13.16,5.84,4,1.72,9.27,4.58,13.73,5.38-1.83-3.55-20.37-11.33-25.51-14.99-1.14-.8-1.6-1.49-3.09-2.17-1.26-.57-2.17-.57-3.43-1.49l-11.9-8.35c-2.86-1.95-4.12-1.95-4.81-5.38,7.67,1.26,22.54,13.62,31.35,17.39,8.92,3.78,16.13,7.89,24.94,11.67,2.75,1.26,5.38,3.32,8.7,2.97,0-2.52-1.83-3.32-3.2-4.58-1.26-1.14.34-.57-2.06-.8-3.78-.57-5.15-.69-8.35-2.17-4.46-2.17-9.27-5.03-13.5-7.44-5.61-3.2-23.57-11.67-25.86-16.59,5.72.57,11.33,5.72,15.9,8.12,4.69,2.52,11.67,4.92,17.16,6.86,3.89,1.37,5.03,2.86,7.89,4.35,3.09,1.6,23.34,8.7,26.32,9.61-1.72-3.32-7.67-3.78-11.33-5.61l-22.54-10.3c-4-1.95-8.12-3.09-9.15-7.55,10.98.46,27.34,12.7,31.46,10.41-2.75-1.83-8.24-3.78-11.67-5.72-3.78-2.17-7.32-4-10.98-6.18-4.69-2.75-12.01-7.21-17.05-9.38-2.86-1.26-3.43-.92-4.58-3.89,4.23.11,6.06,1.26,9.15,2.75,2.63,1.26,5.61,2.29,8.24,3.66,2.75,1.37,4.92,2.75,7.78,4,2.86,1.14,5.61,2.29,8.35,3.43,11.33,4.81,15.45,5.84,26.09,9.38,2.86,1.03,5.49,2.29,8.47,3.09,5.03,1.37,14.3,3.2,17.73,5.84,6.64,4.92-4.35,9.73-8.47,11.21-8.35,2.97-31.46,6.18-40.62,6.29-15.56.11-29.98-.34-44.96-2.29-15.22-2.06-52.74-8.12-47.25,17.85,1.26,6.41,2.4,13.04,3.55,19.68,2.06,11.33-2.75,6.86,8.7,14.87,2.4,1.6,4.81,3.2,7.44,4.46,3.55,1.83,5.95.57,6.86,4.58-4.12,1.37-2.75.46-5.95-1.26-2.06-1.14-3.78-1.6-5.95-2.52-5.26-2.06-7.21-5.49-10.75-6.29.8,9.15,10.3,4.58,11.33,11.78-4.46-.23-5.95-2.29-9.5-2.75,3.66,6.41,9.84,6.52,11.67,8.24,2.63,2.17,1.03,1.03,4.12,2.29l-.69,1.6c-1.49-.57-2.52-1.37-4.12-2.06-1.49-.57-2.97-1.03-4.58-1.6-2.97-1.14-5.61-2.4-9.15-2.63.8,2.52,1.83,2.06,3.43,3.55-.46.69-.69,1.14-1.14,1.72-3.55-.23-3.43-1.72-6.18-.46-1.37,3.78,4.69,5.49,7.67,7.55s8.7,3.32,10.75,4.92c-2.52,2.06-9.38-1.37-12.36-2.63-3.55-1.49-6.98-7.32-10.07-2.63,1.6,3.09,6.75,5.61,10.07,7.21l4,1.83c-1.49,3.2-6.06-.23-8.35-1.72-2.29-1.37-5.61-4-9.15-2.29.23,1.95,1.03,1.95,2.63,2.75,1.6.69,2.4,1.49,3.55,2.17,1.26.8,2.4,1.37,3.78,1.95s2.86.8,3.2,2.06c-2.4,2.06-12.7-4.46-16.02-5.26.34,3.2.46,2.97,3.32,3.89,5.03,1.6,10.3,5.95,15.22,6.64l-.8,1.83c-1.72.11-8.81-2.97-10.53-3.89-2.86-1.6-6.29-4.12-9.04-5.26-3.09,1.83-1.83,3.43-4,5.38-1.72,1.6-3.32,2.75-5.26,4.35-10.18,8.35-8.58,6.52-12.13,16.02-.92,2.4-2.06,4.23-2.86,6.64-1.83,5.26.8,11.21.92,16.59.92.57,1.6,1.37,2.52,2.17,2.63,2.29-1.6-.69,1.14,2.17,2.63,2.75,1.83.23,6.64,3.32,2.86.57,7.89,3.43,10.64,4.69,4.81,2.29,27,10.87,31.92,12.7l-1.03,1.6-2.97-.8c1.6,1.83,25.17,10.18,28.49,11.33,5.03,1.72,9.73,3.55,14.64,5.15,2.52.92,4.81,1.6,7.32,2.52,1.49.57,2.29.8,3.89,1.26,1.49.46,2.52.8,4,1.26l30.43,9.61c4.92,1.49,10.53,2.97,15.45,4.35,1.83.57,14.19,4.23,15.79,4.35-1.37-1.14-2.63-1.03-3.78-2.75,1.95-.92,7.67,1.6,8.24,2.97h-2.86l8.35,2.4c-1.14-.92-2.06-1.03-3.2-2.29l.92-.23c.34,0,1.03.11,1.26.11,4.35.69,11.56,2.52,15.56,3.55,5.95,1.49,11.78,3.2,17.62,4.58,10.18,2.52,5.15,2.29,17.96,4.12,3.09.46,6.41.92,9.27,1.83,1.6.57,6.41,2.86,5.95,3.78.8.92-.34,0,.8.46.11.11,1.14.34,1.14.34l6.64,1.26c-.8-.46-2.06-.69-2.97-1.03-1.37-.69-.57-.57-.92-1.83,3.09.11,4.12,1.14,6.64,1.83l21.74,3.89c9.5,1.72,19.11,3.32,28.83,5.03l.23,1.95h-1.49l17.73,3.2c-1.37-.69-1.26-.46-2.52-.8-1.83-.46-1.49,0-1.37-1.26.69-.92-.46-.8,1.83-.46l6.75.92c3.78.34,4.92,1.14,8.24,1.83,5.95,1.14,12.47.69,18.65,1.6,3.09.34,5.38,1.6,8.24,1.95,8.81,1.03,18.99,1.26,27.57,2.52-.46,2.63-1.83,2.06-4.46,1.83-14.64-1.6-31.12-4.35-45.19-5.61l14.87,2.4c10.07,1.14,39.24,5.38,47.6,5.38l-2.86-.57c-2.17-.23-5.03-1.26-6.75-2.4,3.55,0,31.92,1.37,35.7,2.17,4,.8,3.66-.11,6.52-.23,1.49,0,2.29,1.72,5.95,1.49,2.86-.11,4,.23,6.18.92-1.83,1.95-9.73,1.26-11.9,1.26.69.46,14.76,1.14,15.67,1.14l12.13.34c2.06.11,2.17.34,3.89.46-1.37-.92-2.63-.69-3.43-1.95,3.32-1.72,15.67-1.49,18.19.34-1.26,1.49-1.14.69-2.75,1.6,1.03.57.11.23,1.72.34.46.11,1.37,0,1.83,0h3.89c-.8-.92-1.6-1.14-2.52-2.06,14.53-1.26,6.75-1.03,21.17-.23,7.32.46,15.45.11,22.88.11,15.22,0,30.55,0,45.77-.57,7.09-.11,15.1-.11,22.08-.8,3.43-.34,6.29-1.49,9.61-1.72,3.78-.34,7.67-.23,11.44-.46,7.32-.46,13.62-1.72,20.94-1.95,6.18-.11,19.11-2.4,20.94-1.49-.23,1.49-.11.34-1.83,1.49.92,0,4.58-.34,5.15-.69l.11-1.14c2.29-1.26,6.75-2.86,7.55.34,1.72,0,1.26-.23,2.75-.34l.57-.69s.11-.11.11-.23c.11,0,.23-.11.23-.11.34-.23.8-.34,1.03-.46l8.92-1.14.11,1.03c2.17,0,2.63-.34,4.23-.34,1.03-2.17,5.26-2.52,7.44-2.86,3.2-.57,6.29-.69,9.38-1.03,5.84-.57,11.9-1.6,17.62-2.52,3.09-.46,5.26-1.6,8.35-1.95s6.06-.8,9.15-1.14l17.62-2.75.46,1.14h1.37c1.49-3.2,5.15-2.75,9.38-2.75l-.11.92c1.83,0,1.49-.23,2.86-.46,2.06-3.32,10.98-4.58,15.79-5.61l17.51-3.78c11.67-2.52,23.11-4.92,34.55-7.89,13.73-3.55,18.42-3.66,33.98-8.58,5.72-1.83,11.1-3.09,16.82-4.69,3.89-1.03,13.16-4.35,16.7-4,.57.69.23.11.46,1.03q1.03-.11,2.06-.34c1.14-3.66.92-2.4,5.03-3.32l31.35-10.53c2.17-.8,4.12-1.49,6.06-2.29,1.83-.69,4.46-1.83,6.29-2.17l.34-.34h.8l.34-.46h.8l.34-.34h.8l.34-.34h.34l.8-.46h.34l.8-.34h.34l.8-.34h.34l.8-.46h.34l.8-.34c.46-.46-.69-.46,1.14-.46.46-.34-.69-.34,1.14-.34.46-.34-.69-.34,1.14-.34.46-.46-.69-.46,1.14-.46.46-.34-.69-.34,1.14-.34.46-.34-.69-.34,1.14-.34l.8-.34h.34l.8-.46h.34l.8-.34h.34l.8-.34h.34l.34-.46h.8l.34-.34h.8l.34-.34h.46l.34-.46h.8l.34-.34h.8l.34-.34,6.06-1.95.46-.34h.69l.46-.46h.69l.46-.34h.34l.8-.34h.34l.8-.46c.34-.23,0,0,.69-.34l6.41-2.86c2.63-1.26,4.35-2.06,6.75-3.66-.23-4,4.35-4.23,6.86-7.44,2.86-3.66,1.37-6.98,5.38-9.15v.92c.57-.57.23,0,.69-1.03.11-.46.11-.69.34-1.49.69-3.89.92-6.18.11-10.18-1.37-6.29-3.78-7.21-5.49-9.73-4.92-1.49-5.95-9.95-12.01-14.76-3.2-2.52-8.92-9.95-10.75-15.33,2.29.69,3.2,2.75,4.81,3.89-.57-2.63-6.75-11.9-8.92-15.22-.23-.34-.46-.8-.57-.92s-.11-.23-.23-.23c0-.11-.11-.23-.11-.23-.46-.57-.11-.34-.57-.69.46,2.75,1.14,4.12,2.4,6.06,1.14,1.83,2.86,2.86,1.83,5.61-1.95-.8-3.2-4-4.35-6.06-1.72-2.75-2.86-3.2-3.78-6.75,1.6-.92,1.49-.57,3.2.23-.34-1.26-1.14-1.6-1.49-2.75-4.58-1.26-4.23-6.98-4.23-12.01-.23-.46-.23,0-.34-.8v-1.14l-.34-.69c-.34-3.09-.92-3.66-.69-7.67.57-13.5-2.63-16.59-3.2-21.17l7.32,1.49c-2.86,2.52-2.97,1.26-2.86,4.92,3.55.92,2.75.69,6.41-.34,2.29-.57,4.23-1.6,6.86-1.26-1.49,3.2-2.75,1.6-5.61,3.32-3.2,1.72-1.49,2.17-6.52,2.4l.11,3.2c6.18-.34,9.73-4.35,15.33-4.35q-.69,2.17-2.75,2.97l-12.13,4.12-.34,2.4c5.49-.8,10.98-3.2,15.67-6.06,4.35-2.63,4.12-1.72,4.35-1.72l.57.11c-4.12,4-16.7,7.55-19.11,11.9,3.2,1.49,4.81-.46,8.81.11l-.11.57c2.75,0,5.38-.69,7.78-1.72.46-.23.69-.34,1.03-.46l1.14-.92-2.63.11c1.03-2.17,1.49-1.95,4-2.86,1.83-.69,3.2-1.37,5.49-1.49,1.49-.46,2.06-1.14,3.55-1.83,1.83-2.97,6.18-5.03,9.38-6.86l10.75-5.61c.23-.34,0-.11.57-.57q.46-.34.92-.57c.69-.46,1.26-.8,1.95-1.26,1.14-2.97,1.83-2.52,4.58-4.12l9.84-7.32c1.95-1.6,3.2-1.72,5.26-3.09l14.42-11.56c1.14-1.14,1.83-4.69,4.35-2.52l1.95-2.4c-.8-1.03-.34-3.66-.23-5.26-3.78.8-3.89,2.63-6.86,4.12.11-3.32,3.78-3.66,4.92-8.24-3.2,1.14-1.37,2.86-6.18,4.35,1.26-5.15,3.66-2.75,4.81-7.78l-.23-.34c-2.86.46-2.63.92-4.81,1.72.46-1.6,2.17-2.75,1.37-4.46l-.46-.34c-2.29-.57-4.58-2.17-6.75-1.14s-3.66,1.95-6.06,2.63c.23-4.12,1.83-2.97,5.15-6.41-.8-.57-1.49-1.03-2.17-1.49-2.29,1.14-3.09,2.86-6.41,3.43.92-3.32,2.63-2.4,2.4-5.61-2.97.57-4.46,2.4-6.98,2.4.8-1.6.57-2.86,5.26-4.58-.57-.69-2.4-2.17-3.2-2.63-.34.23.57.92-2.06-.34-.92-.46-1.14-.69-2.29-.92-2.06-.34-3.43.46-5.61.69.69-2.52,1.83-2.06,2.4-5.03-6.41-.46-5.95,2.52-13.96,5.15.8-1.95.57-1.72,2.4-2.63,6.98-3.55,3.89-5.15,8.92-6.29-.57-1.03-1.37-2.17-2.4-2.75l.46,1.49c-2.52.69-3.2.69-5.38,1.83-1.72.92-2.97,1.83-5.38,1.95.23-2.63.69-2.75,2.97-3.55,1.6-.57,3.43-.92,2.86-2.86-3.32-1.72-7.09,1.26-10.3,1.95.69-2.17,1.72-2.29,3.89-3.43.92-.57,1.37-.69,2.06-1.37.11-.23.69-1.03.69-1.26.92-3.89-7.09,1.03-9.15,1.03,1.83-5.26,4.58-2.86,6.52-7.44-6.86.57-7.55,4.12-13.27,4.69.92-3.43,3.09-2.86,6.18-4.58,2.17-1.14,4.12-2.97,5.61-4.92-.57-2.63-1.95-4.69-2.86-6.86-3.32.8-5.61,2.75-9.61,3.09,2.17-5.84,9.15-3.66,8.47-8.81-4.92-.92-5.95,2.17-10.75,3.32l.57-2.63c3.43-1.14,4.12-1.37,6.75-3.2,2.97-2.06,3.43-3.2,1.72-6.41-4.58.23-2.75,3.2-6.98,5.26-4.58,2.17-4.92,3.43-7.89,3.89l.11-2.63c2.86-1.14,4.92-3.09,7.44-4.69,2.06-1.37,5.95-3.09,7.55-4.69-.23-3.43-2.63-5.72-3.32-9.73l1.95,1.14c.11,0,.23.23.34.23,0-.11.11.11.23.11-.46-1.72-1.49-2.75-2.75-3.55-.11.8,0,.57-.34.92-1.72-.57-2.75-.46-3.43-3.2v-1.14c-.46-.34,0-.23-.8-.34-.46-.11-.69,0-1.14,0-2.17.92-5.15,1.49-7.32,2.86-2.75,1.6-3.55,2.17-7.09,3.2-24.6,7.89-19.56,7.44-49.88,11.21-11.44,1.37-26.2,2.17-36.96-1.03-5.84-1.72-11.33-4.81-5.49-9.84,1.14-.92,2.17-1.37,3.09-2.29,4.69-4.81,1.49-3.55,10.64-4.23,2.86-4.81.69-2.4,10.53-6.98,3.09-1.49,8.92-4.35,12.01-5.26-.8,2.63-2.4,2.63-4.69,3.78-2.06,1.03-3.89,2.06-5.38,2.97.34.23.23.69,2.06,0l5.72-2.75c2.4-1.14,5.26-3.2,8.24-2.63,0,1.14-.23,1.26-1.14,2.06-5.61,4.58-15.67,9.04-22.08,13.04-4.92,3.09-7.78.11-8.81,3.89,3.09.69,6.29-1.49,9.38-2.63,3.89-1.49,19.22-7.67,22.08-9.5,1.49-.92,2.29-1.6,4.12-1.95-1.72,7.78-18.88,9.84-25.63,16.59,9.38-1.37,19.56-9.84,27.57-10.07l-.11,2.52c-2.29,1.26-4.46,2.75-7.09,3.89-3.55,1.6-5.26.69-6.75,3.66,5.03.46,6.06-2.86,11.67-3.55-.34,3.55-1.95,2.29-3.66,5.03,4.92-.46,5.72-2.29,7.32-6.18,1.37-3.55,2.29-5.84,2.63-10.18.69-6.41-.11-18.19-4.46-20.94-1.6,1.03-1.37,1.6-2.52,2.52l-22.88,9.15c-7.89,3.09-5.38,2.06-12.47,5.84-9.5,5.03-19.91,6.64-16.02,18.99,1.83,6.06,2.63,8.92.46,15.33-8.01,24.6-1.26,18.42-.57,29.86,1.6.92,6.64,1.37,7.55,1.83,2.4-.92,4.92-2.4,7.89-3.55,4.35-1.6,3.66-1.72,4.23-6.75l1.37-21.17,2.52-.46c.92,1.83,1.83,9.73,1.6,12.13-.34,3.55-3.2,8.01-1.26,11.44,2.86-2.86,2.86-16.48,3.43-21.4.34-3.43,1.49-3.2,4.92-2.86,2.86,5.61-1.83,12.13.57,18.42.92-1.95,1.26-8.12,1.6-10.75,1.95-16.82,4.58-8.58,9.15-9.04,4.92-.57,2.97-.92,6.98.8,7.21-5.38,2.86-4.23,13.39-3.32,1.37-4.81,5.38-4.23,10.3-5.38,4.23-.92,8.01-2.06,11.9-3.43,18.99-6.52,12.7-2.86,18.88-4.23,1.26-.23,2.63-1.37,4.35-1.37,6.18,0-5.95,8.92-6.98,9.73-3.78,2.86-6.86,4.92-11.44,7.21-5.84,2.97-7.21,5.38-11.67,7.09-3.09,1.14-16.7,9.61-24.03,12.93-8.58,4-10.3,4.23-18.76,9.04l-19.11,8.35-.34.46-.8.34c-.34.46.69.34-1.14.34l-.69.46-.8.34h-.34l-.8.34c-3.55,1.03-7.44,3.09-11.67,4.35-4,1.26-8.35,1.95-12.24,3.43-4,1.49-7.44,3.09-11.56,4.46-12.59,4.35-22.54,5.84-34.32,13.04-6.98,4.23-8.7,6.06-9.38,14.42-.23,3.55.34,3.55,1.72,5.72l.46.34.34.8.34.34c1.37,2.4,4.92,9.27,6.52,10.64,1.49-.57,3.89-3.2,6.41-1.72,1.6.92,2.63,3.55,3.32,5.38,1.26,3.55,2.52,11.21,4.81,13.27-.11-2.17-.57-7.32-1.03-9.38-.69-3.2-3.32-3.55-.11-7.09,2.97-.46,4.23.34,5.26,2.4.46,1.03,2.06,3.89,2.06,4.69l1.37-5.03c4.92.57,5.26-.46,7.32,6.75.57,2.06,1.03,5.26,2.75,6.75,0-4.23-2.06-6.75-1.03-10.75,2.17-.69,4.23-.11,6.06.8.8,1.83,1.95,7.67,2.29,10.18.57,3.2-.23,8.01,2.06,9.95,2.63-3.2-1.37-15.79-1.49-20.48,2.4-1.26,4-2.06,7.32-1.03l1.37,4.92c1.72-8.81,4.92-5.72,8.81-2.4,2.52-1.95.92-2.63,8.01-3.09l2.75,2.29c1.14-1.95.8-3.2,2.52-4.46,1.6-1.14,4.23-1.14,5.95-.34,3.32,1.6,1.26,6.86,4.12,9.84l-1.26-12.47c8.24-.46,39.7-8.81,38.9,7.44-5.38,1.95-10.53,4-15.79,6.06l-15.1,6.52-32.49,11.1c-2.97.8-5.72,1.49-8.47,2.63-2.63,1.14-4.58,2.63-7.32,3.32-5.49,1.6-11.56,3.09-16.93,4.81-5.84,1.83-11.67,2.17-17.16,4.58-5.15,2.17-10.98,3.55-16.59,5.03-6.18,1.6-11.1,3.32-16.7,5.15-5.61,1.72-12.47,2.17-18.42,3.32-20.25,4-32.26,8.12-54.12,11.1-3.09.46-6.06,1.49-9.04,1.95-3.2.69-6.41.34-9.73.92-12.47,2.4-24.37,4.35-37.3,6.29-31.92,4.69-47.14,5.84-79.17,7.67-13.73.8-27.46,1.37-41.19,2.4-14.42,1.14-26.89,1.6-41.42,1.14-7.67-.23-13.73.57-21.4-.34-6.64-.69-14.64-.57-21.4-.46-7.32.11-13.16-.92-20.25-1.37-6.86-.46-14.3-.11-21.28-.46l-19.34-2.4c-5.15-1.03-14.42-1.14-20.25-1.49-9.95-.69-18.76-2.97-28.37-4-4.23-.46-6.06.34-6.98-3.89l1.03-.34c0-.11.11-.11.23-.11.46-.23.57-.11,1.03-.34-2.29,0-2.63-.34-4.81-.34l.69,2.63c-4.69,1.6-5.38.69-9.61-.46-4.12-1.14-7.09-.57-11.21-.92-2.86-.23-6.75-1.26-9.61-1.95-9.27-2.17-19.68-2.63-29.75-5.03-3.09-.8-5.95-1.83-9.27-2.52-17.28-4-29.52-5.61-47.82-10.53-3.78-1.03-33.87-9.61-36.73-9.84l-.34-.34h-.8l-.34-.46h-1.14l-.34-.34h-.8l-.8-.34h-.69l-.8-.46h-.8l-.69-.34h-.46c-1.83,0-.69,0-1.14-.34h-.34c-1.83,0-.69,0-1.14-.46h-.34l-.8-.34h-.34c-1.95,0-.8,0-1.14-.34h-.46c-1.83,0-.69,0-1.14-.46-.23,0-.57.11-.69,0-.69-.11-.46-.11-.8-.34-1.83,0-.69,0-1.14-.34h-.34c-1.83,0-.8,0-1.14-.46-.23,0-.69.11-.8,0-.69-.11-.34-.11-.8-.34-1.83,0-.69,0-1.14-.34h-.34c-1.83,0-.69,0-1.14-.46-1.83,0-.69.11-1.14-.34h-.34c-1.83,0-.8,0-1.14-.34-1.83,0-.8,0-1.14-.46h-.46c-1.83.11-.69.11-1.14-.34h-.34l-.8-.34h-.34c-1.83,0-.69,0-1.14-.46h-.34l-.8-.34c-1.83,0-2.4-.57-4-.92-.92-.34-1.37-.34-2.06-.57-1.83-.69-1.14,0-1.6-1.26-7.32-2.29-14.87-4.46-22.31-6.86-3.89-1.26-7.21-2.4-10.41-4.12-3.55-1.83-6.86-2.4-10.87-3.66-8.12-2.52-13.73-5.26-21.17-8.12-6.98-2.86-13.96-5.38-21.05-8.01-3.66-1.26-6.86-2.86-10.64-4.23-3.66-1.26-7.21-2.4-10.75-3.78-3.43-1.26-6.98-2.86-9.73-4.69-3.66-2.29-1.26-7.21,2.17-8.24,4.23-1.26,12.01,2.06,17.85,3.09,2.97.46,2.97,1.37,5.03,2.17,1.49.46,2.86-.8,5.61.11,4.12,1.6,3.55-.23,6.06.34,5.95,1.26,0,7.32,2.06,10.18,1.72-2.29,1.49-6.41,3.43-8.92l4.23.11c2.86,6.18-.69,7.55-1.6,11.9,3.66-1.72,2.06-9.38,6.75-10.41,8.58-1.95,1.83,8.47,1.49,11.67,1.49-1.03,1.72-1.83,2.52-3.89l2.17-6.64c1.14-2.52,3.66-1.95,5.72-.92.11,3.55-1.03,5.72-1.83,8.7,3.2-1.49,1.37-2.52,4.46-7.67,3.32.11,2.63.46,4.81,1.03,2.17.46,2.97-.34,4.12,1.26,1.72,3.2-3.89,7.67-.8,9.15,2.17-.8,1.72-3.55,3.09-5.95,1.49-2.52,4.58-1.95,3.43,2.52-1.26,4.81-3.55,9.04-4.58,13.73,5.95-2.06,5.49-11.21,8.58-16.59.57-1.03,1.14-1.6,1.83-2.29,1.26-1.14,1.26-.92,3.2-1.14-.57,7.55-4.58,14.07-4.81,21.97,3.2-2.17,3.89-8.7,5.61-13.04,2.52-6.29,5.38-5.49,12.7-5.61.69,9.38-7.21,18.65-5.38,24.6,1.72-.69,1.72-.57,2.29-2.52,1.49-5.61,3.43-12.01,5.61-17.28.69-1.72,1.03-5.84,2.29-6.98,1.72-.34,2.52-.46,3.66.92,2.4,4.12-10.3,21.4-6.98,28.26,2.75-.8,3.32-3.55,4.35-6.64.8-2.75,1.49-5.38,2.63-8.01,2.06-4.58,4.69-10.41,6.06-15.33h3.55c-1.83,6.06-4.46,11.21-6.98,16.82-1.14,2.75-2.29,5.61-3.09,8.7-1.03,3.78.46,6.75,3.09,7.89,1.83-4.23,2.86-13.5,4.12-18.65,2.97-11.56,10.41-20.14,15.56-30.21,11.78-23.11-14.76-24.14-32.72-29.75l-33.98-11.44c-5.26-2.06-9.73-5.38-15.56-7.32-6.41-2.06-10.87-3.09-16.59-6.29-4.92-2.75-10.41-4.69-15.22-7.67-4.81-2.86-9.61-5.61-14.42-8.47-5.03-2.97-9.5-5.72-13.84-9.04-5.95-4.46-13.62-9.15-20.37-13.96-7.44-5.26-15.33-7.67-16.13-17.73,8.58-1.14,10.07.11,17.39,2.06,5.26,1.37,10.53,2.52,16.02,3.78,5.38,1.37,10.98,2.97,16.36,4,5.15.92,12.59.57,15.67,3.89-4.46,3.89-17.85-2.63-23.8-1.37.11.69-.69.11,1.03,1.03,4.46,2.4,10.41,1.37,13.04,1.72,1.83.23,2.29,1.83,6.52,2.29,3.09.23,4.81.11,6.18,2.4-3.66,2.17-20.59-.23-25.4-1.14-7.09-1.26-14.99-5.26-21.85-5.84,1.03,2.75,1.6,2.75,4.58,3.66,8.01,2.63,11.78,2.17,19.34,3.66,4.12.8,8.01,2.52,12.24,2.97,4.35.57,10.07-.11,12.47,2.75-3.43,3.43-11.33-1.14-16.02.8,1.26,2.17,1.83,1.49,4.69,1.95,1.95.23,2.97.92,4.69,1.26,3.43.92,9.27-1.49,9.95,2.4-5.03,1.72-12.24-1.26-14.3.11.23,1.14.23.92,1.49,1.49,7.89,3.89,15.33-.8,16.02,5.38-9.5,2.17-18.42-3.09-27-4.69,2.17,3.78,6.64,3.43,9.61,5.72l1.83,1.83c.46.46.23.34.69.69,3.89-2.52,4.81-1.14,9.5-.92,1.83.11,4.12-.23,5.72.46,1.03.34,2.52,1.6,3.2,2.06-8.01.8-11.67-2.86-14.76-.92.34,1.14-.34.57,1.49,1.26.69.34,1.37.46,1.95.69,1.26.46,2.63,1.03,3.89,1.49,5.72,2.29,2.4,3.09,5.72,4.58.69-.34,6.18-.8,7.21-.8l-3.55-1.03c2.52-1.83,6.64-1.26,10.18-1.95,3.09-.69,7.44-1.6,10.64-1.72,1.26-1.37,1.83-1.37,1.83-4l-6.86-13.04c.46-.57-.8-.69.8-.34,0-1.72-.46-1.6-.46-3.43.11-1.83.69-1.72.46-2.86-.57-4-.8-.69,1.03-5.61.34-5.26,5.03-8.92,1.83-17.62-1.83-5.03-7.55-6.41-10.07-11.33-1.26-.23-3.32-1.6-4.46-2.4l-1.26-1.03-.8-.34-.34-.46h-.46l-.34-.34-.34-.34h-.46l-.34-.46c-7.67-4.12-12.24-7.21-18.88-12.24-1.37-1.03-4.69-4-5.95-4.35-2.75,1.49-3.09,3.55-3.78,7.09-1.72,10.3-2.63,8.01-.57,19.68,1.26,6.75.46,5.38,4.35,6.18-.69-1.83-2.06-2.86-2.17-4.81l5.03,1.14c-.46-2.75-1.37-2.17-1.37-5.95l6.18.57c-1.37-6.18-6.29-2.4-6.06-10.98,3.55,0,8.35,3.55,10.87,5.03,3.32,2.06,6.41,3.89,9.84,5.72,6.52,3.66,15.56,7.09,15.56,16.25-10.53,2.06-35.7,1.14-45.42-1.95-3.78-1.26-6.75-1.26-10.41-2.17-3.09-.8-6.29-1.95-9.27-2.97-9.04-3.2-20.71-7.09-30.43-3.78-5.15,1.83-4.35,1.03-6.98,5.26-1.83,2.75-3.09,4.23-4.46,7.78-1.95,5.15-2.86,3.2-4.46,7.67-1.37,3.66-1.49,1.95-5.72,6.98-2.63,3.2-9.15,9.5-12.47,11.9-4.46,3.2-4.12.69-7.78,4.35,1.03,3.32,4.35,5.15,6.86,6.98,2.4,1.72,17.85,17.51,19.68,20.37-4-.11-12.81-9.15-15.1-11.21l-7.32-5.95c-1.37-2.4-1.37-3.55-4.46-7.78l-.34-.46c-2.86.57-9.27,3.89-10.75,5.38-1.14,1.14-.11.92-2.17,2.06-.92.57-1.49.8-2.52,1.26-4.58,2.06-9.27,7.78-12.24,11.78-1.37,1.72-2.75,2.63-1.72,4.69.57,1.26,2.17,4,2.97,5.03l-1.83.69Z"/>
      <path class="cls-1" d="m918.05,211.21c4-2.29,1.49-11.9.69-16.13-1.14-5.84-1.49-12.7-5.61-14.87-.8,5.72,2.17,9.5,3.2,14.53.92,4.58-1.14,13.27,1.72,16.48Z"/>
      <path class="cls-1" d="m130.55,72.08c-.92-.57-3.43-.23-5.26-.46-3.32-.57-10.98-3.2-11.56-5.84l7.21-.46c-3.32-1.14-9.5-1.72-12.7-1.72,1.03,2.4,2.63,2.4,4.23,4,4.23,4.35,3.89,3.66,11.44,5.03,1.95.34,5.49,1.49,6.64-.57Z"/>
      <path class="cls-1" d="m960.61,158.92c5.61.23,8.7-1.83,14.87-4.12,1.14-.34,2.63-1.03,3.55-1.95.57-.8-.11.23.57-.92-2.52-.34-11.1,3.43-14.87,4.69-2.75.92-2.63.34-4.12,2.29Z"/>
      <path class="cls-1" d="m210.86,192.21c2.52-.92,4.46-5.84,3.78-9.73l-1.26.11c-.57,1.83-.46,3.55-1.26,5.15-.92,1.95-2.06,1.83-1.26,4.46Z"/>
      <path class="cls-1" d="m979.84,191.07c2.06-1.72,1.37-5.95-.46-7.67-.69,2.52-1.83,5.72.46,7.67Z"/>
      <path class="cls-1" d="m926.29,197.94c0-1.26-.11-7.21-2.52-4.12-.8,1.03-.34,2.29.23,3.09,1.26,1.72,1.03.46,2.29,1.03Z"/>
      <path class="cls-1" d="m183.98,183.86c2.63-.23,2.63-2.75,2.63-5.26-2.63.8-3.32,2.06-2.63,5.26Z"/>
      <path class="cls-1" d="m215.67,177.68c1.26.23,1.49,0,2.17-1.03.46-.92.57-1.72.57-2.97-1.95.69-3.2,1.49-2.75,4Z"/>
    </g>
  </g>
</svg>