<?xml version="1.0" encoding="UTF-8"?>
<svg id="Layer_1" data-name="Layer 1" xmlns="http://www.w3.org/2000/svg" viewBox="0 0 678.77 717.98">
  <defs>
    <style>
      .cls-1 {
        stroke-width: 0px;
      }

      .cls-2 {
        font-family: PoorRichard-Regular, 'Poor Richard';
        font-size: 90px;
      }
    </style>
  </defs>
  <path class="cls-1" d="m315.9,559.45c-1.28-.31-8.59-.65-16.25-.76-7.66-.11-14.26-.53-14.66-.93-.4-.4-1.49-.72-2.42-.72s-3.03-.57-4.68-1.28c-1.65-.7-5-1.39-7.45-1.53-2.45-.14-6.6-.96-9.22-1.82-2.62-.86-5.73-1.56-6.91-1.56s-2.39-.39-2.69-.88c-.36-.59-2.19-.72-5.55-.41-5.03.47-7.8-.26-14.12-3.7-1.06-.58-3.65-1.31-5.75-1.62-2.1-.31-4.88-1.18-6.19-1.92s-3.77-1.59-5.47-1.89c-1.7-.29-4.75-1.55-6.78-2.79-2.03-1.24-4.18-2.26-4.79-2.26s-1.32-.35-1.58-.77c-.26-.43-1.18-.77-2.03-.77s-3.07-1.04-4.93-2.32-3.66-2.32-4.01-2.32c-.35,0-4.6-1.57-9.45-3.48-4.85-1.91-9.24-3.48-9.76-3.48s-2.29-.92-3.95-2.05c-1.66-1.13-5.62-3.08-8.81-4.34-3.19-1.26-7.22-2.95-8.95-3.76-1.73-.81-3.82-1.47-4.64-1.49-.82-.01-2.92-.8-4.67-1.74s-5.94-3.2-9.33-5.01-8.2-5.02-10.69-7.13c-2.49-2.11-5.72-4.4-7.18-5.09-1.45-.69-3.4-2.13-4.32-3.2-.92-1.07-2.69-2.47-3.92-3.11-2.04-1.06-13.66-10.27-18.17-14.4-1.01-.93-2.61-2.21-3.55-2.85-2.88-1.96-10.44-8.69-14.22-12.68-1.97-2.08-4.9-5.15-6.49-6.83-1.6-1.68-2.9-3.39-2.9-3.8s-1.48-2.38-3.29-4.39c-4.76-5.27-6.28-7.65-9.01-14.11-2.53-6-4.28-14.27-4.2-19.84.06-4.05,2.56-7.39,6.83-9.15,1.7-.7,3.81-1.94,4.69-2.75.88-.81,3.31-1.71,5.42-1.99,2.1-.28,4.52-.95,5.37-1.48,2.88-1.79,14.17-2.76,19.49-1.67,2.63.54,5.04,1.24,5.35,1.54.31.31,2.11.56,4.01.56,2.86,0,3.97.47,6.45,2.71,1.65,1.49,3.64,2.71,4.42,2.71,1.8,0,5.85,1.99,7.09,3.5.52.63,1.34,1.15,1.82,1.15.48,0,2.71,1.39,4.95,3.09,2.24,1.7,4.51,3.1,5.03,3.11,2.43.04,7.54,3.24,11.62,7.26,3.2,3.16,4.97,4.35,6.19,4.18,1.7-.24,1.71-.33,1.78-17.26.04-9.36.29-24.51.55-33.65.67-23.02,1.28-54.37,1.68-85.49.31-24.16,1.82-47.04,3.26-49.37.28-.46.61-2.76.72-5.13.12-2.36.57-5.69,1.01-7.39.44-1.7,1.52-6.23,2.39-10.06,2.77-12.11,8.12-26.19,10.93-28.73.79-.71,1.43-1.74,1.43-2.27,0-1.97,3.2-8.37,4.97-9.93,1-.89,2.39-2.75,3.1-4.14,1.82-3.6,11.23-13.38,14-14.54,1.29-.54,2.99-1.71,3.79-2.59.93-1.03,2.41-1.61,4.07-1.61,2.05,0,2.76-.4,3.32-1.88.39-1.03,1.93-2.46,3.43-3.17,1.49-.71,3.12-1.78,3.62-2.38.5-.6,1.44-1.09,2.09-1.09s3.42-1.25,6.15-2.78c2.82-1.58,6.3-2.88,8.07-3.01,1.71-.13,3.5-.62,3.97-1.09.47-.47,1.6-.86,2.5-.86s2.59-.99,3.75-2.21c1.54-1.61,2.63-2.11,4.04-1.84,1.17.22,2.5-.15,3.39-.96.97-.88,2.04-1.14,3.17-.79,1.3.41,2.1.04,3.41-1.6,1.52-1.91,2.26-2.16,6.86-2.3,2.83-.09,5.67-.6,6.31-1.13.67-.56,1.98-.75,3.13-.46,1.79.45,7.33-.9,11.71-2.86.92-.41,2.04-.51,2.51-.22.88.54,11.67-.72,16.33-1.92,2.99-.77,11.62-1.72,17.02-1.87,1.91-.06,4-.32,4.64-.6,1.8-.77,8.16-1.42,16.63-1.69,4.26-.14,9.05-.5,10.65-.82,1.76-.35,3.3-.25,3.89.24.54.45,6.97,1.03,14.5,1.3,15.27.55,19,.84,23.96,1.9,1.91.41,6.18.76,9.49.77,3.3.02,6.61.35,7.35.73.74.38,5.87,1.43,11.4,2.34,16.99,2.78,23.26,4.46,39.84,10.65,4.04,1.51,8.17,2.92,9.17,3.14,1,.22,3.77,1.57,6.14,3s4.93,2.6,5.68,2.6,1.81.61,2.37,1.35c.56.74,3.45,2.57,6.43,4.06s5.89,3.15,6.46,3.7c.58.55,2.39,1.68,4.02,2.51s3.25,1.97,3.59,2.52,2.45,2.32,4.68,3.94,4.06,3.2,4.06,3.52.95,1.07,2.12,1.67c4.79,2.49,8.34,6.07,13.26,13.42,2.02,3.01,3.88,6.05,4.15,6.76.27.71,1.29,1.41,2.27,1.55,2.47.35,5.5,6.07,5.63,10.63.05,1.95.52,4.31,1.04,5.24.52.93.94,3.56.94,5.84s.32,4.48.71,4.89c.39.4.92,3.35,1.17,6.54.95,12,1.11,13.72,1.96,20.89,1.16,9.78,2.15,25.09,2.75,42.53.27,7.86.72,14.65,1.01,15.09.28.43.52,24.46.52,53.4v52.61l1.93.26c2.9.39,5.9,3.69,7.04,7.74,1.04,3.71,1.2,10.48.32,13.26-1.16,3.66,5.74.25,11.9-5.87,1.02-1.01,2.35-1.84,2.98-1.84s2.22-.78,3.55-1.74c1.33-.96,4.87-2.8,7.86-4.1,3.9-1.7,5.72-2.96,6.47-4.51.98-2.03,1.11-2.08,2.47-.85,1.35,1.22,1.57,1.21,3.61-.2,2.25-1.55,8.27-2.17,19.96-2.04,11.1.12,15.89.99,20.89,3.79,5.35,2.99,7.26,4.83,9.59,9.25,2.17,4.1,2.3,13.59.23,17.03-.77,1.28-1.87,3.54-2.46,5.03s-2.05,4.16-3.25,5.94c-1.2,1.78-2.18,3.76-2.18,4.4,0,1.43-18.24,20.04-23.59,24.08-2.13,1.6-4.63,4.04-5.57,5.42-1.58,2.33-4.6,4.64-9.47,7.25-1.09.59-2.85,1.84-3.92,2.79-2.23,1.99-17.42,12-18.21,12-.29,0-1.55.86-2.8,1.91s-3.61,2.27-5.24,2.71-3.4,1.32-3.93,1.95c-.53.64-1.3,1.15-1.71,1.15-1.34,0-9.76,5.53-10.21,6.7-.24.62-1.05,1.04-1.79.92-2.28-.36-10.02,3.76-10.49,5.58-.36,1.37-.81,1.56-2.72,1.14-2.38-.52-5.09.58-9.93,4.03-1.34.96-3.47,1.74-4.74,1.74-1.83,0-2.5.48-3.26,2.32-.83,2.01-1.36,2.32-3.92,2.32-1.63,0-3.15.32-3.4.71-.24.39-1.42.93-2.61,1.19-1.19.26-3.29,1.67-4.67,3.13-2.82,2.98-7.19,4.26-9.55,2.79-1.18-.74-2.01-.62-4.33.6-1.58.83-4.99,1.9-7.59,2.37-2.6.47-6.09,1.51-7.75,2.31-1.66.8-4.41,1.7-6.1,2-4.3.76-10.37,2.74-10.88,3.56-.23.37-1.63.68-3.1.68s-4.58.67-6.89,1.48c-2.32.81-4.9,1.3-5.74,1.08-1.98-.52-8.97,1.81-12.58,4.2-3.03,2-8.32,2.79-17.66,2.64-2.95-.05-6.56.46-8.74,1.23-2.77.98-4.05,1.1-5.05.47-1.78-1.11-12.28-1.22-23.83-.24-7.51.63-38.64,1.03-45.55.58-.85-.06-2.94.11-4.64.36-1.7.25-4.14.21-5.42-.1h0Zm5.82-10.19l1.95-2.38,1.85,1.6c1.66,1.44,1.98,1.48,3.14.44,1.76-1.6,2.25-1.48,3.1.77.4,1.06,1.21,1.93,1.78,1.93s1.51-.87,2.08-1.93,1.49-1.93,2.05-1.93,1.23.87,1.5,1.93c.31,1.22,1.03,1.93,1.97,1.93.83,0,1.87-.85,2.36-1.93.95-2.09,1.78-2.43,2.62-1.08.3.49,1.49.66,2.83.39,1.78-.36,2.63-.07,3.77,1.28l1.47,1.74,1.48-1.74c1.71-2.02,3.03-2.23,3.66-.58.65,1.68,2.23,1.42,3.59-.58l1.18-1.74,1.77,1.86,1.77,1.86,1.11-1.67c1.4-2.11,2.26-2.1,4,.04,1.19,1.47,1.57,1.57,2.64.68.69-.57,1.25-1.52,1.25-2.1,0-1.22,2.76-1.45,3.48-.29.86,1.39,4.04.81,5.3-.97l1.23-1.74,1.65,1.92,1.65,1.92,1.47-1.81c1.45-1.79,2.15-1.78,4.71.06,1.06.76,1.59.68,2.8-.41,1.26-1.14,1.82-1.2,3.53-.42,1.78.81,2.28.71,3.84-.76l1.8-1.69,2.08,1.64c2.33,1.83,4.3,1.5,4.91-.83.43-1.63,2.12-2.08,2.93-.77.86,1.4,2.72.81,3.61-1.14.67-1.46.64-2.19-.11-3.09-1.23-1.48-2.94-1.49-8.87-.04-11.62,2.84-40.2,4.64-70.45,4.44-13.19-.09-26.25-.49-29.01-.9-2.77-.41-7.12-.95-9.67-1.2-2.55-.25-6.73-.76-9.28-1.14-2.55-.38-7.13-1.04-10.17-1.48-6.19-.9-11.43-2.07-16.34-3.66-1.82-.59-6-1.62-9.28-2.3-5.47-1.12-16.33-4.41-21.06-6.37-1.06-.44-4.72-1.66-8.12-2.72-5.46-1.69-16.1-6.05-28.84-11.82-2.25-1.02-4.28-1.85-4.52-1.85s-1.36-.62-2.49-1.39-3.97-2.22-6.31-3.25c-2.34-1.03-4.84-2.35-5.55-2.94-1.41-1.17-4.5-.62-4.5.8,0,.47-1.57,2.36-3.48,4.19-3.74,3.59-4.59,6.46-1.9,6.46.91,0,3.1-1.65,5.14-3.87,1.96-2.13,4.01-3.87,4.56-3.87,2.19,0,1.87,1.77-.77,4.34-1.7,1.65-2.78,3.44-2.78,4.6,0,2.92,2.11,2.34,5.76-1.58,4.98-5.35,8.28-4.34,3.51,1.07-2.45,2.78-3.04,5.5-1.2,5.5.61,0,2.39-1.57,3.96-3.48s3.33-3.48,3.92-3.48c1.74,0,1.16,2.52-1.23,5.31-2.21,2.59-2.38,4.74-.36,4.74.58,0,1.4-.44,1.82-.97,3.92-4.88,5.8-6.77,6.71-6.77,1.67,0,1.28,2.3-.85,5.1-1.06,1.39-1.93,3.08-1.93,3.75,0,1.85,2.91,1.46,3.94-.53,1.46-2.83,3.97-5.22,5.48-5.22,2.11,0,1.72,1.4-1.32,4.77-1.5,1.66-2.53,3.36-2.28,3.77.94,1.53,2.95.64,5.81-2.55,2.05-2.29,3.19-3.05,3.77-2.49.58.56.23,1.64-1.19,3.64-2,2.81-2.05,5.28-.11,5.19.55-.03,2.05-1.51,3.35-3.29,1.29-1.78,2.86-3.24,3.48-3.24,1.76,0,1.76,3.02,0,4.61-2.02,1.83-2.03,3.51-.01,3.51.94,0,1.85-.74,2.27-1.86.67-1.76,3.55-4.33,4.84-4.33,1.16,0,.55,3.5-.95,5.42-1.82,2.33-1.94,3.55-.39,4.15,1.83.7,3.26-.2,4.29-2.69.89-2.15,3.42-4.56,4.78-4.56.96,0,.7,1.89-.63,4.55-1.31,2.62-.96,5.07.65,4.54.53-.17,1.32-1.37,1.74-2.65.95-2.87,2.56-4.89,3.9-4.89,1.68,0,1.76,1.79.22,4.86-.81,1.61-1.26,3.26-1.01,3.67.96,1.56,2.38.59,4.59-3.14,1.26-2.12,2.56-3.85,2.9-3.85,1.16,0,.99,3.38-.29,5.94-1.18,2.35-.27,4.28,1.87,3.97,1.23-.17,1.81-.85,1.98-2.29.31-2.72,2.93-5.15,4.19-3.89.7.7.68,1.54-.07,3.61-1.11,3.07-.69,4.26,1.51,4.26,1.08,0,1.97-1.03,3.02-3.48.91-2.12,1.99-3.48,2.77-3.48,1.07,0,1.19.55.75,3.48-.6,3.99-.01,4.35,2.32,1.42,2.15-2.7,3.66-1.82,3,1.73-.4,2.15-.26,2.65.79,2.65.71,0,2.08-.93,3.06-2.06,2.01-2.33,4.34-2.07,4.34.49,0,2.05,1.34,2,3.04-.1,1.85-2.28,3.92-1.41,3.92,1.65,0,3.3,2.71,3.31,3.37.02.33-1.66.91-2.32,2.03-2.32,1,0,1.57.51,1.57,1.4,0,.77.5,2.08,1.12,2.9,1.07,1.44,1.16,1.4,2.01-1.01,1.14-3.22,3.62-3.47,3.98-.39.3,2.59,2.6,3.29,3.33,1.02.79-2.49,3.21-1.97,4.23.92l.89,2.51,2.27-2.71c1.89-2.25,2.4-2.51,3.04-1.55.42.64.78,1.77.78,2.51.02,1.89,2.88,1.74,3.49-.19.67-2.13,2.28-1.94,3.34.39,1.14,2.5,1.67,2.45,4.03-.43h0Zm107.25-7.7c.55-2.73,1.96-2.99,3.52-.64,1.33,2.01,3.71,1.47,3.71-.84,0-2.48,1.66-2.81,3.42-.68,1.91,2.31,3.55,2.02,3.55-.64,0-2.39,1.95-3.19,3.76-1.55,1.96,1.77,3.09,1.56,3.65-.68.6-2.4,2.07-2.48,3.67-.19,1.04,1.49,1.34,1.57,2.02.58.44-.64.8-1.92.81-2.86.02-3.03,1.86-2.95,3.58.15,1.42,2.56,3.74,1.97,4.03-1.01.31-3.27,2.22-4.07,4.01-1.7,1.95,2.59,4.22,1.58,3.59-1.59-.65-3.25,1.25-3.82,3.61-1.07,2.37,2.76,3.96,1.94,3.28-1.69-.4-2.16-.26-2.62.85-2.62.74,0,2.14.76,3.13,1.68l1.79,1.68v-4c0-4.87,1.39-5.32,3.8-1.24,1.2,2.03,2.07,2.7,3.3,2.51,2.43-.36,2.51-1.67.28-4.33-2.11-2.51-1.96-4.82.32-4.82,1.55,0,3.21,1.78,4.51,4.84.56,1.32,1.5,2.13,2.47,2.13,2.07,0,1.97-1.65-.3-5-2.21-3.25-1.91-6.04.61-5.68,1.05.15,2.19,1.4,3.19,3.5,1.63,3.44,3.82,4.83,5.29,3.36.65-.65.54-1.41-.44-2.98-3.72-5.92-4.08-7.07-2.7-8.45,1.2-1.2,1.39-1.19,2.84.12.85.77,1.78,2.14,2.06,3.04.68,2.2,3.33,5.89,4.23,5.89,1.47,0,.66-4.26-1.36-7.18-2.26-3.26-1.85-5.59.98-5.59,1.37,0,2.14,1.09,4.37,6.12,1.46,3.3,3.51,4.33,4.9,2.45.98-1.31.93-1.77-.4-3.87-4.92-7.76-5.55-10.5-2.41-10.5,1.09,0,2.36,1.54,4.47,5.4,3.19,5.85,4.68,7.03,6.21,4.94,1.35-1.85,1.41-1.68-2.5-6.87-3.72-4.93-4.08-6.8-1.42-7.19,1.88-.27,4.77,3.07,6.69,7.71,1.66,4.04,5.95,5.06,5.95,1.42,0-.8-.45-1.74-1.01-2.08-.55-.34-1.93-2.21-3.05-4.16-1.12-1.95-2.59-3.99-3.25-4.54-.66-.55-1.21-2-1.21-3.23,0-1.86.32-2.23,1.93-2.23,1.2,0,1.93.44,1.93,1.16,0,.64.33,1.16.73,1.16.77,0,1.83,1.72,5.1,8.32,1.6,3.23,2.4,4.06,3.89,4.06,2.5,0,2.54-2.94.09-5.94-.98-1.2-2.5-3.44-3.38-4.96-.88-1.53-2.15-3.62-2.82-4.65-1.5-2.29-.62-4.18,1.61-3.47,1.38.44,5.26,5.94,8.78,12.44,1.41,2.61,4.31,3.51,5.05,1.56.3-.77-.4-2.36-1.81-4.12-1.26-1.57-2.75-3.73-3.3-4.8s-2.18-3.24-3.61-4.84c-2.92-3.27-3.08-3.85-1.44-5.22,1.99-1.65,7.23,3.43,10.68,10.35,2.64,5.31,3.16,5.9,5.17,5.9,4.27,0,3.74-2.39-2.35-10.45-3.06-4.05-5.87-7.56-6.24-7.79-.37-.23-.68-1.27-.68-2.31,0-2.45,2.24-2.52,4.44-.15,1.6,1.73,5.54,6.97,9.73,12.95,2.22,3.17,4.65,4.03,5.46,1.94.96-2.49-2.06-7.1-9.64-14.72-3.34-3.36-4.5-5.05-4.14-6,.28-.73.92-1.32,1.43-1.32,1.7,0,10.48,8.08,14.13,13,2.7,3.64,4.02,4.81,5.22,4.64.99-.14,1.71-.9,1.86-1.98.19-1.36-1.76-3.73-8.7-10.59-4.92-4.86-8.95-9.04-8.95-9.28s1.03-.43,2.28-.43c1.88,0,3.71,1.46,10.39,8.3,4.46,4.57,8.35,8.06,8.64,7.77,1.41-1.41-1.14-5.17-8.19-12.11-4.24-4.18-7.72-7.83-7.72-8.1s1-.5,2.23-.5c1.79,0,3.69,1.47,9.67,7.52,4.09,4.13,7.64,8.14,7.88,8.9.26.83,1.19,1.38,2.32,1.38,1.56,0,1.88-.38,1.88-2.22s-1.34-3.43-7.62-9.09c-4.19-3.78-8.38-7.49-9.32-8.25-1.78-1.44-1.58-2.88.4-2.88,1.76,0,7.44,4.15,11.23,8.21,8.06,8.61,9.94,9.75,9.94,5.99,0-1.53-1.21-3.15-4.78-6.38-4.48-4.05-5.6-4.88-9.53-7.06-2.5-1.39-4.57-4.61-3.59-5.59.6-.6,1.37-.6,2.73.02,2.7,1.23,13.61,10.47,16.17,13.7,1.6,2.01,2.76,2.72,4.45,2.72,3.43,0,3.13-3.01-.61-6.11-1.6-1.32-4.24-3.53-5.87-4.9-1.63-1.37-5.12-3.9-7.74-5.62-5.22-3.42-6.26-5.58-2.49-5.17,1.25.14,3.22.92,4.37,1.74s2.45,1.49,2.87,1.49,3.81,2.96,7.52,6.58c6.85,6.67,9.87,8.13,10.96,5.3.82-2.14-9.05-10.85-17.4-15.36-2.36-1.28-4.66-2.92-5.11-3.65-1.17-1.91.39-3.2,3.13-2.59,2.79.62,12.59,7.75,17.78,12.93,3.37,3.36,4.28,3.89,6,3.46,5.81-1.46-1.51-9.26-16.14-17.19-3.04-1.65-4.75-3.08-4.91-4.13-.82-5.32,9.97-.37,20.32,9.31,3.39,3.17,5.5,4.56,6.91,4.56,2.43,0,2.8-2.38.68-4.34-3.28-3.02-14.93-10.7-19.34-12.76-3.56-1.66-4.84-2.66-4.84-3.79,0-2.01,2.9-2.05,6.8-.1,1.58.79,3.91,1.69,5.17,1.99s3.96,2.01,5.98,3.78c9.15,8.04,9.71,8.41,11.4,7.51.87-.47,1.59-1.55,1.59-2.41,0-1.67-3.59-5.29-5.28-5.33-.56-.01-2.48-1.02-4.26-2.24-4.49-3.07-8.93-5.23-12.13-5.89-3.11-.64-6.19-2.4-6.19-3.54,0-1.71,2.61-1.57,8.7.44,7.93,2.62,11.46,4.37,16.6,8.2,2.22,1.65,4.58,3.01,5.25,3.01,1.29,0,2.74-2.89,2.18-4.36-.62-1.64-16.88-8.61-22.52-9.65-5.78-1.07-6.92-2.04-5.51-4.67.63-1.18.53-2-.44-3.47-.7-1.06-1.68-1.8-2.18-1.63-1.16.38-3.53,5.09-3.6,7.15-.03.85-1,3-2.16,4.78-1.16,1.78-3.27,5.14-4.68,7.46s-3.71,5.4-5.12,6.83c-1.4,1.43-2.69,2.99-2.85,3.48-.62,1.82-14.86,17.21-18.03,19.49-1.81,1.3-5.7,4.52-8.64,7.15-2.94,2.63-7.04,6.21-9.11,7.97-2.07,1.75-5.01,4.35-6.54,5.78s-5.05,4.17-7.84,6.1c-2.79,1.93-6.6,4.77-8.47,6.31-1.87,1.54-4.52,3.49-5.9,4.34s-5.94,3.83-10.14,6.63c-14.65,9.74-13.99,9.35-26.98,15.99-7.64,3.91-21.78,10.26-22.84,10.26-.43,0-1.38.32-2.12.71-4.71,2.49-11.66,4.89-29.79,10.28-4.28,1.27-4.91,2.41-2.91,5.23,2.13,2.99,3.8,3,4.39.03h0Zm-57.51-2.73q5.26-.5,4.8-2.63c-.54-2.46,1.01-4.23,3.02-3.45.96.37,1.18,1.05.82,2.65-.38,1.72-.16,2.26,1.09,2.65,2.26.72,4.58-.81,4.86-3.2.33-2.82,1.99-3.16,2.96-.62.64,1.68,1.13,1.98,2.52,1.57.95-.28,5.38-.86,9.85-1.29,4.47-.43,9.86-1.08,11.99-1.45,2.13-.37,6.31-1.04,9.28-1.48,5.8-.87,20.08-5.28,25.33-7.82,1.76-.85,3.83-1.54,4.6-1.54,1.34,0,2.92-.63,13-5.2,2.34-1.06,5.65-2.47,7.35-3.13,1.7-.66,3.62-1.6,4.26-2.1.64-.5,3.42-1.88,6.19-3.08,2.77-1.2,5.9-2.78,6.96-3.51,1.06-.73,3.28-1.81,4.93-2.4,3.21-1.14,4.3-2.6,2.95-3.94-.59-.59-1.68-.44-3.78.53-1.62.75-3.99,1.8-5.27,2.34-1.28.54-3.96,1.71-5.95,2.6s-5.13,1.85-6.96,2.12c-1.83.27-5.25,1-7.59,1.62-2.34.62-6.17,1.4-8.51,1.75-2.34.34-5.3.99-6.58,1.44-1.28.45-5.63,1.21-9.67,1.68-8.88,1.05-20.13,2.64-27.46,3.89-7.14,1.21-9.45,1.46-18.18,1.93-4.04.22-12.05.73-17.79,1.13-5.74.4-10.79.72-11.22.7-.43-.02-4.08-.16-8.12-.31-25.55-.96-50.82-2.44-58.8-3.46-3.62-.46-9.36-1.16-12.77-1.55-8.79-1.02-17.87-2.25-22.82-3.09-2.34-.4-6.52-1.08-9.28-1.51-5.87-.92-8.05-1.33-23.67-4.55-6.42-1.32-12.51-2.71-13.54-3.1s-3.55-.94-5.61-1.25c-2.06-.3-5.31-1.22-7.22-2.04-1.91-.82-4.33-1.49-5.38-1.49s-2.85-.48-4-1.07c-1.15-.59-5.35-2.18-9.33-3.55-3.98-1.36-8.34-3.14-9.67-3.96-1.33-.81-2.89-1.48-3.46-1.48-.57,0-3.5-1.22-6.51-2.7s-6.62-2.91-8.03-3.18c-1.41-.26-2.96-.97-3.45-1.56-1.04-1.25-3.03-1.44-3.03-.29,0,.43.96,1.2,2.13,1.7s2.82,1.66,3.67,2.58c.85.92,2.77,2.29,4.26,3.06,1.49.76,3.75,2.16,5.03,3.1,4.46,3.29,28.06,15.78,32.11,17,1.06.32,2.46.99,3.09,1.49.64.5,2.55,1.38,4.26,1.95,1.7.57,4.84,1.83,6.96,2.78,2.13.95,5.09,2.16,6.58,2.67,3.33,1.16,6.15,2.29,7.92,3.2.74.38,1.89.68,2.55.68s2.31.57,3.66,1.27,4.92,1.87,7.93,2.6c3.01.73,6.16,1.72,6.99,2.18,1.36.76,9.55,3.03,17.76,4.91,1.7.39,5.71,1.03,8.9,1.43,3.19.4,7.54,1.07,9.67,1.51,2.13.43,7,1.16,10.83,1.62,3.83.46,9.23,1.17,11.99,1.58,12.38,1.83,46.23,2.43,60.58,1.07h0Zm-5.26-2.67c-.32-.52-3.4-.84-8-.83-4.11.01-9.05-.09-10.96-.22-14.41-.97-21.13-1.43-25.14-1.72-2.55-.19-9.07-.66-14.47-1.05-5.41-.39-10.47-.91-11.25-1.16-1.59-.51-10.19-1.82-18.38-2.81-15.19-1.84-19.73-2.91-19.73-4.67,0-.97,6.17-.62,14.31.82,9.47,1.67,38.66,4.47,57.64,5.53,7.45.41,19.28,1.17,26.3,1.68l12.77.93v1.92c0,2.02-2.14,3.11-3.09,1.57h0Zm4.63-1.56c-.26-.43.24-.77,1.11-.77s1.59.35,1.59.77-.5.77-1.11.77-1.33-.35-1.59-.77Zm-42.32-8.54c-7.96-.31-15.96-.77-17.79-1.02-1.83-.25-6.63-.66-10.68-.9-11.28-.67-25.98-2.5-34.43-4.27-2.13-.45-5.43-1.13-7.35-1.51-1.91-.39-5.05-1.05-6.96-1.47-1.91-.42-4.53-.98-5.8-1.24-4.28-.87-9.27-2.08-11.22-2.72-1.06-.35-2.89-.85-4.06-1.1-1.17-.26-2.13-.98-2.13-1.61,0-1.56,2.85-1.47,10.83.36,3.62.83,9.54,2.09,13.15,2.8,3.62.71,9.19,1.81,12.38,2.44,3.19.63,8.76,1.47,12.38,1.86,3.62.39,9.01,1.01,11.99,1.38,2.98.37,9.77,1.07,15.09,1.56,5.32.49,12.11,1.22,15.09,1.63,2.98.41,10.9.97,17.6,1.25,11.15.47,12.18.64,12.18,1.95,0,1.16-.55,1.41-2.9,1.31-1.6-.07-9.41-.37-17.37-.68h0Zm167.85,6.54c-.74-.74-2.22.46-1.67,1.35.33.53.76.52,1.31-.04.46-.46.61-1.04.35-1.31h0Zm-295.34-3.42c0-.85-.31-1.55-.69-1.55-.87,0-1.68,2.01-1.06,2.63.93.93,1.75.42,1.75-1.08Zm287.6-.97c-.37-1.1-1.61-.97-2,.19-.14.43.32.77,1.03.77s1.14-.44.97-.97h0Zm-127.41-14.94c.81-.98.82-1.72.04-3.87-.53-1.46-.73-3.38-.45-4.26.66-2.07.7-59.13.04-60.19-.27-.44-.92-.64-1.44-.44-.72.28-.93,7.46-.9,30.36.03,16.5.27,30.36.55,30.81.28.45.12,2.06-.35,3.58-1.31,4.28.23,6.76,2.51,4.01h0Zm-5.84-34.44c0-30.03-.15-34.36-1.16-34.36s-1.17,4.15-1.27,32.28c-.06,17.75-.32,33.13-.58,34.17-.46,1.84.49,2.9,2.23,2.47.5-.13.77-12.29.77-34.56h0Zm10.83.01c0-30.78-.13-34.38-1.23-34.59-1.11-.21-1.21,3.09-1.02,34.42.11,19.06.23,34.77.26,34.91.03.14.49.11,1.02-.06.75-.25.97-7.88.97-34.67h0Zm5.61,26.29c.2-8.19-.58-11.56-2.12-9.22-.42.64-.61,1.59-.42,2.11.19.52.02,3.8-.38,7.29-.52,4.53-.48,6.64.15,7.39,1.89,2.28,2.58.41,2.77-7.57h0Zm5.21,7.32c.9-.9,1.11-1.94.73-3.67-1.04-4.78-3.25-3.78-3.37,1.51-.05,2.04.43,3.42,1.18,3.42.11,0,.77-.57,1.46-1.26h0Zm-54-34.14c-.13-30.88-.25-33.84-1.43-34.07-.73-.14-1.4.32-1.55,1.06-.14.72,0,9.71.3,19.97.64,21.46.69,31.6.18,40.27-.25,4.3-.08,6.32.57,6.72.51.32,1.19.42,1.5.23.31-.19.5-15.57.42-34.17h0Zm5.76,29.53c.27-2.52.41-6.49.31-8.83-.1-2.34-.23-15.32-.3-28.84-.1-21.76-.25-24.64-1.35-25.06-1.39-.53-2.8,1.17-2.02,2.42.28.45.59,15.26.69,32.92.1,17.66.2,32.22.22,32.36.02.14.47.11,1-.06.55-.18,1.18-2.31,1.46-4.9h0Zm5.43,2.14c.15-1.14.16-4.43.01-7.3-.19-3.86-.55-5.22-1.36-5.22-.6,0-1.11.26-1.13.58-.46,6.97-.61,13.7-.3,14.19.76,1.22,2.51-.2,2.78-2.25h0Zm4.88,2.24c.24-.39.4-13.01.34-28.05-.05-15.03-.04-30.03.03-33.33.12-5.57.01-6-1.46-6-1.58,0-1.58.14-1.26,33.46.18,18.4.35,33.72.39,34.04.09.82,1.43.72,1.96-.13h0Zm5.93-12.63c.17-25.18-.13-54.17-.57-54.88-.24-.39-.84-.57-1.33-.41-.66.22-.9,9.26-.9,34.47,0,32.03.08,34.17,1.35,34.17,1.23,0,1.36-1.18,1.44-13.35h0Zm5.77,12.05c-.27-.71-.51-16.2-.52-34.41-.01-18.22-.28-33.28-.59-33.47-2.24-1.38-2.4,1.21-2.1,34.4.16,18.49.33,33.88.37,34.2.04.32.81.58,1.71.58,1.21,0,1.5-.34,1.13-1.29h0Zm37.08-33.2c0-29.69-.15-33.98-1.16-33.98s-1.18,4.29-1.34,33.27c-.1,18.3-.01,33.73.19,34.3s.81.89,1.34.71c.75-.25.97-7.81.97-34.3h0Zm-80.68,20.94c-.12-6.8-.38-21.74-.58-33.19s-.52-20.98-.71-21.18c-.19-.19-.92-.13-1.63.14-.93.36-1.14,1.03-.78,2.48.27,1.09.64,15.8.8,32.68.17,16.88.33,30.98.36,31.33.03.35.66.52,1.41.37,1.23-.24,1.33-1.37,1.13-12.63h0Zm10.28,7.94c.28-2.66.32-11.28.09-19.15-.24-7.87-.43-15.79-.42-17.6,0-3.3-1.15-4.47-1.9-1.93-.33,1.12-.21,25.99.19,39.84.15,5.26,1.44,4.53,2.05-1.16h0Zm76.25-30.09c-.07-21.72-.39-33.8-.91-34.31-1.1-1.08-3.23,1.9-2.46,3.45.32.65.63,15.34.7,32.64.07,17.3.37,31.87.68,32.37,1.78,2.89,2.09-2.44,1.99-34.15h0Zm-225.01,30.6c1.22-1.39,3.76-3.27,5.66-4.19,2.98-1.44,3.33-1.86,2.65-3.15-.44-.82-1.29-1.48-1.9-1.48s-2.3-1.04-3.75-2.32c-1.45-1.28-2.95-2.31-3.31-2.3-.37,0-1.19,1.14-1.83,2.51-.64,1.38-2.33,3.08-3.76,3.79-5.47,2.73-7.99,6.79-4.95,7.95,1,.38,2.27-.52,4.84-3.42,3.95-4.48,7.55-6.71,8.8-5.46.56.56-.44,1.99-3.23,4.65-3.79,3.61-4.7,5.27-3.54,6.44.67.67,1.71-.05,4.32-3.02h0Zm144.03.06c-.05-1.69-.17-16.13-.26-32.09s-.34-29.62-.54-30.37c-.45-1.64-2.26-1.79-2.85-.24-.24.61-.27,2.96-.07,5.22.2,2.26.51,16.81.69,32.34.18,15.53.35,28.35.37,28.49.02.14.65.13,1.4-.02,1.04-.21,1.33-.99,1.27-3.34h0Zm70.06-24.4c-.08-31.22-.03-35.5.48-37.17.43-1.41-1.53-3.38-2.66-2.68-.77.48-.42,42.61.36,43.88.23.36.16,1.07-.14,1.56-.62,1.01-.43,20.73.22,21.77,1.44,2.32,1.81-3.53,1.75-27.36h0Zm16.36,9.92c.1-25.89-.09-33.37-.89-34.18-.39-.4-.91-.52-1.15-.27-.35.35-.75,49.32-.42,51.86.04.32.6.58,1.23.58,1,0,1.17-2.55,1.23-17.99h0Zm5.15-10.7c.19-27.29-.17-32.34-2.05-29.41-.53.82-.68,56.49-.16,57.97.05.14.53.11,1.06-.06.75-.25,1.01-6.78,1.16-28.5h0Zm5.88,19.09c-.31-4.3-.5-8.51-.44-9.36.07-.85.14-10.43.16-21.28.04-22.31-.43-29.4-1.96-29.4-.83,0-.97,6.31-.78,33.96.13,18.68.49,34.36.79,34.85.41.67.83.66,1.67-.04.91-.76,1.02-2.37.56-8.74h0Zm-114.29,7.89c.46-.75.36-30.66-.14-43.56-.07-1.7-.17-7.56-.23-13.02-.1-9-.23-9.9-1.46-9.66-1.09.21-1.33,1-1.24,4.12.06,2.12.29,17.09.5,33.26.21,16.17.42,29.49.46,29.59.24.55,1.61.08,2.11-.73Zm5.52-1.97c-.19-1.6-.04-3.61.35-4.47.44-.98.39-2.38-.12-3.72-1.26-3.31-2.61-1.7-2.19,2.61.2,2.03.06,4.22-.3,4.86-.86,1.53-.02,3.62,1.45,3.62.89,0,1.08-.68.81-2.9h0Zm-10.8-1.22c.25-2.93-.4-3.54-2.02-1.91-1.01,1.01-1.25,3.91-.4,4.76,1.13,1.13,2.19-.12,2.42-2.85h0Zm124.99-5.56c-.06-4.67-.18-19.9-.27-33.84-.15-23.02-.28-25.34-1.45-25.34s-1.27,1.87-1.12,20.69c.09,11.38.21,26.72.26,34.09.09,12.06.23,13.37,1.39,13.14,1.12-.22,1.28-1.37,1.19-8.75h0Zm5.2-14.71c-.01-18.08-.2-21.72-1.17-22.69-1.85-1.85-2.38.79-1.31,6.59.5,2.73.69,5.33.42,5.78-.68,1.09-.6,31.32.08,32.43,1.57,2.53,1.99-2.23,1.98-22.1h0Zm5.41,21.88c.06-1.04-.11-30.76-.32-53.95-.11-12.47-.29-14.33-1.38-14.54-1.13-.22-1.23,2.9-1.06,34.42.1,19.06.23,34.74.28,34.85.31.68,2.42.02,2.47-.77h0Zm-146.33-1.25c.43-.8.54-1.68.24-1.98-.29-.29-.45-5.19-.35-10.88.12-7.03-.1-10.52-.69-10.89-1.77-1.09-2.19,1.86-1.91,13.2.16,6.38.32,11.69.36,11.8.29.71,1.7-.05,2.34-1.25h0Zm5.47-1.52c0-3.43-.59-4.34-2.06-3.12-1.08.89-1.43,4.67-.52,5.57,1.43,1.43,2.58.34,2.58-2.45h0Zm-10.5-1.15c-.75-1.94-2.65-1.58-2.65.51,0,.99.24,2.05.53,2.34.9.9,2.65-1.46,2.12-2.85h0Zm-5.62-1.38c.07-1.66.16-3.62.19-4.36.04-.74-.5-1.45-1.2-1.59-.99-.19-1.37.66-1.79,4.04-.59,4.68-.2,6.02,1.53,5.35.69-.27,1.19-1.61,1.26-3.45h0Zm162.48,1.82c.08-1.17.1-2.82.05-3.67-1.07-19.26-1-20.5,1.02-20.5.63,0,1.11.75,1.12,1.74,0,.96.35,2.26.77,2.9,1.18,1.8,2.29-.43,2.29-4.64s-1-6.25-2.42-4.83c-2.71,2.71-2.94,1.42-3.15-17.8-.18-16.07-.37-18.76-1.37-18.76-1.2,0-1.27,4.45-.8,48.01.07,6.83-.09,13.33-.37,14.43-.52,2.09.67,5.25,1.97,5.25.41,0,.81-.96.88-2.13h0Zm5.18-7.11c0-6.53-.24-8.52-1.09-8.85-1.55-.59-1.63-.19-1.78,8.33-.13,7.26.61,10.34,2.23,9.34.35-.22.64-4.19.64-8.82h0Zm5.25-12.09c.09-16.17-.13-21.8-.89-23.27-.55-1.07-1.17-1.65-1.36-1.3-.27.49-.15,42.66.13,45.32.03.32.5.58,1.04.58.76,0,1-4.75,1.09-21.33h0Zm-288.58,18.3c1.57-2.48,7.88-7.78,9.27-7.79.48,0,1.34-.57,1.91-1.26.89-1.07.78-1.46-.76-2.71-2.15-1.74-3.95-1.89-3.95-.33,0,.62-.77,1.55-1.72,2.05-2.47,1.32-9.88,8.48-9.88,9.54,0,1.17,1.6,2.75,2.79,2.75.51,0,1.57-1.01,2.36-2.26h0Zm294.18-10.44c.03-8.86-.2-11.32-1.1-12.07-2.01-1.67-2.24,1.18-1.21,15.09.03.43-.16,2.08-.41,3.69-.47,2.88.71,5.63,2.06,4.8.35-.22.65-5.4.67-11.52h0Zm-184.45,8.64c.25-1.38.3-6.52.1-11.41-.19-4.89-.38-13.86-.42-19.92-.05-8.88-.28-11.02-1.14-11.02-.59,0-1.2.44-1.35.97-.15.53-.18,10.63-.06,22.44.18,17.96.4,21.47,1.32,21.47.63,0,1.3-1.07,1.56-2.51h0Zm113.66.48c.6-1.57.63-56.63.03-57.6-.24-.39-.94-.71-1.55-.71-1.35,0-1.56,9.05-.35,15.43.48,2.51.49,4.55.05,5.38-.4.74-.48,3.23-.19,5.54.29,2.31.33,10.29.09,17.74s-.29,13.97-.11,14.51c.46,1.35,1.46,1.21,2.03-.3h0Zm76.14-.54c.14-.75-.24-1.29-.92-1.29-1.44,0-2.3,1.26-1.62,2.36.7,1.13,2.24.48,2.55-1.07h0Zm-200.92-7.69c.12-4.67-.13-7.85-.65-8.38-.52-.52-1.02-.56-1.3-.1-.69,1.12-.8,15.28-.13,16.37,1.22,1.97,1.9-.6,2.09-7.89h0Zm5.77,1.15c-.3-13.01-2.58-12.35-2.73.79-.07,6.19.05,6.77,1.41,6.77s1.48-.55,1.32-7.56h0Zm32.79,3.5c-.04-2.23-.05-11.89-.03-21.47.02-9.57-.19-21.15-.46-25.72-.46-7.54-.65-8.32-2-8.32s-1.46.4-1.02,4.84c.26,2.66.6,15.69.75,28.95.15,13.26.5,24.49.79,24.95,1.2,1.94,2.05.57,1.98-3.22h0Zm-43.98-6.39c-.23-7.78-.87-10.83-1.89-9.15-.36.6-.86,13.53-.65,16.76.06.9.58,1.32,1.45,1.15,1.21-.23,1.32-1.17,1.09-8.76Zm-98.36,3.86c2.71-2.35,6.25-4.67,7.87-5.15,1.62-.48,2.94-1.35,2.94-1.92s-1.75-2.3-3.89-3.83-4.24-3.45-4.67-4.25c-.43-.8-1.27-1.46-1.87-1.46-1.02,0-8.17-6.14-17.12-14.72-2.17-2.08-4.87-4.2-6-4.72-1.12-.51-2.04-1.3-2.04-1.75,0-1.18-9.43-10.53-10.62-10.53-.54,0-.99-.46-.99-1.03s-2.09-3.03-4.64-5.49-4.64-4.81-4.64-5.24-.74-1.82-1.64-3.08c-.9-1.27-2.61-4.28-3.79-6.7-1.18-2.41-2.94-5.22-3.9-6.23-1.61-1.69-1.83-1.74-2.7-.54-.89,1.22-6.02,3.49-11.75,5.19-1.72.51-2.51,1.22-2.51,2.26,0,1.56,2.12,2.09,3.52.87,1.19-1.03,6.68-2.5,10.02-2.68,2.63-.14,3.09.07,3.09,1.37,0,1.15-.68,1.65-2.71,1.99-3.44.58-9.23,3.55-9.79,5.02-.24.62-1.35,1.14-2.48,1.16-3,.04-10.56,4.77-10.56,6.6,0,3.02,3.14,2.15,8.42-2.33,2.79-2.37,5.57-4.3,6.19-4.3s2.74-.7,4.73-1.55c4.44-1.9,10.44-2.11,10.44-.36,0,.65-.61,1.37-1.35,1.6-.74.23-1.96.74-2.7,1.14-.74.39-1.81.72-2.38.72-1.67,0-7.54,3.21-12.73,6.96-3.93,2.84-4.78,3.84-4.62,5.42.34,3.39,3.06,2.87,7.49-1.42,5.39-5.22,15.41-10,19.05-9.09,2.88.72,1.97,2.19-2.25,3.61-3.94,1.32-8.24,4.14-8.24,5.39,0,1.8,2.33,1.38,6.58-1.18,5.04-3.03,9.98-3.78,9.53-1.43-.24,1.27-3.56,3.6-10.69,7.53-3.66,2.01-9.28,7.01-9.28,8.24,0,2.08,6.76-1.79,11.05-6.32.76-.8,1.88-1.46,2.49-1.46s2.95-.83,5.19-1.84c7.14-3.22,7.52-3.24,8.07-.47.27,1.34,1.13,2.84,1.93,3.34.79.49,1.44,1.28,1.44,1.74s-2.87,2.71-6.37,5c-10.96,7.14-15.25,12.08-11.68,13.45.9.34,2.35-.64,4.84-3.28,1.95-2.07,5.12-4.81,7.03-6.07,9.97-6.59,18.72-7.65,10.01-1.21-1.89,1.4-5.79,4.35-8.68,6.58-2.89,2.22-6.01,4.61-6.94,5.3-1.44,1.08-1.54,1.45-.65,2.51,1.69,2.03,3.44,1.45,6.43-2.12,3.1-3.71,13.45-10.56,15.95-10.56,3.28,0,2.74,2.12-1.03,4.09-2.85,1.49-11.42,9.58-12.68,11.98-.92,1.74-.6,3.27.67,3.27.36,0,3.33-2.64,6.58-5.86,5.78-5.72,9.5-8.06,12.82-8.06,2.52,0,1.45,1.61-3.2,4.8-4.88,3.36-10.73,9.69-10.75,11.64-.03,2.56,3.53,1.59,6.38-1.73,4.2-4.91,12.23-10.25,14.3-9.51,1.9.68.91,2.57-2.43,4.66-4.53,2.84-10.4,8.34-10.69,10.01-.46,2.65,2.2,1.77,6.13-2.02,4.04-3.9,8.12-6.38,12.01-7.31,1.77-.42,2.13-.26,2.13.99,0,1.05-1.31,2.16-4.33,3.69-7.43,3.75-11.95,10.3-7.54,10.93,1.17.17,2.48-.78,4.54-3.3,3.37-4.12,12.49-9.06,13.55-7.35.87,1.4.1,2.91-1.8,3.51-2.45.78-9.83,8.07-9.83,9.71,0,2.55,2.66,1.57,7.75-2.83h0Zm92.88-8.54c.12-21.74.15-21.24-1.11-21.24-1.6,0-2.3,2.67-1.59,6.06.32,1.56.5,3.18.39,3.61-.71,2.79-.62,22.54.11,23.42,1.68,2.02,2.14-.47,2.2-11.85h0Zm-5.72-21.05c-.13-30.06-.23-32.3-1.49-32.54-1.21-.23-1.35.47-1.35,6.42,0,3.68.37,7.37.81,8.2.63,1.18.49,1.93-.62,3.34-1.25,1.59-1.61,1.69-2.86.78-.79-.57-1.71-.87-2.04-.66-.99.61-.62,9.73.37,9.38.47-.17.76-1.18.65-2.24-.11-1.07.36-2.41,1.04-2.98,2.26-1.88,3.02,1.18,3.18,12.82.26,19.04.26,20.82.03,24.76-.22,3.81.56,6.16,1.79,5.4.35-.21.57-14.92.49-32.67h0Zm38.93,31.25c0-4.08-1.03-11.33-1.62-11.33-.34,0-.61,2.08-.6,4.61.01,2.54-.18,4.94-.43,5.35-.68,1.1.35,3.19,1.57,3.19.62,0,1.08-.78,1.08-1.82h0Zm183.64-8.48c-.46-10.46-.86-12.92-1.87-11.32-.8,1.27-1.01,20.32-.22,21.1.28.28.95.14,1.49-.31.73-.61.88-3.04.6-9.47h0Zm10.41,8.11c.16-1.12-.16-1.68-.97-1.68s-1.21.7-1.21,2c0,2.42,1.82,2.16,2.18-.32h0Zm-238.5-5.83c.03-6.26-.64-8.69-1.87-6.78-.74,1.15-1.04,11.57-.37,12.66.23.37.82.54,1.31.37.57-.19.91-2.46.93-6.26h0Zm243.88,4.3c.17-.51-.24-.92-.92-.92s-1.22.55-1.22,1.22c0,1.37,1.67,1.13,2.14-.31h0Zm-249.1-3.19c.13-1.82.04-3.84-.2-4.48-.76-1.98-2.75.42-2.75,3.3,0,5.74,2.54,6.75,2.95,1.17h0Zm227.84-1.43c-.57-4.22-1.87-3.87-2.2.6-.3,4.03.21,5.2,1.63,3.76.7-.71.88-2.11.58-4.36h0Zm10.17,3.65c-.66-1.07-1.13-.87-1.13.49,0,.66.35.99.79.72.43-.27.59-.81.34-1.21h0Zm-161.41-1.84c.31-2.64-.43-5.84-1.35-5.84-1.16,0-1.63,2.32-1.12,5.51.55,3.45,2.08,3.66,2.47.34h0Zm-16.11-4.3c0-5.16-1.02-7.52-2.34-5.39-.58.93-.25,8.37.46,10.66.8,2.56,1.88-.46,1.88-5.27h0Zm193.88,4.2c.28-1.11.12-2.37-.36-2.85-.97-.97-1.44-.71-1.68.97-.55,3.89,1.14,5.45,2.04,1.88h0Zm-260.11,0c.7-1.81.55-5.96-.26-7.24-.6-.95-.89-.95-2-.04-.99.82-1.18,1.79-.8,4.13.72,4.48,2.03,5.83,3.06,3.14h0Zm49.38-17.42c.05-9.53.01-21.25-.09-26.04-.17-8.02-.31-8.7-1.68-8.7s-2.02,1.52-1.45,3.48c.39,1.37.67,12.69.75,30.9.04,9.76.27,18.06.51,18.44,1.36,2.2,1.88-2.6,1.97-18.08h0Zm103.49-4.76c-.01-20.87-.48-25.81-2.19-23.16-.72,1.12-1.13,41.48-.44,43.66.24.74.93,1.35,1.54,1.35.94,0,1.11-3.4,1.1-21.86h0Zm96.72,20.69c0-.64-.52-1.16-1.16-1.16s-1.16.52-1.16,1.16.52,1.16,1.16,1.16,1.16-.52,1.16-1.16Zm-263.81-.77c0-.64-.35-1.16-.77-1.16s-.77-1.18-.77-2.61c0-3-1.83-5.2-2.62-3.15-.8,2.09-.54,4.17.77,6.17,1.38,2.11,3.39,2.55,3.39.75h0Zm3.49.37c.65-1.05-.33-5.4-1.22-5.4s-1.79,3.55-1.22,5.03c.51,1.34,1.73,1.52,2.44.37h0Zm5.4-2.7c0-3.34-2.24-3.11-2.57.27-.21,2.15-.01,2.54,1.16,2.31.99-.19,1.41-.96,1.41-2.58h0Zm119.98.83c.49-1.96-.04-3.53-1.21-3.53-.97,0-1.67,2.65-1.1,4.15.71,1.84,1.77,1.56,2.31-.62h0Zm129.59-5.65c-.03-4.15.04-8.58.14-9.84.13-1.61-.19-2.38-1.08-2.55-1.13-.23-1.24.71-.99,8.49.16,4.81.29,9.35.3,10.1.01.74.39,1.35.84,1.35.53,0,.81-2.69.78-7.54h0Zm-270.83,5.65c0-.61-.32-1.32-.72-1.56-.92-.57-1.84.88-1.21,1.9.71,1.15,1.93.94,1.93-.34h0Zm4.64-1.98c0-.85-.33-1.55-.73-1.55-1.04,0-1.77,1.41-1.21,2.32.81,1.31,1.93.86,1.93-.77h0Zm276.97-1.84c0-1.01-.51-2.26-1.13-2.78-.93-.77-1.22-.59-1.62,1.02-.57,2.26.04,3.59,1.63,3.59.66,0,1.11-.75,1.11-1.84h0Zm-249.38-4.21c.12-4.28-.64-6.46-1.83-5.27-.67.67-1.09,6.84-.61,8.86.83,3.46,2.3,1.29,2.44-3.59Zm-31.24,3.25c2.1-.74,1.13-2.19-1.64-2.47-1.98-.2-2.45.04-2.45,1.23,0,1.79.78,2.67,1.89,2.13.45-.22,1.45-.62,2.21-.89Zm108.86-1.89c0-.77-.3-1.59-.66-1.82-.36-.23-.54-2.89-.4-5.93.19-3.92-.06-5.99-.86-7.12-1.01-1.44-1.17-1.47-1.62-.29-.67,1.74-.06,16.09.73,17.37.83,1.33,2.81-.23,2.81-2.21h0Zm31.55-9.56c-.18-7.01-.43-8.57-1.38-8.57s-1.16,1.5-1.16,8.9c0,4.89.3,9.59.66,10.44,1.27,3.01,2.11-1.78,1.88-10.77h0Zm145.24,7.54c-.56-2.14-.59-2.15-1.36-.49-.98,2.11-.16,4.76,1.08,3.52.51-.51.62-1.71.27-3.03h0Zm-263.44,1.64c0-.19-.35-.34-.77-.34s-.77.37-.77.82.35.6.77.34c.43-.26.77-.63.77-.82Zm237.38-1.79c.34-2.37-1.19-4.03-2.21-2.41-.4.63-.73,1.96-.74,2.95-.02,2.43,2.6,1.95,2.95-.54h0Zm64.98-.39c.32-2.82-.91-4.19-2.54-2.83-1.23,1.02-1.62,3.99-.65,4.95,1.17,1.17,2.95-.01,3.19-2.13h0Zm-260.41-.55c.19-1.32.22-6.1.07-10.64-.31-9.22-.31-11.32.03-19.08.35-7.84-.2-11.35-1.73-11.05-1.11.21-1.22,2.39-1.02,20.34.12,11.06.4,20.71.62,21.46.63,2.11,1.64,1.59,2.02-1.04h0Zm-81.79-.32c0-.78-.44-1.56-.97-1.74-.61-.2-.97.43-.97,1.74s.35,1.94.97,1.74c.53-.18.97-.96.97-1.74Zm5.38,1.23c.66-1.07-1-4.87-1.89-4.32-.87.54-1.05,3.72-.26,4.51.72.72,1.64.64,2.15-.19h0Zm15.9-1.18c0-1.04-.37-2.12-.83-2.4-1.19-.74-1.41-.24-.95,2.16.51,2.63,1.78,2.81,1.78.24h0Zm5.42-.39c0-1.25-.35-2.49-.77-2.75-.46-.28-.77.64-.77,2.28,0,1.51.35,2.75.77,2.75s.77-1.02.77-2.28Zm49.3-8.14c.17-6.54-.03-9.76-.63-10.13-1.69-1.04-2.31,1.58-1.75,7.39.31,3.19.48,7.13.4,8.74-.16,2.99.43,4.89,1.28,4.05.26-.26.58-4.78.71-10.05h0Zm22.07-5.9c-.11-8.69-.19-17.1-.19-18.69,0-2.06-.33-2.9-1.16-2.9-.64,0-1.19.26-1.22.58-.36,3.48.12,34.53.56,36.02.22.77.81,1.26,1.31,1.09.66-.22.85-4.61.71-16.1h0Zm-87.17,12.84c.62-3.3,0-5.16-1.51-4.57-1.53.59-2.26,2.71-1.27,3.69.44.44.8,1.43.8,2.19,0,2.45,1.46,1.49,1.98-1.31h0Zm21.97.85c.73-1.91-.45-7.43-1.59-7.43-1.23,0-2.31,5.15-1.52,7.24.97,2.54,2.18,2.62,3.11.19h0Zm4.57-6.64c.03-7.31-.6-9.75-1.94-7.57-.76,1.23-1.08,6.88-.45,7.91.26.42.38,2.07.26,3.67-.12,1.6.01,3.27.29,3.71,1.21,1.96,1.81-.56,1.84-7.71h0Zm71.2-9.31c-.02-9.33.16-17.28.4-17.67.6-.96-1.6-2.69-2.62-2.06-.74.45-.71,4.37.12,20.9.06,1.28.04,3.37-.06,4.64-.1,1.28.07,4.49.36,7.14,1.05,9.41,1.84,3.77,1.8-12.95h0Zm184.21,15.53c0-1.25-.32-2.47-.72-2.72-.94-.58-1.77,2.1-1.15,3.72.78,2.04,1.87,1.46,1.87-1.01Zm61.63-3.69c.14-2.04.42-9.92.62-17.5.29-10.67.16-13.72-.58-13.47-.56.19-1.02,2.03-1.12,4.51-.21,5-.51,8.83-1.69,21.44-.49,5.23-.66,9.88-.39,10.33.99,1.61,2.9-1.6,3.15-5.3h0Zm-283.8,1.99c-.14-1.01-.6-1.83-1.02-1.83-.96,0-1.45,2.4-.82,4.04.7,1.82,2.17.06,1.85-2.21h0Zm33.39.88c0-1.91-1.43-2.76-2.02-1.21-.61,1.59.25,3.76,1.24,3.15.43-.26.78-1.14.78-1.94h0Zm194.03-3.67c-.27-5.22-1.67-5.96-2.02-1.07-.27,3.78.17,5.52,1.42,5.52.53,0,.75-1.63.6-4.45h0Zm-309.01-3.43c.32-3.46.22-5.85-.28-6.34-1.89-1.89-3.04,2.33-2.09,7.64.23,1.28.44,2.76.47,3.29.03.53.35.97.72.97s.89-2.5,1.18-5.55h0Zm288.01-1.29c.35-6.26-.46-8.52-2.02-5.61-1.11,2.07-1.03,9.03.13,10.88.52.83,1.07,1.37,1.24,1.2.17-.17.46-3.08.65-6.47Zm26.57,2.93c0-2.19-.33-3.05-1.16-3.05-1.2,0-1.61,3.35-.69,5.73.79,2.06,1.85.53,1.85-2.69Zm-303.55,1.21c.24-.64.22-1.74-.05-2.46-.46-1.19-.6-1.19-1.74-.06-1.28,1.28-.94,3.68.52,3.68.45,0,1.02-.52,1.27-1.16h0Zm15.75.39c0-.43-.35-.77-.77-.77s-.77.35-.77.77.35.77.77.77.77-.35.77-.77Zm266.17-3.29c.14-10.05-.11-11.64-1.64-10.11-.81.81-.91,3.07-.42,9.53.35,4.6.36,4.64,1.24,4.64.42,0,.79-1.83.82-4.06h0Zm52.96,2.14c0-1.7-1.72-2.33-3.4-1.25-1.65,1.06-.41,3.33,1.66,3.03,1.14-.16,1.74-.78,1.74-1.78h0Zm90.91.33c0-.4-.7-.73-1.55-.73-1.71,0-2.11,1.22-.58,1.77,1.17.42,2.13-.05,2.13-1.04Zm-371.73-.77c.44-1.4-1.3-5.38-2.35-5.38-.2,0-.37,1.57-.37,3.48,0,3.73,1.75,4.95,2.72,1.9h0Zm49.86-1.9c0-.85-.34-2.07-.76-2.71-.63-.96-.88-.98-1.44-.11-.63.97-.51,2.63.4,5.5.32,1,.45,1,1.08,0,.4-.63.72-1.84.72-2.69h0Zm156.68,1.97c.26-.83.46-3.36.43-5.61-.03-2.25-.06-9.45-.06-16,0-6.55-.18-12.19-.4-12.54-.22-.35-.88-.45-1.49-.21-.9.34-1.09,3.38-1.09,16.79,0,9.01.18,16.98.4,17.73.52,1.8,1.61,1.72,2.21-.16h0Zm10.6-4.45c-.18-4.28-.52-5.53-1.3-4.75-.65.65-1.18,7.89-.69,9.42.9,2.83,2.19-.18,2-4.67h0Zm21.51,2.09c0-2.52-1.32-3.82-2.02-1.98-.64,1.65.34,5.25,1.27,4.68.41-.26.75-1.47.75-2.69h0Zm-309.46.73c0-.4-.52-.73-1.16-.73-1.2,0-1.54.91-.67,1.78.62.62,1.83-.08,1.83-1.06h0Zm65.37-2.34c0-2.52-.3-3.42-1.16-3.42-1.23,0-2.03,4.19-1.21,6.33.89,2.32,2.38.5,2.38-2.91h0Zm260.95,1.92c.13-.88-.28-2.03-.91-2.56-.93-.77-1.3-.66-1.97.59-.45.85-.61,2.11-.34,2.8.66,1.73,2.94,1.14,3.23-.83Zm-329.8.46c.59-.95-1.54-1.88-2.69-1.17-.45.28-.62.83-.38,1.23.59.96,2.46.92,3.06-.06h0Zm46.8-1.54c0-.8-.35-1.67-.77-1.93-.45-.28-.77.52-.77,1.93s.32,2.21.77,1.93c.43-.26.77-1.13.77-1.93Zm15.83-1.64c-.78-2.46-2.22-.48-1.56,2.15.48,1.9.64,2.01,1.31.81.42-.75.53-2.08.25-2.97h0Zm27.73,2.22c.31-1.34.2-12-.19-18.72-.03-.45-.33-.45-.8.02-.65.65-1.21,11.97-.9,18.32.12,2.56,1.33,2.81,1.88.39h0Zm-48.97-.97c0-.64-.35-1.16-.77-1.16s-.77.52-.77,1.16.35,1.16.77,1.16.77-.52.77-1.16Zm-10.44-2.39c0-1.48-.4-2.26-1.15-2.26-1.27,0-1.94,2.15-1.24,3.98.73,1.92,2.39.72,2.39-1.72Zm277.2-.63c-.13-.88-.84-1.72-1.58-1.87-1.04-.2-1.35.27-1.35,1.99,0,1.24.23,2.48.51,2.76.89.89,2.67-1.22,2.43-2.88Zm53.15,1.47c0-.78-.44-1.56-.97-1.74-.61-.2-.97.43-.97,1.74s.35,1.94.97,1.74c.53-.18.97-.96.97-1.74Zm-418.16-4.29c2.77-2.57,5.87-5.09,6.91-5.61,1.03-.52,2.02-1.37,2.19-1.9.58-1.77-2.49-1-6.15,1.55-1.99,1.38-5.37,3.73-7.52,5.22-4.17,2.89-5.19,5.42-2.2,5.42,1.06,0,3.72-1.83,6.77-4.67h0Zm54.79,2.87c.17-.87-.27-1.29-1.35-1.29-.88,0-1.6.46-1.6,1.03,0,2.37,2.51,2.59,2.96.26Zm53.91-1.93c0-4.53-1.5-4.41-1.79.14-.18,2.83.01,3.67.77,3.42.62-.21,1.01-1.59,1.01-3.56h0Zm-16.25-1.43l-.59-2.96-.66,2.32c-.79,2.8-.14,5.57,1.04,4.39.48-.48.56-1.95.21-3.75h0Zm109.38-8.23c.07-5.03-.06-9.45-.3-9.83-.23-.38-.95-.49-1.58-.24-.95.37-1.13,2.11-1.01,9.83.15,9.53,1.08,14.08,2.22,10.9.3-.84.6-5.63.67-10.66h0Zm16.41,5.66c.42-9.98.03-14.7-1.22-14.7-1.35,0-1.26-.63-1.34,9.48-.06,8.02.59,12.11,1.73,10.91.34-.36.72-2.92.83-5.69h0Zm162.4,3.09c0-1.28-.32-2.32-.72-2.32-.94,0-1.84,2.85-1.22,3.86.95,1.53,1.94.74,1.94-1.54Zm64.17,1.59c.93-.59.95-1.06.14-2.85-.78-1.71-1.12-1.92-1.68-1.02-.86,1.35-.96,4.61-.15,4.59.32,0,1.08-.33,1.7-.72Zm-347.08-1.67c.48-1.85-.08-3.79-1.1-3.79-.38,0-.69,1.22-.69,2.71,0,2.97,1.12,3.65,1.79,1.09h0Zm82.53-10.03c0-9.07-.18-10.79-1.16-10.79-.64,0-1.19.44-1.23.97-.24,3.11.22,20.31.56,20.85,1.25,2.03,1.84-1.47,1.84-11.03h0Zm-76.59,4.64c0-2.53-.3-4.6-.67-4.6-.93,0-1.78,5.79-1.19,8.13.82,3.27,1.86,1.29,1.86-3.54h0Zm10.98-.53c.33-6.24.03-7.93-1.41-7.93-.87,0-1.02,1.27-.76,6.38.37,7.34.27,6.77,1.19,6.77.39,0,.83-2.35.99-5.22h0Zm260.57,2.9c0-1.91-1.43-2.76-2.02-1.21-.61,1.59.25,3.76,1.24,3.15.43-.26.78-1.14.78-1.94h0Zm-249.89-1.21c0-2.08-1.34-2.56-2.04-.73-.59,1.55.28,3.7,1.26,3.1.43-.26.78-1.33.78-2.37Zm271.16,1.21c.53-1.66-.03-3.1-1.2-3.1-.4,0-.73,1.04-.73,2.32,0,2.63,1.19,3.11,1.93.78h0Zm27.67.07c.57-2.16-.26-5.6-1.27-5.27-.98.32-1.6,3.97-.95,5.65.6,1.55,1.77,1.36,2.22-.38Zm-388.57-.53c0-1.37-1.67-1.13-2.14.31-.17.51.24.92.92.92s1.22-.55,1.22-1.22Zm30.69.01c.64-1.68-.99-3.26-2.16-2.09-.99.99-.38,3.3.88,3.3.45,0,1.03-.55,1.29-1.21h0Zm53.79-1.94c.69-3.2.3-4.58-1.28-4.58-.91,0-1.18.92-1.18,3.93,0,4.56,1.53,4.96,2.47.65Zm22.29.83c0-2.67-1.93-3.23-2.71-.78-.58,1.84.06,3.1,1.59,3.1.72,0,1.11-.82,1.11-2.32h0Zm92.31-4.75c0-6.98-.58-9.16-2.04-7.69-.51.51-.76,3.35-.63,7.2.23,6.71.51,7.82,1.84,7.37.5-.17.83-2.89.83-6.88Zm86.79-3.05c0-8.02-.19-9.61-1.16-9.61s-1.19,1.58-1.34,8.9c-.19,9.56.03,11.14,1.54,10.64.7-.23.97-2.93.97-9.93h0Zm26.93,7.61c.22-1.38.44-6.78.49-11.99.08-8.92,0-9.48-1.44-9.48s-1.53.66-1.76,9.48c-.22,8.63.51,14.51,1.8,14.51.27,0,.68-1.13.91-2.51h0Zm-294.55-1.15c-.85-.85-1.42.5-.82,1.9.58,1.33.62,1.32.94-.03.18-.78.13-1.62-.12-1.87h0Zm6.51.53c0-.83-.35-1.5-.77-1.5s-.77.89-.77,1.98.33,1.77.77,1.5c.43-.26.77-1.15.77-1.98Zm303.83,1.01c.33-.74.43-6.75.22-13.35-.54-16.61-1.89-15.74-2.1,1.35-.16,12.55.31,15.51,1.88,11.99h0Zm81.89-14.76c.34-11.19.23-13.16-.77-13.54-.64-.25-1.42-.03-1.73.48-.7,1.13-1.25,24.22-.64,26.7.39,1.57.57,1.64,1.59.62.9-.9,1.24-4.06,1.55-14.25h0Zm-459.28,11.32c2.31-3.14,3.12-6.04,1.7-6.04-1.56,0-6.97,5.13-7.01,6.64-.09,3.77,2.29,3.5,5.31-.6h0Zm313.23-5.44c-.18-5.07-.47-6.4-1.39-6.4-1.53,0-2.12,12.3-.67,14.05,1.61,1.94,2.3-.63,2.06-7.65h0Zm90.68,7.87c0-.45-.35-.6-.77-.34-.43.26-.77.63-.77.82s.35.34.77.34.77-.37.77-.82Zm28.38-2.63c-.15-.44-.85-.92-1.56-1.06-.92-.18-1.29.29-1.29,1.61,0,1.02.25,2.11.56,2.42.69.69,2.66-1.87,2.29-2.98h0Zm-65.12,1.32c-.75-1.86-.47-13.46.39-16.48.78-2.72-.25-5.68-1.81-5.16-1.03.35-1.47,10.25-.81,18.16.3,3.64.69,4.84,1.58,4.84.82,0,1.01-.42.63-1.35h0Zm-322.49-4.9c.94-2.73,2.07-5.57,2.53-6.31,1.33-2.16,1.01-4.46-.62-4.46-1.02,0-1.82,1.07-2.75,3.67-.72,2.02-1.95,5.09-2.73,6.82-1.02,2.24-1.21,3.53-.67,4.49,1.24,2.22,2.44,1.03,4.24-4.21h0Zm40.19,2.05c-.27-1.09-.82-1.99-1.21-1.99-1.22,0-1.76,3.11-.75,4.33,1.34,1.62,2.58.15,1.96-2.33h0Zm287.33-3.09c-.02-1.74.11-5.66.31-8.72.27-4.24.09-5.78-.77-6.49-.62-.51-1.32-.73-1.57-.49-.6.6-.37,19.56.25,21.18.73,1.91,1.84-1.49,1.78-5.48h0Zm10.83,4.19c0-2.28-.99-3.07-1.94-1.54-.62,1.01.28,3.86,1.22,3.86.4,0,.72-1.04.72-2.32h0Zm32.49.8c0-1.04-.37-1.38-1.16-1.08-1.24.48-1.48,1.25-.64,2.08.98.98,1.81.51,1.81-1.01h0Zm-292.59-2.47c.13-1.07-.3-2.39-.96-2.93-1-.83-1.3-.7-1.88.84-.79,2.09.27,4.8,1.69,4.33.5-.17,1.02-1.17,1.15-2.24h0Zm42.99-2.23c-.15-5.9-1.7-5.86-1.73.04-.02,3.34.25,4.65.9,4.43.59-.2.89-1.84.82-4.47h0Zm299.12,3.52c0-.64-.31-1.16-.69-1.16s-.89.52-1.14,1.16c-.27.71,0,1.16.69,1.16.62,0,1.14-.52,1.14-1.16Zm-70.95-1.73c.5-2.6-.78-5.37-1.94-4.21-.9.9-.14,6.33.89,6.33.36,0,.83-.95,1.05-2.12Zm145.61-6.01c.85-1.35,2.53-3.64,3.73-5.1,5-6.06,6.77-8.83,6.56-10.27-.35-2.35-2.06-2.41-2.93-.11-.43,1.13-1.82,3.57-3.1,5.42-1.27,1.85-2.32,3.73-2.32,4.16s-1.48,2.29-3.29,4.12c-4.75,4.8-7.55,8.48-7.06,9.27.55.9,6.42-4.34,8.42-7.5h0Zm-362.6,4.78c.17-1.44-.11-2.07-.92-2.07-1.57,0-2.05.94-1.51,2.99.59,2.27,2.12,1.68,2.43-.92Zm-76.46-.48c0-1.25-.34-2.48-.75-2.74-.9-.56-1.93,3.03-1.21,4.2.96,1.55,1.96.81,1.96-1.46h0Zm299.22-1.58c-.12-.65-.57-1.12-.99-1.04-1.32.23-2.19,2.31-1.6,3.82.55,1.42.6,1.41,1.69-.07.62-.84,1.03-2.06.9-2.71h0Zm10.24,1.53c0-.8-.35-1.67-.78-1.94-.99-.61-1.85,1.56-1.24,3.15.59,1.55,2.02.7,2.02-1.21Zm67-2.18c-.67-1.3-1.58-2.58-2-2.85-1.06-.65-1.01,3.93.07,5.94.75,1.41.98,1.46,2,.43,1.02-1.02,1.02-1.42-.07-3.52h0Zm-158.44-1.17c.21-3.98.09-4.39-1.35-4.39s-1.59.48-1.59,4.13c0,2.27.24,4.37.53,4.66,1.3,1.3,2.19-.34,2.41-4.4h0Zm-280.46-1.55c3.06-8.87,3.49-10.58,2.76-11.03-1.55-.96-2.94.52-4.06,4.29-.64,2.15-1.7,4.69-2.36,5.63-1.58,2.25-1.52,4.21.15,5.14,1.71.96,1.85.79,3.51-4.03h0Zm18.93,3.93c-.37-1.1-1.61-.97-2,.19-.14.43.32.77,1.03.77s1.14-.44.97-.97h0Zm54.34-2.32c0-.74-.51-1.35-1.15-1.35-1.23,0-1.49,1.35-.67,3.48.39,1.03.63,1.08,1.15.26.36-.57.66-1.64.67-2.39h0Zm244.48-3.74c0-5.28-.24-6.95-.97-6.71-1.14.37-2.07,10.94-1.12,12.63,1.44,2.56,2.09.7,2.09-5.93h0Zm-249.89,5.09c0-.64-.52-1.16-1.16-1.16-1.21,0-1.53.91-.64,1.81s1.81.56,1.81-.64h0Zm325.2-.8c-.61-1.6-1.04-1.41-1.04.46,0,.88.33,1.39.74,1.14.41-.25.54-.97.3-1.59Zm-270.73-.08c.62-1.62-.21-4.31-1.15-3.72-.92.57-.94,4.99-.03,4.99.38,0,.91-.57,1.18-1.27h0Zm222.9-.36c.58-1.82-.6-3.47-1.89-2.67-.93.57-1.13,2.97-.33,3.78.93.93,1.69.54,2.22-1.11h0Zm52.54-.66c-.47-.47-1.16-.47-1.9,0-1.02.66-1.02.83,0,1.48,1.42.91,3.03-.35,1.9-1.48Zm-313.21-4.96c.16-3.51-.09-5.27-.83-5.88-1.36-1.13-1.89.52-1.85,5.78.07,8.42,2.29,8.51,2.68.1h0Zm359.66.76c-1.73-3.64-2.9-3.59-2.29.11.83,4.97,1.02,5.28,2.4,3.9,1.1-1.1,1.09-1.47-.12-4.01h0Zm-348.93-.47c-.26-1.06-.78-2.24-1.14-2.62-.86-.88-1.88,4.5-1.19,6.28.49,1.26.61,1.25,1.67-.19.69-.94.95-2.31.66-3.48h0Zm5.05,3.09c0-.85-.35-1.55-.77-1.55s-.77.7-.77,1.55.35,1.55.77,1.55.77-.7.77-1.55Zm5.02-3.09c-.23-1.49-.09-3.79.29-5.12.84-2.86.02-4.6-1.84-3.88-1.02.39-1.2.99-.75,2.63.31,1.16.53,3.68.48,5.6-.05,1.91.1,3.99.33,4.62.78,2.11,1.94-.89,1.49-3.85h0Zm266.28-.51c-.95-.95-1.83.63-1.45,2.62l.41,2.15.73-2.18c.4-1.2.54-2.36.31-2.59h0Zm-332.42,2.06c0-1.6-1.87-2.13-2.71-.77-.65,1.05.23,2.32,1.59,2.32.61,0,1.11-.7,1.11-1.55h0Zm39.85-3.72c-.38-1.5-.66-1.66-1.59-.89-1.36,1.13-1.43,2.6-.24,4.83l.89,1.66.7-1.89c.38-1.04.49-2.71.24-3.71h0Zm314.48,3.72c0-.85-.35-1.55-.77-1.55s-.77.7-.77,1.55.35,1.55.77,1.55.77-.7.77-1.55Zm-275.96-1.01c-.31-.5-.58-2.3-.59-4.01-.02-2.23-.36-3.1-1.19-3.1s-1.09.69-.9,2.64c.36,3.67,1.52,6.44,2.46,5.87.43-.27.54-.9.23-1.39h0Zm-123.68-3.17c2.48-8.52.76-10-2.9-2.5-2.33,4.77-2.28,6.68.17,6.68,1.17,0,1.79-.96,2.73-4.18h0Zm133.86.05c-.28-1.13-.8-2.05-1.15-2.05-1,0-1.68,2.92-1.1,4.73.82,2.57,2.94.05,2.25-2.67h0Zm10.48,3.02c0-.61-.35-1.33-.77-1.59-.43-.26-.77.24-.77,1.11s.35,1.59.77,1.59.77-.5.77-1.11Zm-75.69-4.99c.31-6.34.05-8.01-1.16-7.61-.84.28-1.46,10.91-.72,12.36.92,1.8,1.66-.06,1.88-4.75h0Zm5.29,2.56c0-1.87-.31-2.67-.97-2.45-1.82.61-1.67,5.22.17,5.22.44,0,.8-1.25.8-2.77h0Zm5.4-2.79c.01-3.25-.91-4.25-2.34-2.53-.79.95-.78,1.78.04,4.27,1.18,3.59,2.27,2.76,2.29-1.75h0Zm281.62,4.02c0-.43-.35-.77-.77-.77s-.77.35-.77.77.35.77.77.77.77-.35.77-.77Zm95.01-.15c1.25-1.25,1.18-6.41-.1-7.47-1.49-1.23-2.84.42-2.84,3.46,0,4.41,1.08,5.87,2.94,4.01h0Zm-327.24-2.42c.2-1.65-.08-2.07-1.35-2.07-1.16,0-1.6.5-1.6,1.81,0,3.51,2.54,3.74,2.95.26Zm142.1,1.79c-.27-.43-.81-.59-1.21-.34-1.07.66-.87,1.13.49,1.13.66,0,.99-.35.72-.79h0Zm-247.18-.76c0-.43-.52-.77-1.16-.77s-1.16.35-1.16.77.52.77,1.16.77,1.16-.35,1.16-.77Zm83.41-4.46c-.19-2.29-.56-2.89-1.79-2.89-2.06,0-2.39,2.67-.73,5.88,1.12,2.16,1.4,2.32,2.03,1.2.4-.72.62-2.61.49-4.19Zm-11.81,3.63c.85-1.38.96-7.22.15-8.25-1.37-1.75-2.12-.16-2.12,4.49,0,4.28.76,5.73,1.97,3.76h0Zm261.61-1.21c.3-.78-.07-1.68-.96-2.33-1.24-.91-1.54-.88-2.12.15-.42.76-.33,1.63.25,2.33,1.22,1.47,2.22,1.42,2.82-.15h0Zm-407.23-1.59c.35-.58,2-1.91,3.67-2.97,2.96-1.87,3.84-3.64,2.28-4.6-.76-.47-9.52,5.05-10.48,6.6-.28.45-.1,1.3.4,1.89.99,1.19,3.14.71,4.12-.92h0Zm113.31.47c.12-.61-.31-1.8-.94-2.64-1.09-1.45-1.16-1.37-1.18,1.43-.02,2.04.28,2.86.94,2.64.53-.18,1.06-.82,1.18-1.43Zm-70.23-1.86c0-3.11-1.73-3.71-3.13-1.1-1.12,2.09-.42,3.81,1.56,3.81,1.28,0,1.57-.5,1.57-2.71h0Zm274.26.97c16.22-.75,29.98-1.91,39.07-3.29,18.06-2.74,22.24-3.45,25.14-4.28,1.7-.48,4.66-1.02,6.58-1.19,3.23-.29,6.2-.95,11.99-2.68,1.28-.38,3.79-.92,5.59-1.2,4.16-.65,5.09-1.72,4.07-4.65-.52-1.5-.51-7.72.02-18.88.44-9.15.93-19.59,1.09-23.21.78-17.67,1.1-71.91.45-75.04-1.22-5.84-1.55-25.37-.44-25.79,1.85-.71,3.14.98,3.27,4.3.07,1.82.47,10.98.89,20.34.75,16.87.63,42.69-.29,66.53-.71,18.32-.89,53.04-.28,53.42,1.21.75,5.51-1.51,6.16-3.23.69-1.82,2.28-2.56,2.28-1.07,0,1.38,3,.82,4.56-.87,1.4-1.51,1.54-2.86,1.64-16.83.06-8.35.26-19.89.44-25.63.18-5.74.32-20.71.3-33.27-.01-12.55,0-34.49.01-48.74.02-14.25-.27-26.98-.65-28.28-.38-1.3-.45-3.91-.17-5.8.57-3.79-.95-23.84-2.23-29.36-.44-1.91-1.16-6.03-1.58-9.14-.43-3.11-1.3-6.66-1.94-7.89-.64-1.23-1.16-2.93-1.16-3.78s-.35-1.76-.77-2.02c-1.1-.68-.96-4.06.19-4.47,1.22-.44,3.67.79,3.67,1.83,0,.43.7,2.22,1.55,3.99s1.55,3.86,1.55,4.66.34,2.09.75,2.86c.96,1.8,3,18.33,3.44,27.89.36,7.95,1.41,67.72,1.43,81.62,0,4.68-.06,27.14-.16,49.9l-.17,41.39,1.71.26c2.51.38,2.85-.78,2.53-8.64-.16-3.9-.27-7.45-.24-7.87.82-15.09,1.15-114.04.43-131.13-1.23-29.22-1.33-30.34-2.8-30.73-1.26-.33-1.28-.59-.29-2.97,1.26-3.02,1.42-9.36.34-13.4-.41-1.54-1.29-5.23-1.96-8.21-2.42-10.81-7.56-21-14.81-29.35-3.04-3.5-6.64-7.21-8-8.23-1.36-1.03-3.52-2.83-4.8-4.01s-3.94-3.23-5.92-4.56c-1.98-1.33-4.4-3.14-5.38-4.02s-2.86-1.96-4.18-2.4c-2.41-.8-4.46-3.03-3.59-3.9.41-.41,6.97,2.36,13.41,5.67,3.28,1.69,16.64,11.94,18.98,14.57,5.93,6.67,13.97,19.6,15.8,25.4,3.71,11.79,5.5,23.05,5.73,36.07.09,4.85.49,12.29.9,16.55.41,4.26.67,10.87.59,14.7-.09,3.83.15,30.98.53,60.34.38,29.36.7,54.6.71,56.09.01,1.49-.11,8.1-.28,14.7l-.31,11.99,2.45.24c3.02.3,3.5-1.11,2.84-8.36-.54-5.88-.54-6.01,0-25.14.23-8.08.5-19.05.61-24.37.29-13.6-.8-73.61-1.71-94.16-1.68-38.08-3.36-50.88-8.15-62.12-1.54-3.62-3.09-7.27-3.44-8.12-1.33-3.22-8.81-12.57-13.79-17.25-8.2-7.69-18.85-14.14-32.27-19.55-.85-.34-4.6-2.04-8.33-3.77-3.73-1.73-7.48-3.15-8.32-3.15s-2.83-.7-4.42-1.55-3.49-1.55-4.23-1.55-4.02-.87-7.29-1.94c-3.27-1.07-7.83-2.16-10.14-2.43-2.31-.27-5.46-1.14-7-1.93-1.55-.79-3.62-1.43-4.61-1.43-2.26,0-3.12-2.06-1.52-3.65,1.09-1.09,1.51-1.09,4.17-.04,1.63.64,5.39,1.42,8.37,1.74,2.98.31,6.63,1.02,8.12,1.58,1.49.56,3.76,1.23,5.03,1.49,4.9,1.02,15.59,4.69,18.18,6.24,1.49.89,4.45,2.25,6.58,3.02,4.83,1.75,18.68,8.95,24.01,12.49,2.2,1.46,4.25,2.66,4.56,2.66,1.19,0,7.85,5.09,12.92,9.87,6.21,5.85,13.5,15.24,14.29,18.39.3,1.21,1.37,3.4,2.36,4.87,1,1.47,1.81,3.13,1.81,3.69s.89,3.82,1.97,7.26c4.66,14.76,6.87,51.5,7.72,128.45.49,44.04.48,64.94-.03,69.98-.62,6.21.89,8.36,3.71,5.26,1.21-1.34,1.31-4.08,1.3-36.55,0-40.57-.37-63.17-1.54-96.71-.42-12.13-1.12-26.92-1.55-32.88-.43-5.96-.91-12.75-1.06-15.09-.64-9.9-4.39-27.05-7.36-33.65-.38-.85-1.14-2.77-1.69-4.26-3.14-8.53-18.77-25.33-28.17-30.27-2.55-1.34-6.62-3.78-9.05-5.43-2.42-1.64-4.71-2.99-5.07-2.99s-2.39-1.09-4.49-2.43c-4.1-2.61-16.19-7.88-22.17-9.67-2-.6-3.85-1.43-4.11-1.84-.26-.41-1.42-.75-2.59-.75s-2.45-.3-2.86-.66c-1.52-1.36-15.21-5.37-21.62-6.32-2.55-.38-6.56-1.06-8.9-1.5-2.34-.45-7.21-1.15-10.83-1.56-3.62-.41-8.59-1.09-11.05-1.51-2.46-.42-4.99-.56-5.61-.32-1.9.73-5-.43-5.01-1.87,0-.74-.34-1.86-.74-2.5-.64-1.01-1.06-.98-3.39.27-2.62,1.41-2.68,1.41-4.28-.2-2.17-2.17-4.82-2.05-7.04.31-1.71,1.82-1.9,1.85-3.24.65-1.12-1.01-1.79-1.11-3.15-.46-3.75,1.79-4.46,1.77-5.36-.21-.74-1.61-1.41-1.92-4.23-1.92-3.07,0-3.36.17-3.36,1.93,0,1.6-.37,1.93-2.17,1.93-1.19,0-2.54.37-3,.83-.46.46-5.49,1.31-11.18,1.9-17.64,1.82-33.18,3.91-40.91,5.48-3.19.65-7.72,1.56-10.06,2.02-9.25,1.81-14.31,3.46-14.56,4.75-.18.9.46,1.43,2.13,1.76,4.54.91,2.34,2.36-6.9,4.56-3.19.76-7.89,2.31-10.44,3.44-2.55,1.13-5.86,2.51-7.35,3.05-5.84,2.14-15.32,6.61-20.5,9.67-8.97,5.29-20.38,16.72-25.6,25.64-5.24,8.95-10,22.57-11.57,33.1-.56,3.76-1.2,7.33-1.43,7.91-.23.59-.77,5.51-1.21,10.95-.44,5.43-1.14,11.97-1.55,14.52-.41,2.55-.95,10.73-1.21,18.18-.26,7.45-.58,14.93-.71,16.63-.43,5.32-1.46,30.08-1.33,31.91.16,2.24.14,3.66-.16,17.6-1.58,73.17-1.58,69.17-.16,69.72.73.28,1.64.19,2.03-.2.55-.55,1.27-67.96.77-73-.06-.64.32-2.62.85-4.41.86-2.89.81-3.43-.45-4.82-1.34-1.48-1.34-1.67-.1-3.57,1-1.53,1.31-3.69,1.28-9.11-.09-20.42,3.19-64.23,6.9-92.21,1.18-8.91,8.51-27.99,13.36-34.81,6.49-9.12,18.47-20.14,26.08-23.99,1.49-.75,4.11-2.33,5.83-3.51,2.85-1.95,5.08-2.61,8.02-2.37,1.59.13-1.32,3.18-3.04,3.18-.73,0-2.15.65-3.17,1.44s-3.3,2.18-5.07,3.08c-4.5,2.28-16.29,11.91-19.89,16.24-7.98,9.6-13.77,21.74-17.4,36.49-1.91,7.74-4.58,34.42-6.28,62.67-2.36,39.12-2.53,45.32-3.23,112.95-.18,17-.1,18.19,1.21,18.45.77.15,1.68-.02,2.03-.38.35-.36.87-15.1,1.16-32.76.88-53.57,1.51-76.4,2.33-84.33.24-2.34.58-8.43.76-13.54.17-5.11.67-11.16,1.11-13.45.44-2.29.8-8.54.8-13.88s.33-11.65.73-14.01c.4-2.37,1.31-8.31,2.01-13.2,1.19-8.27,2-12,3.48-15.86.33-.85,1.38-3.64,2.34-6.19,2.15-5.71,6.64-14.84,7.46-15.21.33-.15,1.6-1.72,2.81-3.51,3.15-4.64,15.85-15.72,18.02-15.72,2.38,0,.69,2.32-5.96,8.15-8.03,7.05-11.1,10.57-14.52,16.65-2.91,5.17-6.84,15.63-8.27,22.01-1.24,5.56-2.69,19.84-2.69,26.58,0,2.67-.31,5.44-.68,6.15-.37.72-.88,5.13-1.13,9.81-.25,4.68-.8,10.95-1.23,13.93-.98,6.82-1.03,15.12-.09,16.6.61.97.93.94,2.24-.25,1.77-1.6,1.5,1.61,4.45-52.33.22-4.04.7-8.39,1.06-9.67.36-1.28.88-3.89,1.15-5.8.6-4.26,3.83-15,5.99-19.95,2.32-5.31,6.67-11,8.42-11,2.16,0,1.88,2.77-.53,5.18-1.11,1.11-3.19,4.83-4.64,8.28-1.45,3.45-3.04,6.97-3.55,7.82-1.07,1.8-3.79,16.68-3.21,17.6.21.35-.14,4.18-.78,8.53-1.26,8.47-1.89,15.71-2.45,28.02-.65,14.1-1.77,42.53-1.73,43.71.24,6.85-1.3,51.86-1.82,53.23-.38,1-.46,2.21-.17,2.68.62,1,.53,37.58-.11,46.37-.4,5.52-.31,6.03,1.22,6.84,3.71,1.98,3.87.87,4.19-28.75.73-66.67,1.5-101.36,2.69-121,.39-6.38.72-15.86.75-21.06.03-5.2.56-12.34,1.18-15.86s1.14-7.77,1.15-9.45c.01-2.59,1.33-6.49,3.8-11.22.32-.61,1-1.25,1.52-1.43,1.07-.36.52,10.91-.72,14.84-.39,1.23-.71,4.46-.71,7.17s-.4,5.56-.89,6.35c-.65,1.04-.67,2.07-.05,3.84.66,1.9.59,2.91-.33,4.77-.82,1.65-1.52,7.74-2.31,20.33-1.65,26.11-1.76,30.7-2.2,95.13l-.41,58.59,2.05.52c3.73.94,3.97-.33,4-21.22.02-10.51.27-37.39.56-59.73.29-22.34.5-41.57.45-42.74-.16-4.46.39-19.86,1.02-28.7.29-3.97.18-7.22-.24-7.74-.46-.56-.47-3.48-.03-7.78.47-4.57.44-7.2-.09-7.84-.82-.99-.35-2.76,2.11-7.94,1.04-2.19,1.07-2.85.18-4.51-1.11-2.07-.54-3.76,1.74-5.2,3.05-1.92,5.02,2.13,2.59,5.34-1.35,1.78-1.53,6.76-.33,9,.69,1.28.53,2.02-.79,3.81-1.56,2.11-1.58,2.32-.35,4.2,1.07,1.64,1.19,2.97.7,7.93-.89,8.87-1.04,10.15-1.91,15.63-1.34,8.45-2.49,71.62-1.82,99.8.73,30.29.76,35.55.24,43.23-.31,4.58-.16,5.83.77,6.29,1.74.88,7.72,2.4,11.22,2.86,1.7.23,4.02,1.06,5.15,1.86s2.89,1.45,3.91,1.45,2.18.32,2.59.7c.4.39,2.48.87,4.6,1.08s5.74.93,8.03,1.6c2.29.67,7.34,1.59,11.22,2.03,3.88.44,10.01,1.32,13.63,1.95,12.02,2.09,18.1,2.73,26.3,2.75,8.51.02,25.46.62,26.55.95,1.47.44,51.44.1,62.81-.42h0Zm72.48-13.55c.33-1.71,1.7-1.67,2.04.06.15.79-.25,1.3-1.02,1.3s-1.18-.51-1.01-1.35Zm-1.66-4.77c-.46-.86-.64-4.5-.43-8.7.2-3.97.56-16.1.8-26.95.24-10.85.64-25.82.87-33.27.24-7.45.48-15.24.54-17.32.08-2.73.5-4.02,1.51-4.64,2.06-1.27,4.57,1.96,4.06,5.24-.21,1.33-.56,11.81-.79,23.3-1.25,63.11-1.3,63.83-4.35,63.83-.78,0-1.78-.67-2.22-1.48h0Zm31.16-9.15c-.34-2.02-.52-4.2-.4-4.84.12-.64.33-4.29.47-8.12.14-3.83.64-14.84,1.13-24.46,1.02-20.3.99-87.96-.04-99.32-.39-4.26-.95-10.52-1.25-13.91-.51-5.74-.69-6.22-2.56-6.88-1.11-.39-2.96-.47-4.12-.18-1.93.48-2.08.8-1.89,3.94.18,2.86-.13,3.73-1.88,5.35-1.15,1.06-2.09,2.3-2.09,2.75s-.53.81-1.17.81c-.94,0-1.07-.65-.67-3.29.28-1.81.78-3.65,1.12-4.09.34-.44.98-3.57,1.43-6.96,1.09-8.34,1.85-10.76,3.5-11.08,1.26-.24,1.34.15.87,3.95-.52,4.17-.5,4.23,1.84,5.2,1.89.78,2.6.78,3.52.02,1.51-1.25,1.44-3.09-.38-9.67-1.36-4.94-1.39-5.5-.26-6.35,1.77-1.34,3.87.01,5.29,3.4.64,1.54,1.53,6.94,1.97,12.01,1.44,16.6.99,155.46-.53,163.27-.27,1.41-.9,2.13-1.85,2.13-1.11,0-1.58-.83-2.05-3.67h0Zm-18.76-2.83c-.55-.66-.69-1.59-.33-2.16.35-.55.66-8.31.69-17.25.03-8.94.13-27.74.21-41.78.08-14.04-.02-26.92-.23-28.63-.71-5.89-.92-25.98-.27-26.38.97-.6.79-6.83-.23-7.84-1.23-1.23-.24-3.3,1.58-3.3,2.06,0,2.31.58,2.72,6.29.2,2.71.65,6.67,1.01,8.8.36,2.13.41,10.48.11,18.57-.3,8.08-.79,30.37-1.08,49.51-.73,48.5-.57,44.8-2,45.08-.68.13-1.66-.28-2.19-.92h0Zm-254.77-24.1c-.27-.27-.2-1.26.15-2.2.38-.99.33-2.28-.13-3.08-.52-.92-.5-12.51.04-34.77.45-18.37.84-39.31.86-46.54.07-18.92.71-23.6,3.24-23.6,1.62,0,1.63.14,1.13,11.41-.99,22.14-1.73,80.01-1.04,81.16.21.36.06,3.26-.33,6.45-.4,3.19-.8,7.02-.89,8.5-.16,2.54-1.76,3.94-3.04,2.66h0Zm245.43-57.19c-.5-.6-.96-4.33-1.05-8.52-.14-6.05.05-7.57,1.02-8.07,2-1.03,3.12-.04,3.12,2.74,0,1.46.39,3.27.86,4.03.63,1.02.62,2.52-.04,5.72-.93,4.47-2.36,5.97-3.91,4.1h0Zm17.85-52.54c-1.23-1.48-.83-3.54.89-4.62,1.95-1.23,5.21,2.02,3.98,3.98-1.11,1.77-3.67,2.1-4.88.64h0Zm-260.01-15.16c0-.43.52-.77,1.16-.77s1.16.35,1.16.77-.52.77-1.16.77-1.16-.35-1.16-.77Zm-.37-9.98c-.29-1.7-.21-3.66.18-4.34,1.14-2.03,2.66.51,2.37,3.96-.33,3.98-1.9,4.22-2.55.39h0Zm.08-9.01c-.71-1.84-.57-5.21.27-6.54,1.24-1.95,2.46.22,2.2,3.89-.25,3.42-1.61,4.88-2.47,2.65h0Zm264.88-10.41c-2.32-2.32-2.32-5.66.02-8.06,2.01-2.07,3.51-.65,4.14,3.93.72,5.26-1.16,7.13-4.15,4.13h0Zm-269.85-9.44c-2.58-2.58,1.32-8.2,4.37-6.29,1.58.99,2.09,4.61.85,6.1-1.12,1.35-3.95,1.45-5.22.19h0Zm-4.8-13.68c0-.98,2.27-2.72,2.82-2.17.79.79-.39,2.85-1.64,2.85-.65,0-1.18-.31-1.18-.68h0Zm3.09-4c0-1.97,2.46-5.38,3.89-5.38,2.32,0,1.89,2.73-.72,4.59-2.53,1.8-3.17,1.96-3.17.79h0Zm274.15-4.21c-.27-.7-.12-1.64.34-2.09,1.18-1.18,3.41-.1,3.1,1.5-.34,1.78-2.82,2.21-3.44.6h0Zm-270.79-13.2c-.54-1.4,2.31-4.72,4.68-5.47.88-.28,2.57-1.22,3.75-2.1,1.55-1.15,2.38-1.35,2.99-.74,1.28,1.28.06,4.1-1.78,4.1-.88,0-2.94,1.22-4.59,2.71-3.31,2.99-4.36,3.3-5.05,1.51h0Zm9.38-17.42c-.84-1.36,2.08-3.92,4.19-3.66,2.78.33,2.87,1.89.19,3.28-2.74,1.42-3.68,1.5-4.37.38h0Zm13.08-5.75c-.74-1.92.33-3.48,2.36-3.48,2.57,0,3.23,1.32,1.57,3.14-1.62,1.79-3.32,1.94-3.93.34h0Zm6.76-2.22c-.48-.58-.67-1.6-.42-2.26.73-1.89,2.89-2.34,3.99-.83.81,1.11.76,1.59-.29,2.75-1.53,1.69-2.11,1.75-3.27.35h0Zm-.08-7.06c-1.21-1.46.21-3.48,2.44-3.48,2.11,0,2.77,2.32,1.02,3.59-1.82,1.33-2.27,1.32-3.46-.11h0Zm22.05-11.99c-.65-1.05.23-2.32,1.59-2.32.61,0,1.11.7,1.11,1.55,0,1.6-1.87,2.13-2.71.77h0Zm131.91-6.45c0-.57.23-1.26.51-1.54.7-.7,2.67,1.03,2.14,1.89-.66,1.07-2.65.81-2.65-.35h0Zm-18.12-1.03c-.34-.89-.04-1.73.84-2.37,1.86-1.36,2.97-.83,2.97,1.41s-3,3.08-3.81.96h0Zm7.29-.25c0-1.17.4-1.58,1.35-1.4.74.14,1.35.77,1.35,1.4s-.61,1.26-1.35,1.4c-.95.18-1.35-.23-1.35-1.4Zm5.56.19c.14-.74.77-1.35,1.4-1.35s1.26.61,1.4,1.35c.18.95-.23,1.35-1.4,1.35s-1.58-.4-1.4-1.35Zm-19.49-2.04c0-2.26,2.18-3.26,3.72-1.72,1.57,1.57.58,3.57-1.77,3.57-1.55,0-1.96-.39-1.96-1.85h0Zm-152.42,304.15c0-.74-.34-1.35-.76-1.35s-.77,1.13-.76,2.51c0,1.91.19,2.23.76,1.35.41-.64.76-1.77.76-2.51Zm343.38.38c.3-2.09-2.19-2.43-3.78-.51-.84,1.01-.82,1.34.1,1.93,1.74,1.12,3.41.48,3.68-1.42h0Zm-425.86.2c0-.43-.58-.89-1.3-1.02-.79-.15-1.3.25-1.3,1.02s.51,1.18,1.3,1.02c.71-.14,1.3-.6,1.3-1.02Zm71.84-2.72c.16-1.97-.09-2.7-.93-2.7-1.37,0-1.89,2.07-1.2,4.81.65,2.58,1.84,1.4,2.13-2.12Zm271.26,1.6c.39-2.66-1.21-3.84-2.07-1.53-.38,1.03-.52,2.32-.32,2.87.58,1.51,2.09.66,2.38-1.34h0Zm99.93.39c0-.61-.32-1.32-.72-1.56-.92-.57-1.84.88-1.21,1.9.71,1.15,1.93.94,1.93-.34Zm-376.66-3.99c-.32-3.51-.71-4.38-1.72-3.76-.83.51-.98,6.02-.19,6.82,1.24,1.24,2.16-.24,1.9-3.05Zm-138.67.05c2.71-2.79,2.87-4.14.34-2.83-.79.41-2.39,1.12-3.56,1.58-1.34.53-2.13,1.42-2.13,2.4,0,2.41,2.37,1.89,5.34-1.16h0Zm426.36.36c0-1.61-1.14-2.02-1.96-.69-.7,1.14.23,3.26,1.18,2.67.43-.26.78-1.16.78-1.98h0Zm-294.5-1.39c-.06-1.34.2-2.43.58-2.43s.69-.52.69-1.16-.52-1.16-1.16-1.16-1.16.69-1.16,1.6-.36,2.28-.81,3.11c-.91,1.69-.3,3.28,1.07,2.79.49-.17.84-1.41.78-2.75h0Zm321.88-2.73l-.51-2.32-1.14,2.18c-.93,1.77-.97,2.56-.2,4.21l.94,2.03.71-1.89c.39-1.04.48-2.93.2-4.21h0Zm53.38,2.5c-.22-.36-1.08-.66-1.91-.66-1.69,0-2.13,2.73-.53,3.33,1.12.42,3.05-1.69,2.44-2.67Zm13.47.63c.19-1.62-.08-2.07-1.27-2.07-1.87,0-2.8,2.13-1.58,3.61,1.29,1.56,2.57.87,2.85-1.54Zm-476.21-3.57c.59-2.24-.67-3.69-2.32-2.66-1.49.92-2.17,3.55-1.42,5.5.41,1.08.62,1.07,1.92-.11.8-.72,1.62-1.95,1.82-2.73Zm-49.01-.62c1.33-1.6,2.67-3.18,2.98-3.51,1.21-1.33,10.23-6.74,11.24-6.74.59,0,2.16-.54,3.5-1.21,2.91-1.45,8.26-1.22,8.26.35,0,1.22-.82,1.73-6.03,3.7-3.83,1.45-10.88,6.67-10.09,7.47.25.25,2.23-.45,4.41-1.56,5.09-2.58,7.72-3.43,12.48-4.02,3.28-.41,3.91-.75,4.12-2.27.14-.98-.24-2.55-.85-3.48-1.78-2.73-3-7.22-3.15-11.57-.14-3.85-.26-4.07-2.36-4.31-2-.23-2.18-.06-1.84,1.7.31,1.63-.02,2.1-1.95,2.77-1.28.45-3.79.81-5.59.81-1.96,0-3.66.46-4.23,1.16-.53.64-1.58,1.16-2.33,1.16-1.69,0-5.22,2.76-4.48,3.5.3.3,1.69.11,3.09-.41,4.39-1.63,14.02-2.98,15.56-2.18,2.21,1.16,1.13,2.43-3.01,3.55-10.96,2.97-14.14,4.27-15.75,6.45-.9,1.22-2,2.23-2.43,2.23-1.42,0-5.52,3.45-6.2,5.22-.79,2.05-.18,4.07,1.23,4.07.55,0,2.09-1.31,3.42-2.9h0Zm471.05-2.32c-.19-4.41-.46-5.26-1.7-5.49-1.35-.26-1.43.11-1.05,4.39.44,4.9.94,6.32,2.21,6.32.45,0,.67-2.15.53-5.21h0Zm14.48.7c0-4.24-1.14-6.36-2.47-4.58-.4.54-.59,2.82-.41,5.08.26,3.3.57,4.06,1.6,3.86.99-.19,1.28-1.16,1.29-4.36h0Zm-358.77,2.34c.17-.51-.41-.92-1.31-.92-1.61,0-2.09.81-1.08,1.82.72.72,2.01.23,2.39-.9Zm393.01,0c.17-.51-.24-.92-.92-.92s-1.22.55-1.22,1.22c0,1.37,1.67,1.13,2.14-.31Zm-387.42-.53c0-.64-.52-1.16-1.16-1.16s-1.16.52-1.16,1.16.52,1.16,1.16,1.16,1.16-.52,1.16-1.16Zm398.04-3.16c0-1.71-.4-2.31-1.64-2.49-2.22-.32-3.02,1.98-1.33,3.85,1.76,1.95,2.98,1.4,2.98-1.36h0Zm-461.64-.03c.24-1.67-1.55-2.7-3.52-2.04-1.04.35-1.32,2.69-.42,3.58,1.1,1.1,3.71.08,3.94-1.54h0Zm508.72.09c.62-1.63-.23-3.48-1.6-3.48-.63,0-2.08-.64-3.21-1.43-3.39-2.36-7.86-2.83-7.86-.83,0,1.09,8.75,6.75,10.56,6.83.91.04,1.86-.45,2.1-1.09h0Zm-580.51-3.09c0-.64-.33-1.16-.73-1.16-.98,0-1.67,1.21-1.06,1.83.87.87,1.78.53,1.78-.67Zm54.4-1.23c-1.03-1.03-2.17.38-1.36,1.68.37.61.76.61,1.36,0,.61-.61.61-1.08,0-1.68Zm53,.32c-.38-1.94-2.18-2.21-2.18-.32,0,.95.5,1.61,1.22,1.61s1.12-.53.97-1.29h0Zm22.81-1.1c-1.03-1.03-2.17.38-1.36,1.68.37.61.76.61,1.36,0,.61-.61.61-1.08,0-1.68Zm332.82.07c0-2.92-3.01-2.69-3.35.25-.22,1.9-.02,2.16,1.55,1.93,1.33-.19,1.8-.75,1.8-2.19h0Zm-420.48-.39c0-2.23-2.61-2.77-3.4-.7-.63,1.65.08,2.64,1.9,2.64,1.09,0,1.5-.54,1.5-1.93Zm6.83.11c.2-1.02-.12-1.34-1.14-1.14-.78.15-1.54.91-1.69,1.69-.2,1.02.12,1.34,1.14,1.14.78-.15,1.54-.91,1.69-1.69Zm75.64-.29c-.26-.26-.44.2-.41,1.02.04.9.22,1.08.47.47.22-.56.2-1.23-.06-1.48h0Zm349.19-5.43c.06-1.79-1.32-.99-2.27,1.31-.52,1.25-.67,2.72-.33,3.26.43.69.9.3,1.59-1.31.54-1.26.99-2.73,1.01-3.26Zm-475.74-1.76c1.87-2.14,3.59-4.18,3.82-4.52s1.38-.87,2.55-1.15c1.18-.29,2.13-1.05,2.13-1.72,0-1.39-2.71-.82-4.47.94-.58.58-1.61,1.06-2.28,1.06-1.58,0-6.13,3.47-7.22,5.51-.99,1.84-.45,3.78,1.04,3.78.57,0,2.57-1.75,4.44-3.89h0Zm130.21,2.54c.19-.32.57-10.15.83-21.86.26-11.7.64-27.54.85-35.2.21-7.66.56-23.15.79-34.43.23-11.28.61-21.8.84-23.39.32-2.17.02-3.45-1.19-5.15-.89-1.25-1.61-2.65-1.61-3.11,0-1.58-1.52-.86-1.97.94-.25.98-.57,6.82-.71,12.96-.14,6.14-.63,18.48-1.08,27.41-.45,8.94-.81,29.55-.79,45.8.02,16.26-.21,29.94-.5,30.42-.29.47-.31,2.05-.03,3.52.4,2.15.85,2.66,2.35,2.66,1.02,0,2.01-.26,2.21-.58h0Zm359.87-1.41c0-.81-.61-1.59-1.36-1.73-1.71-.33-2.73,2.09-1.27,3.01,1.53.97,2.63.44,2.63-1.28Zm84.67,0c-1.52-1.84-5.12-3.48-6.48-2.96-.67.26-1.21,1.1-1.21,1.88,0,1.39,1.27,1.79,6.86,2.16,1.58.11,1.7-.04.83-1.09h0Zm-91.25-1.06c0-.83-.28-1.67-.62-1.88-1.1-.68-2.72.87-2.23,2.15.67,1.75,2.84,1.55,2.84-.26h0Zm-2.84-11.08c-.05-1.8-.25-23.12-.43-47.38-.19-24.25-.61-44.71-.94-45.45-.33-.74-.89-1.35-1.26-1.35-1.08,0-2.42,3.11-1.92,4.43.49,1.27,1.38,59.42,1.25,81.29-.04,6.94.14,12.98.42,13.42,1.04,1.68,2.98-1.65,2.89-4.97h0Zm-375.03-3.29c.07-7.37.9-41.61,1.48-61.11,1.47-49.49,2.02-63.81,2.73-70.54.44-4.18.94-10.9,1.12-14.94.66-14.85,1.96-23.21,5.98-38.3,1.17-4.39,3.77-12.12,4.66-13.82.94-1.81-.24-3.15-2.22-2.52-.84.27-1.84,1.81-2.43,3.75-.55,1.81-1.64,5.04-2.42,7.16-.79,2.13-2.02,6.65-2.74,10.06-.72,3.4-1.63,7.26-2.02,8.57-.39,1.31-.72,3.92-.73,5.8,0,1.88-.39,5.69-.84,8.46-.45,2.77-.95,7.35-1.11,10.19-.16,2.84-.65,9.63-1.09,15.09-.44,5.46-1.17,22.63-1.62,38.16-.45,15.53-1.13,39.03-1.52,52.23-.53,18.23-.55,42.44-.02,48.21.01.14.63.13,1.38-.01,1.15-.22,1.36-1.2,1.42-6.44h0Zm-7.72-19.33c.16-5.53.4-13.81.53-18.39.23-8.01-.23-10.87-1.52-9.58-.33.33-.69,2.93-.8,5.78-.11,2.85-.26,6.04-.33,7.11-.07,1.06-.1,3.33-.06,5.03.04,1.7-.11,7.04-.34,11.85-.23,4.82-.16,9.69.14,10.83l.56,2.07.76-2.32c.42-1.28.89-6.85,1.05-12.38h0Zm.85-31.62c.78-2.55.15-5.13-1.27-5.13-.88,0-1.74,4.9-1.14,6.47.75,1.95,1.53,1.51,2.41-1.34h0Zm.23-12.1c0-.8-.32-1.66-.72-1.9-.88-.54-1.89,2.35-1.21,3.45.71,1.14,1.93.16,1.93-1.55h0Zm.35-12.58c.04-7.95-1.36-9.24-1.9-1.74-.49,6.85-.12,10.1,1.03,8.95.46-.46.85-3.71.87-7.21h0Zm.42-15.71c0-.61-.35-1.11-.77-1.11s-.77.72-.77,1.59.35,1.38.77,1.11c.43-.26.77-.98.77-1.59Zm379.12-14.44c-.03-11.73-.84-29.26-2.3-49.34-1.63-22.4-2.54-27.72-7.31-42.55-1.46-4.55-2.22-5.86-3.49-6.05-1.32-.2-1.62.16-1.62,1.87,0,1.17.54,2.72,1.21,3.45,1.46,1.61,4.67,14.24,5.8,22.77,1.89,14.35,2.29,20.53,3.8,58.84.4,10.24.9,19.11,1.09,19.73.2.61.59,2.16.87,3.43,1.11,4.99,1.99-.48,1.97-12.15h0Zm-379.12,7.91c0-1.28-.35-2.32-.77-2.32s-.77,1.04-.77,2.32.35,2.32.77,2.32.77-1.04.77-2.32Zm.74-9.63c1.1-1.32.31-4.51-1-4.08-1.08.36-1.7,5.21-.66,5.21.4,0,1.15-.51,1.66-1.12h0Zm.89-22.14c1.43-7.34,1.14-13.8-.55-12.11-.76.76-1.75,7.15-1.81,11.65-.05,4.39,1.53,4.7,2.36.46h0Zm.45-18.33c-.19-.74-.35.05-.34,1.75,0,1.7.17,2.31.35,1.34.19-.96.18-2.35-.02-3.09h0Zm2.25-8.34c.58-2.3.08-3.05-1.59-2.4-1.55.6-1.6,4.37-.05,4.37.63,0,1.37-.89,1.64-1.97h0Zm-4.33-1.57c0-.72-.53-1.12-1.29-.97-1.94.38-2.21,2.18-.32,2.18.95,0,1.61-.5,1.61-1.22h0Zm4.87-6.76c.21-.56.2-2.03-.04-3.27-.38-1.98-.5-2.07-1.03-.72-.83,2.13-.84,5.01-.01,5.01.38,0,.87-.46,1.08-1.02h0Zm1.96-10.46c.14-.92-.08-1.68-.49-1.68-1.19,0-2.65,2.18-2.08,3.1.8,1.29,2.29.47,2.56-1.42h0Zm1.16-7.32c-.24-.38-.76-.34-1.2.09-.43.43-.52,1.19-.2,1.7.43.7.72.68,1.2-.09.34-.56.44-1.32.2-1.7h0Zm8.6-23.16c1.48-2.11,1.52-2.92.17-2.92-.85,0-2.83,3-2.83,4.29,0,.97,1.6.15,2.66-1.37h0Zm10.03-3.12c5.78-8.75,7.75-11.26,13.86-17.58,3.48-3.6,7.55-7.17,9.04-7.91,1.49-.75,4.92-2.76,7.62-4.47,2.7-1.71,5.36-3.11,5.91-3.11s4.77-1.78,9.39-3.95c9.99-4.7,19.22-8.43,20.85-8.43,1.89,0,5.84-2.32,5.34-3.13-.71-1.15-6.27.03-13.51,2.87-3.61,1.42-6.81,2.58-7.1,2.58s-5.21,2.26-10.94,5.03-10.8,5.03-11.27,5.03-.86.29-.86.65-1.74,1.6-3.87,2.75-4.23,2.78-4.67,3.6c-.44.83-1.44,1.5-2.23,1.5-1.4,0-11.01,7.96-11.58,9.6-.16.46-1.4,2.24-2.76,3.94-4.17,5.24-8.21,12.51-7.7,13.84.78,2.02,1.66,1.47,4.49-2.82h0Zm337.62-.32c.13-.87-1.07-3.3-2.71-5.52-1.62-2.18-4.15-5.63-5.63-7.67-2.97-4.08-11.74-11.83-13.4-11.83-.58,0-1.87-.87-2.87-1.94-2-2.13-6.96-5.29-6.96-4.43,0,.67,6.38,6.37,7.12,6.37.3,0,1.46.84,2.58,1.87,8.04,7.36,15.87,16.33,16.6,19,1.46,5.39,4.7,7.95,5.26,4.15h0Zm-344.38-3.88c-.8-.8-1.98.59-1.52,1.79.42,1.09.55,1.08,1.2-.08.4-.72.55-1.49.32-1.71h0Zm2.45-3.6c.15-.76-.25-1.29-.97-1.29s-1.22.66-1.22,1.61c0,1.89,1.81,1.62,2.18-.32h0Zm4-6.03c0-1.35-1.38-.64-1.78.91-.34,1.31-.22,1.43.68.68.6-.5,1.1-1.22,1.1-1.59h0Zm17.65-16.88c.19-.58-.1-.87-.68-.68-.56.19-1.17.8-1.35,1.35-.19.58.1.87.68.68.56-.19,1.17-.8,1.35-1.35Zm11.09-5.43c3.13-1.68,7.11-3.75,8.85-4.6,3.73-1.82,5.43-3.56,4.22-4.31-.45-.28-2.69.56-4.97,1.87s-4.71,2.37-5.41,2.37-1.26.3-1.26.67-1.91,1.85-4.24,3.29c-3.95,2.44-5.22,3.77-3.58,3.77.38,0,3.25-1.38,6.38-3.06h0Zm275.31,2.42c0-1.34-3.77-4.1-6.66-4.88-1.66-.45-3.71-1.44-4.56-2.2s-2.33-1.62-3.29-1.91c-.96-.29-1.74-.85-1.74-1.25s-.87-.72-1.93-.72c-2.77,0-2.39,1.44.72,2.74,1.46.61,2.85,1.42,3.09,1.81s1.36.93,2.5,1.22c1.14.29,3.46,1.72,5.18,3.18,2.83,2.42,6.7,3.59,6.7,2.02h0Zm-253.44-12.9c2.09-1.06,4.57-1.93,5.51-1.93s2.14-.52,2.67-1.16,1.88-1.17,3-1.18c1.12,0,3.55-.71,5.41-1.55s4.31-1.53,5.45-1.53c2.07,0,3.94-1.22,3.94-2.56s-10.22.91-14.65,3.22c-1.76.92-3.9,1.67-4.77,1.67s-2.33.43-3.26.95c-.93.52-3.08,1.31-4.78,1.74-2.32.59-3.16,1.22-3.34,2.53-.31,2.19.15,2.18,4.83-.2h0Zm230.86.26c-.27-1.86-4.15-3.63-5.34-2.44-1.15,1.15,1.48,4.12,3.64,4.12,1.56,0,1.89-.34,1.7-1.68h0Zm-8.73-3.15c-1.46-.82-2.37-.33-1.63.87.27.44,1.04.58,1.71.32,1.09-.42,1.08-.55-.08-1.2h0Zm-3.22-1.72c-.54-1.4-3.05-2.26-4.32-1.48-.63.39-.19.91,1.35,1.56,3.01,1.29,3.49,1.27,2.97-.08Zm-6.48-2.74c-1.5-.97-2.32-.97-2.32,0,0,.43.78.77,1.74.76,1.41,0,1.52-.16.58-.76Zm-5.03-1.61c0-.6-.78-1.21-1.74-1.34-1.88-.27-2.52,1.74-.77,2.44,1.46.59,2.51.13,2.51-1.1h0Zm-8.79-3.06c-1-.84-2.75-1.58-3.87-1.65-1.12-.07-2.64-.17-3.38-.22-.74-.05-1.82-.74-2.4-1.54-.66-.9-1.56-1.27-2.34-.97-1.49.57-1.7,2.78-.31,3.18.53.15,2.71.82,4.84,1.48,2.13.66,5.09,1.21,6.58,1.22l2.71.02-1.83-1.52h0Zm-161.08-.29c.61-.73.64-1.25.11-1.58-.99-.61-7.02,1.13-7.02,2.02,0,1.1,5.94.72,6.91-.44h0Zm12.77-3.64c-.66-1.07-2.65-.81-2.65.35,0,.57.23,1.26.51,1.54.7.7,2.67-1.03,2.14-1.89Zm128.48.86c.61-.98-1.56-1.87-2.76-1.13-.65.4-.61.73.16,1.22,1.38.88,2.02.85,2.6-.09h0Zm-116.05-1.59c1.7-.52,4.49-.92,6.19-.89,4.31.09,12.68-1.4,13.27-2.36.59-.96-7.51-.42-18.43,1.22-7.98,1.2-9.47,1.71-8.69,2.97.52.85,2.67.58,7.66-.95h0Zm28.14-2.97c1.52-.96.36-2.4-1.94-2.4-2.45,0-5.12,1.39-4.52,2.36.57.92,5.03.94,6.46.04h0Z"/>
  <text/>
  <text class="cls-2" transform="translate(189.4 112.07) rotate(-22.24)"><tspan x="0" y="0">M</tspan></text>
  <text class="cls-2" transform="translate(248.55 88.64) rotate(-12.79)"><tspan x="0" y="0">a</tspan></text>
  <text class="cls-2" transform="translate(285.08 80.07) rotate(-5.66)"><tspan x="0" y="0">n</tspan></text>
  <text class="cls-2" transform="translate(323.18 76.02) rotate(1.54)"><tspan x="0" y="0">y</tspan></text>
  <text class="cls-2" transform="translate(361.94 75.98) rotate(10.43)"><tspan x="0" y="0">H</tspan></text>
  <text class="cls-2" transform="translate(417.53 86.62) rotate(19.24)"><tspan x="0" y="0">a</tspan></text>
  <text class="cls-2" transform="translate(453.5 99.39) rotate(25.08)"><tspan x="0" y="0">t</tspan></text>
  <text class="cls-2" transform="translate(475.54 109.58) rotate(29.7)"><tspan x="0" y="0">s</tspan></text>
</svg>